<?xml version="1.0" encoding="UTF-8"?>
<svg id="Layer_6" data-name="Layer 6" xmlns="http://www.w3.org/2000/svg" viewBox="0 0 1327.59 221.3">
  <defs>
    <style>
      .cls-1 {
        fill: #cfedc2;
      }
    </style>
  </defs>
  <path class="cls-1" d="M1203.21,83.14c2.96,2.44,3.45,5.78,6.95,8.36,1.2-4.83,1.24-9.42-.33-14.7-8.21-1.98-16.85-3.36-25.34-1.39-14.86,3.44-22.85,16.53-23.26,31.17-.41,14.78,6.9,28.39,21.79,32.55,9.3,2.6,20.35,1.71,28.52-3.25,3.97-2.42-1.16-18.3,3.34-22.08,3.61-3.03,8.95-1.77,13.94-.7-1.6,9.63-5.13,17.29-11.37,25.52,5.29,1.57,10.06,1.34,15.09-.06-5.7-6.42-.97-18.32,2.56-23.61,5.36,1.58,11.45,1.62,16.4,4.78,6.37,4.07,6.56,12.8,3.87,19.09,6.67.8,12.87,1.36,19.48-.26-4.25-5.84-6.68-9.62-8.48-14.86l-16.21-47.24c-.73-2.12-4.18-1.77-5.28-1.27-1.14.51-3.12,1.68-3.8,3.81l-8.09,25.51c-14.19,9.33-22.55.41-35.1,3.86,4.55,5.94,8.64,18.61,2.08,24.98-6.29,6.11-18.6-.82-22.35-7.57-6.43-11.57-6.41-25.18-.47-36.56,5.17-9.9,17.54-13.09,26.05-6.09ZM1244.19,92.2c3.12,6.26,4.25,12.12,6.75,20.17-4.94,1.32-10.02-.38-13.97-3.93-.07-2.51,5.15-20.4,7.22-16.24Z"/>
  <path class="cls-1" d="M304.74,121.87c10.69,1.38,9.78,11.17,13.67,15.82,2.81-5.55,1.22-11.37-1.71-15.49-2.66-3.74-7.32-5.88-12.8-6.37-7.6-.68-15.28,2.23-19.2,9.94-7.04,13.84-.8,29.18,12.59,35.47,10.87,5.11,23.52,4.67,34.13-.68,10.95-5.52,17.15-15.62,18.09-26.46,1-11.54-3.73-22.58-13.75-29.49l-21.13-14.57c-7.18-4.95-11.65-15.05-5.73-22.93,5.19-6.91,17.2-6.5,22.84-.55,3.43,3.62,1.88,8.2,6.35,11.51,1.62-6.64,1.28-12.19.54-18.92-15.69-4.78-37.14-3.59-41.91,13.88-7.25,26.55,21.34,31.64,35.42,47.77,7.13,8.17,7.29,18.74,2.4,27.45-4.6,8.18-13.44,11.85-23.91,11.04-8.26-.64-15.15-4.68-18.45-10.82-3.39-6.29-4.19-13.94-.35-20.45,2.86-4.86,8.18-6.75,12.92-6.14Z"/>
  <path class="cls-1" d="M444.75,89.26c-2.77-17.85-28.24-13.55-43.09-13.08,3.81,6.22,4.61,12.4,4.57,19.83l-.15,27.55c-.03,5.91-1.46,10.44-4.13,15.21,6.76.7,12.53,1.14,19.35,0-5.21-7.67-6.14-16.63-3.37-26.34.86-3.02,5.38-.33,6.61,1.99,8.28,15.53,15.25,33.12,33.03,38.26,6.41,1.85,13,1.36,17.95-2.39-28.16-1.25-28.66-21.66-43.73-41.06,10-3.78,14.33-11.09,12.95-19.95ZM429.07,104.4c-2.27,1.79-10.44,4.03-11.29,1.15-2.16-7.31-1.55-16.02-.02-23.59.59-2.91,8.17-.92,10.54.12,6.82,2.98,7.64,16.91.77,22.32Z"/>
  <path class="cls-1" d="M881.23,91c-1.22-19.73-28.2-15.53-43.56-14.82,3.87,5.7,5.11,10.94,5.07,17.78l-.17,30.43c-.03,5.54-1.72,9.87-4.47,14.3,6.6,1.01,12.39.93,19.4.04-5.19-8.57-5.76-18.08-2.88-27.4,11.5,1.48,10.79,19.95,26.54,33.95,9.58,8.51,22.14,10.47,31.8,3.94-5.7-1.65-10.62.04-15.65-2.17-15.09-8.39-18.77-24.85-29.05-37.72,9.39-3.66,13.46-10.09,12.95-18.33ZM866.71,103.64c-2.14,2.11-10.33,5.55-11.69,2.37-3.06-7.16-2.5-16.83-.25-24.1,1-3.22,8.82-.63,11.23.77,5.47,3.2,6.05,15.67.71,20.95Z"/>
  <path class="cls-1" d="M682.02,59.87c-10.34-4.34-23.06-4.17-33.76-.48-18.56,6.41-29.42,23.71-30.67,42.89-1.18,18.07,5.17,34.82,19.34,45.97,14.07,11.06,41.62,13,56.93-.39-.82-2.6-3.36-2.17-5.62-.89-15.6,8.87-34.49,5.8-46.19-9.04-17.56-22.26-12.38-60.04,6.94-71.56,11.45-6.82,25.06-5.03,33.88,5.13,2.68-3.11,2.61-10.18-.86-11.64Z"/>
  <path class="cls-1" d="M1075.12,100.64c-5.17-10.3-9.07-20.68-15.71-30.2-13.94-19.98-36.54-13.39-31.56-11.02,7.12,3.38,12.78,6.26,17.13,12.77,7.39,11.04,15.28,22.3,19.35,35.35,1.77,5.67,3.79,31.58-2.91,37.44-1.07.94-1.82,3.31-.21,3.4.75.04,31.17,2.05,22.63-2.9-2.51-1.46-5.21-4.3-5.2-7.66.19-36.83-3.01-27.64,17.24-61.89,5.5-9.3,13.91-13.57,24.1-17.43-24.54-8.98-33.8,24.65-44.86,42.14Z"/>
  <path class="cls-1" d="M503.39,90.53c-3.37-4.26-5.36-9.69-9.65-13.07-3.93-3.1-9.99-2.4-13.97-.63,3.36,3.96,5.41,7.76,5.42,12.94l.06,33.64c.01,5.69-1.39,10.08-4.66,15.06,5.26,1.26,10.12,1.38,15.06.13-6.87-2.8-7.35-50.9-1.52-43.04l31.21,42.14c.89,1.2,2.11,1.85,3.12,2.17.79.25,2.47-.4,2.45-3.09l-.19-42.95c-.03-6.7,1.38-11.93,4.61-17.56-5.44-1.16-9.94-1.47-15.03.38,7.9,7.19,5.45,28.5,4.45,40.88l-21.36-26.99Z"/>
  <path class="cls-1" d="M1099.25,121.7c5.1,13.84,18.33,20.81,32.63,18.57,11.9-1.86,22.05-12.01,23.86-26.78,1.41-11.55-.74-22.09-7.76-30.08-6.93-7.87-16.84-10.14-27.79-8.47-19.2,2.93-28.47,26.31-20.93,46.76ZM1111.75,89.67c2.56-6.6,7.99-10.24,14.14-10.35,5.92-.1,12.02,3.09,14.81,9.62,6.54,15.28,4.62,45.22-12.92,46.74-16.59,1.44-23.98-25.49-16.03-46.01Z"/>
  <path class="cls-1" d="M741.67,77.92c-2.96-3.97-10.85-2.35-14.55-1.31,3.6,5.08,5.34,9.29,5.35,15.12l.04,29.68c0,6.69-1.23,11.89-4.47,17.27,5.44.84,9.76,1.28,14.8-.18-3.73-4.8-5.27-9.23-5.23-14.99l.15-27.37c0-1.88,1.93-2.38,2.92-1.05l32.96,44.16c1.89,2.53,3.88-1.32,3.87-3.28l-.24-44.24c-.03-5.56,1.37-9.91,4.94-15.04-4.73-1.53-9.3-1.5-14.9,0,7.19,6.46,5.43,28.56,3.91,40.84l-29.55-39.61Z"/>
  <path class="cls-1" d="M387.11,110.91c11.07-4.98,14.36-19.25,7.09-28.83-7.02-9.24-29.75-6.1-40.57-5.76,2.97,4.89,4.5,9.49,4.55,15.48l.27,30.1c.06,6.4-1.38,11.63-4.75,16.68,6.86.96,12.86,1.38,20.19.06-5.78-7.24-6.59-16.48-4.39-25.64,7.78-.31,12.55.19,17.61-2.09ZM370.16,81.79c1.06-3.26,9.25-.54,11.69.78,6.63,3.6,6.65,18.13.52,23.36-2.32,1.98-10.02,5.16-11.76,1.73-3.61-7.11-2.93-18.19-.44-25.87Z"/>
  <path class="cls-1" d="M573.69,79.98c6.09.83,9.54,5.6,13.26,11.96,2.84-5.06,1.27-10.2.4-15.56-4.68-.26-8.85-.55-13.72-1.2-17.7-2.35-32,9.64-34.01,27.2-1.51,13.2,2.44,27.03,14.48,33.79,10.53,5.9,24.46,5.56,34.96-.16,4.19-2.28-2.06-17.25,6-27.89-7.32-.55-12.96-.85-19.67.12,5.88,8.35,7.13,17.65,2.15,26.44-9.3,2.11-17.36-1.3-21.56-8.62-6.89-12.01-6.67-26.81.51-38.59,3.87-6.35,10.86-8.36,17.19-7.5Z"/>
  <path class="cls-1" d="M934.84,87.91c2.2-4.43.74-8,0-12.38l-38.08.48c6.34,6.25,4.97,55.14,1,62.7,12.98-.04,25.15,2.48,37.82.02,3.74-.72,4.18-10.55,2.73-13.54-6.05,8.46-15.16,11.99-25.65,8.43-1.89-8.28-2.23-16.61.31-25.52,7.84-.68,10.94,1.95,15.81,3.97,1.35-4.59,1.65-9.5-.95-13.14-3.35,2.67-11.52,7.38-14.44,3.02-2.7-4.04-3.47-16.4.14-19.66,6.3-5.69,17.01.09,21.31,5.62Z"/>
  <path class="cls-1" d="M719.5,87.49c1.39-1.91,1.97-11.11-.95-11.2l-38.14-1.11c3.95,6.91,5.68,11.58,5.23,18.69-1.16,18.5,2.58,33.2-4.4,45.35,8.04-1.17,37.82,2.17,39.85-1.35,2.15-3.74,3.33-7.93,1.88-12.66-8.73,9.95-11.99,9.64-27.4,8.5l.58-25.25c6.49-1.76,11.72.63,17.21,3.27.92-4.36.96-8.54-.35-12.37-5.34,3.43-10.82,5.26-16.8,3.45-.53-7.86-.68-13.96-.03-21.52,8.62-2.45,16.95-.69,23.3,6.18Z"/>
  <path class="cls-1" d="M832.94,87.78c2.07-1.41,2.25-11.1-.79-11.48l-41.64-.83c-1.52-.03-3.98.62-4.31,1.63-1.24,3.78-1.37,7.52.07,11.16,4.45-4.18,8.44-8.2,14.95-7.17,2.62.42,3.24,3.9,3.24,6.38v36.06c0,5.96-1.81,10.42-4.57,15.29,7.2.85,13.41.98,20.02-.16-7.57-3.33-4.71-55.65-3.25-56.49,6.1-3.52,11.98.81,16.29,5.61Z"/>
  <path class="cls-1" d="M218.63,89.68c2.75-3.06,4.14-7.18,7.61-7.97,2.67-.61,10.24-2.18,10.25,1.22l.08,40.58c.01,5.99-1.6,10.57-5.01,15,7.18,1,13.51,1.13,20.44-.09-3.68-4.58-5.36-9.12-5.12-14.92.33-7.81-.56-40.07,1.41-41.31,4.66-2.95,10.63-.89,14,3.74,1.98,3.52,4.72,1.94,3.75-2.27-.17-1.73.22-8.22-1.87-8.19l-43.69.47c-3.44.22-4.46,10.72-1.84,13.74Z"/>
  <path class="cls-1" d="M994.53,130.45c-1.43,5.72-3.82,12.12-8.84,15.18-2.99,1.82-6.39-1.16-9.63-1.29-2.72-.11-2.84,3.3-1.58,4.92.58.75,1.87,1.19,4.02,1.58,20.81,3.71,26.96-31.07,29.22-44.54,1.86-11.13,15.82-4.32,12.59-10.06-1.25-2.22-5.1-1.07-8.39-2.61-.69-5.45.97-12.19,6.06-15.72,2.29-1.58,5.26,1.94,7.51,2.88,2.18.91,3.69-1.38,3.74-2.76.04-1.35-.69-3.37-3.06-4.09-8.79-2.7-17.24,2.85-19.85,11.49-1.76,5.82-4.75,9.47-10.81,11.87,1.78,2.77,6.44,3.45,5.76,6.15l-6.74,26.99Z"/>
  <path class="cls-1" d="M454.22,76.24c3.24,5.66,4.46,10.88,4.44,17.59l-.06,23.25c-.02,7.56-.21,14-3.08,21.17,6.05.89,11.71,1.88,17.61.43-6.33-8.34-3.72-32.35-4.11-46.48-.17-6.09,1.63-10.82,4.77-15.67-6.7-1.05-12.55-1.18-19.58-.28Z"/>
  <path class="cls-1" d="M977.32,93.08c-14.12,4.94-19.91,21.04-13.24,33.85,7.85,4.47,16.95,3,22.83-4.64,5.86-7.62,7.83-17.55,3.39-25.65-2.24-4.09-8.59-5.1-12.98-3.57ZM972.29,124.98c-6.45-7.75-2.2-26.67,7.55-28.09,1.1-.16,3.2.61,3.74,2.66,4.11,15.6-8.14,29.22-11.3,25.43Z"/>
  <path class="cls-1" d="M217.85,139.54c6.06.05,5.85-11.81,4.63-14.39-7.03,12.08-23.2,10.07-24.59,6.77-1-2.39-.49-31.78-.75-40.19-.19-6.11,1.44-10.75,5.27-15.33-6.97-1.38-12.83-.88-20.03-.14,2.64,4.87,4.4,9.41,4.39,15.46l-.09,33.91c-.01,3.95-.99,10.36-5.24,11.65-3.07.93-6.64-4.85-7.72-7.89l-18.7-52.77c-.78-2.21-4.13-1.89-5.32-1.4-1.13.47-2.99,1.46-3.69,3.65l-7.14,22.35c-2.61,8.16-11.01,4.6-15.95,9.34-1.39,1.34-1.09,3.44-.16,3.63,2.7.53,10.63-5.21,10.48-.66-.27,8.21-4.38,16.46-9.99,22.6-6.75,7.38,3.47-17.38-16.84-31.56l-21.12-14.75c-6.5-4.54-11.13-13.33-6.57-21.01,5.12-8.62,18.43-8.66,24.62-1.39,2.83,3.33,1.98,7.5,5.71,10.15.65-4.33,3.84-14.34-.33-17.95-3.07-2.65-28.86-7.53-38.81,7.76-4.64,7.12-4.81,15.37-1.77,22.64,5.84,13.97,24.45,18.62,34.64,30.63,6.82,8.04,7.47,19.18,2.47,27.68-4.72,8.01-13.83,11.86-24.13,10.85-8.22-.81-15.09-4.83-18.38-10.72-3.53-6.32-4.17-14.03-.42-20.5,3.78-6.52,11.58-8.01,17.44-4.92,5.84,3.08,8.08,9.67,6.01,17,7.03-4.41,5.79-14.08.19-19.68-6.13-6.11-15.23-5.72-22.15-2.65-6.91,3.06-10.42,9.86-10.98,18.17-.75,11.21,4.5,20.89,14.92,25.49,11.84,5.22,25.8,4.54,36.91-2.11,8.11-4.85,13.07-12.14,14.56-22,5.47.51,10.65,3.2,16.54,1.86,2.94-.67-.66-4.24-.8-5.65-.68-6.76,2.01-12.52,4.96-18.59,5.99,1.76,12.62,1.87,17.73,5.75,5.57,4.23,3.9,12.34,2.33,18.46l57.9.44ZM142.29,108.41c1-6.25,2.03-11.72,5.66-17.25,4.29,7.44,5.3,13.31,8.73,21.59-5.87,1.43-10.2-.79-14.39-4.34Z"/>
</svg>