<?xml version="1.0" encoding="UTF-8"?>
<svg id="Layer_1" xmlns="http://www.w3.org/2000/svg" viewBox="0 0 295.18 238">
  <defs>
    <style>
      .cls-1 {
        fill: currentColor;
      }
    </style>
  </defs>
  <g>
    <path class="cls-1" d="M63.34,140.06l1.27-.19c.6-.09,1.02-.63.96-1.23-.05-.52-.21-1.34-.99-3.03-2.2-4.76-15.01-19.62-28.79-19.62h-.14c-.61,0-1.1.49-1.12,1.11-.07,3.38,2,7.28,5.96,11.28,6.4,6.45,16.52,11.69,22.58,11.69h.12s.1,0,.15-.01Z"/>
    <path class="cls-1" d="M79.88,80.77c-4-.51-8.01-.77-11.93-.77-8.97,0-17.42,1.37-24.43,3.95-.42.16-.71.55-.74,1-.01.24-.02.48-.02.73,0,11.31,11.35,29.62,22.03,41.12,4.17,4.49,7.76,7.37,9.61,7.7.32.06.66-.03.91-.24.4-.33,9.61-7.84,9.66-7.87l4.48-3.61c.17-.07.25-.11.33-.16.52-.34.66-1.04.32-1.56-6.45-9.79-9.3-21.87-9.24-39.16,0-.57-.42-1.05-.98-1.12Z"/>
    <path class="cls-1" d="M117.48,67.28c-1.19-3.23-12.42-13.25-19.07-13.25-.5,0-.97.05-1.4.16-2.45.61-4.2,1.33-6.12,5.72-1.78,4.09-3.58,14.33-3.58,26,0,7.49.77,18.2,4.42,26.69l.63,1.56c.26.65,1.14,2.83,1.87,3.97.32.49,1,.66,1.52.36,2.46-1.43,9.7-5.62,9.95-5.78l2.56-1.59c.34-.21.55-.59.53-1-.03-.91-.06-1.87-.06-2.78,0-18.84,5.69-32.1,8.74-39.22.11-.27.12-.56.02-.84Z"/>
    <path class="cls-1" d="M119.91,194.24c.61.27,1.28.41,1.99.41,2.06,0,4.21-1.17,5.62-3.04,5.82-7.75,9.66-20.27,10.29-33.5.64-13.47-2.01-25.07-7.27-31.84-4.51-5.81-9.22-8.93-14.39-9.53-.61-.07-1.25-.11-1.88-.11-8.99,0-17.94,7.22-26.6,14.2-1.99,1.6-2.51,2.02-2.66,2.14-9.31,7.43-18.93,15.11-29.65,15.11-.51,0-1.02-.02-1.52-.05h0c-.54,0-.96.29-1.13.73-.17.46-.02,1,.38,1.3,6.24,4.69,11.8,6.97,17.02,6.97,7.87,0,14.23-5.23,20.96-10.78l.72-.59c6.26-5.14,16.14-11.15,23.42-11.15.41,0,.82.02,1.2.06,3.85.4,8.84,3.3,11.3,8.88,4.39,9.88,3.8,23.93-1.52,36.66-.77,1.84-1.97,2.94-3.22,2.94-1.13,0-2.19-.51-2.92-1.41-.13-.16-.31-.28-.51-.35-.12-.04-.25-.06-.37-.06-.45,0-.86.27-1.04.69-.29.69-.7,1.83-.89,2.79-.24,1.19-.36,2.32-.36,3.37,0,4.19,1.9,5.66,3.03,6.17Z"/>
    <path class="cls-1" d="M174.71,168.28c.86-.1,20.7-2.55,29.09-11.36.91-.96,1.81-2.32.89-3.3-3.25-3.19-14.39-13.49-22.97-13.49-.82,0-1.61.1-2.34.29-5.77,1.53-9.21,8.71-9.21,19.19,0,2.46.19,5.03.56,7.64.1,1.1,1.5,1.4,3.98,1.03Z"/>
    <path class="cls-1" d="M203.53,145.66l.73.6c7.05,5.8,13.13,10.8,21.03,10.8,5.19,0,10.72-2.24,16.91-6.86.4-.3.56-.82.39-1.29-.16-.44-.59-.74-1.06-.74-.48.03-.9.04-1.31.04-10.81,0-20.51-7.74-29.89-15.22l-2.71-2.17c-8.65-6.98-17.6-14.19-26.57-14.19-.63,0-1.26.04-1.88.11-5.17.6-9.87,3.72-14.39,9.53-5.26,6.77-7.91,18.37-7.27,31.84.63,13.23,4.47,25.75,10.29,33.5,1.41,1.88,3.57,3.04,5.62,3.04.71,0,1.38-.14,1.99-.41,1.13-.5,3.03-1.98,3.03-6.16,0-1.02-.12-2.16-.36-3.37-.15-.79-.52-2-.74-2.72-.11-.37-.39-.64-.75-.76-.34-.11-.74-.05-1.03.17-.13.08-.21.16-.29.25-.73.89-1.8,1.4-2.93,1.4-1.24,0-2.44-1.1-3.21-2.94-5.33-12.73-5.91-26.77-1.53-36.66,2.14-4.84,6.69-8.41,11.32-8.88.38-.04.78-.06,1.19-.06,7.26,0,17.15,6.01,23.42,11.16Z"/>
    <path class="cls-1" d="M259.51,115.84c-13.87.06-26.68,15.03-28.86,19.77-.78,1.73-.93,2.56-.98,3.03-.06.59.36,1.13.95,1.22l1.28.19s.1.01.15.01h.11c6.05,0,16.17-5.24,22.57-11.69,3.99-4.02,6.03-7.98,5.9-11.45-.02-.61-.52-1.08-1.13-1.08Z"/>
    <path class="cls-1" d="M251.76,83.98c-7.05-2.61-15.55-3.99-24.57-3.99-3.87,0-7.82.25-11.77.75-.56.07-.99.55-.99,1.12,0,17.26-2.85,29.31-9.23,39.07-.32.49-.22,1.13.23,1.49.12.1.29.23.49.39l4.33,3.56s8.15,6.65,9.66,7.88c.25.2.58.29.91.24,1.84-.33,5.42-3.19,9.58-7.67,10.71-11.52,22.1-29.86,22.1-41.18,0-.16,0-.31,0-.46v-.17c-.02-.47-.3-.87-.74-1.03Z"/>
    <path class="cls-1" d="M203.5,112.64c3.67-8.53,4.43-19.25,4.43-26.73,0-11.66-1.8-21.91-3.58-26.01-1.93-4.38-3.67-5.11-6.11-5.72-.43-.11-.91-.16-1.4-.16-6.66,0-17.9,10.03-19.08,13.26-.1.27-.09.57.02.83,3.06,7.13,8.75,20.4,8.74,39.23,0,.69-.02,1.4-.04,2.12l-.02.65c-.01.4.19.78.53.99l1.04.65c.87.54,1.7,1.06,1.86,1.16,0,0,7.03,4.08,9.6,5.57.51.29,1.2.12,1.52-.37.63-.98,1.36-2.67,1.86-3.92l.63-1.56Z"/>
    <path class="cls-1" d="M115.97,140.42c-.73-.19-1.51-.29-2.33-.29-8.35,0-18.94,9.53-23.11,13.63-.21.21-.34.5-.34.8,0,.42.24,1.17,1.37,2.36,3.54,3.72,9.48,6.76,17.66,9.03,6.09,1.69,11.24,2.31,11.45,2.33,1.13.17,1.85.17,2.19.18l.17.02c.12.03.25.04.38.02.51-.05.92-.44,1-.95.44-2.89.67-5.67.67-8.28,0-10.29-3.4-17.33-9.11-18.85Z"/>
  </g>
  <path class="cls-1" d="M180.44,99.11l-.11-1.16c-.9-9.34-5.65-22.5-12.42-34.34-2.69-4.7-12.09-20.05-20.25-20.26-8,.21-16.87,14.24-20.31,20.27-6.77,11.84-11.52,24.99-12.41,34.33l-.12,1.2c-.17,1.73-.39,3.86-.39,5.82,0,2.15.21,5.15,2.06,6.28.04.02.08.04.12.06l2.79,1.27,2.84,1.12c18.98,7.9,20.4,21.45,20.4,41.22,0,1.8-.01,3.65-.02,5.54l-.03,3.72-.16,7.74c-.07,2.54-.14,4.93-.14,7.29,0,2.76.09,4.99.28,7.03.66,4.75,2.09,6.71,4.95,6.81l.04.76.04-.76c3.45-.11,4.52-2.74,5.08-6.65.2-2.16.29-4.45.29-7.28,0-2.48-.07-5.11-.14-7.43l-.18-11.22c-.01-1.92-.02-3.79-.02-5.61,0-19.73,1.42-33.25,20.35-41.13l2.84-1.12,2.83-1.3s.08-.04.12-.06c1.86-1.14,2.08-4.14,2.08-6.3,0-2.05-.23-4.32-.38-5.83Z"/>
</svg>