<?xml version="1.0" encoding="UTF-8"?>
<svg id="Layer_1" xmlns="http://www.w3.org/2000/svg" viewBox="0 0 1031.6 238">
  <defs>
    <style>
      .cls-1 {
        fill: #ffffff;
      }
    </style>
  </defs>
  <polygon class="cls-1" points="557.69 49.31 558.28 49.31 558.28 48.72 557.69 48.72 557.69 49.31 557.69 49.31"/>
  <polygon class="cls-1" points="544.14 49.61 544.73 49.61 544.73 49.02 544.14 49.02 544.14 49.61 544.14 49.61"/>
  <polygon class="cls-1" points="808.64 169.25 809.23 169.25 809.23 168.65 808.64 168.65 808.64 169.25 808.64 169.25"/>
  <polygon class="cls-1" points="559.28 45.39 559.92 45.39 559.92 44.76 559.28 44.76 559.28 45.39 559.28 45.39"/>
  <polygon class="cls-1" points="544.89 45.71 545.52 45.71 545.52 45.07 544.89 45.07 544.89 45.71 544.89 45.71"/>
  <polygon class="cls-1" points="445.39 51.4 446.02 51.4 446.02 50.77 445.39 50.77 445.39 51.4 445.39 51.4"/>
  <polygon class="cls-1" points="536.5 52.98 537.14 52.98 537.14 52.35 536.5 52.35 536.5 52.98 536.5 52.98"/>
  <polygon class="cls-1" points="536.25 56.46 536.84 56.46 536.84 55.87 536.25 55.87 536.25 56.46 536.25 56.46"/>
  <polygon class="cls-1" points="382.43 55.2 382.91 55.2 382.91 54.57 382.43 54.57 382.43 55.2 382.43 55.2"/>
  <path class="cls-1" d="M354.49,39.33s-.09-.09-.16-.13l-.05-.07c.02-.46-.11-.84-.37-1.12-.58-.61-1.66-.58-2.52-.55-.16,0-.31.01-.45.01-.04,0-.08,0-.11.02-10.59,3.79-14.03,15.16-15.05,24.16-12.61-1.15-26.61-1.22-34.16,11.58-.02.03-.03.07-.04.11l-.09.46c-.44,2.14-.78,3.83.38,5.81-.1.49.15,1.27.46,2.15.01.04.03.09.05.14,0,.06,0,.13,0,.19,0,.07.02.15.06.21.17.22.34.29.52.19.23-.13.22-.3.08-.69.14-3.99.43-9.81,4.01-13.38,4.7-4.85,12.53-4.25,18.82-3.78l.69.05c-.07.14-.24.29-.52.49-.16.12-.32.25-.47.4-.02.01-.03.03-.04.05-1.49,2.24-1.55,5.55-1.6,8.74-.09,5.26-.17,10.23-6.07,10.89-.17.02-.3.17-.29.35.01.18.16.31.34.3l9.49-.31c.12,0,.23-.08.28-.18.05-.11.04-.24-.03-.34-.72-1.03-1.84-1.02-2.83-1.01-.51,0-.99.01-1.4-.12,3.49-2.65,3.5-7.2,3.52-11.61,0-2.62.01-5.1.72-7.12,2.16-1.62,5.98-1.07,8.07-.3l-2.19,20.31c-.01.15.07.28.2.34.13.05.29.02.38-.1,1.86-2.31,2.53-5.12,3.19-7.83.55-2.26,1.07-4.42,2.21-6.32.07-.1.14-.2.21-.3.13-.19.25-.38.38-.56.09-.12.18-.23.28-.35.04,1.24,0,2.6-.06,4.02-.14,3.79-.28,7.72,1.16,10.49.05.09.13.15.23.17.1.02.19,0,.27-.07l.54-.43c1.66-1.34,3.73-3.01,4.47-5.09.06-.16-.02-.34-.17-.41-.15-.07-.34,0-.42.14-.66,1.15-1.44,2.38-2.52,2.51-1.51-3.32-1.01-7.48-.57-11.15.2-1.62.38-3.14.38-4.48,0-.13-.08-.25-.2-.3-.12-.05-.26-.02-.36.07-1.45,1.45-2.55,3.02-3.6,4.57-.17.23-.33.47-.48.71-.43.64-.88,1.3-1.35,1.94-.34-.79-.12-1.67.11-2.52.2-.77.39-1.51.18-2.18-.4-1.6-.34-2.75.19-3.53.79-1.16,2.57-1.4,4.46-1.66,1.89-.25,3.84-.52,5.04-1.75,1.97-1.19,4.28-2.82,4.79-4.97.24-1.02.04-2.05-.6-3.06-.08-.13-.24-.18-.38-.14-.14.05-.23.18-.22.33.1,1.36-.53,2.36-1.19,3.42-.34.54-.69,1.11-.97,1.74-2.48,2.32-6.46,4.09-9.94,2.99.37-1.64.65-3.39.92-5.08,1.07-6.68,2.17-13.58,9.11-16.87,1.27-.63,4-.16,4.68.17l.13.19c.06.09.16.14.27.14s.21-.05.27-.14c.11-.17.09-.38-.05-.54h0Z"/>
  <path class="cls-1" d="M572.9,91.21c-.35-2.65-1.88-6.16-4.99-7.48-1.09-2.28-3.29-3.83-5.42-5.34-1.14-.8-2.32-1.63-3.29-2.56-.08-.07-.2-.11-.3-.08-.31.08-1.18,0-1.66-.42-.25-.21-.35-.48-.31-.81.02-.16-.08-.3-.23-.35-4.75-1.49-8.13-4.46-12.04-7.89l-1.74-1.52c-3.36-3.86-4.05-10.48-1.54-14.78,1.02-1.44,2.5-2.13,3.93-2.8,1.52-.71,2.96-1.39,3.8-2.86,1.29,1.06,2.88,1.22,4.42,1.37,1.93.18,3.76.36,5.19,2.11,0,0,.01.02.02.03,3.39,3.39,2.25,8.89,1.33,13.31-.02.11.01.22.09.3.11.11.22.24.33.37.4.46.85.99,1.48.99.1,0,.2-.05.26-.13.06-.08.08-.18.06-.28-.05-.2.01-.29.3-.54.15-.13.31-.27.44-.47.04-.05.05-.12.05-.18v-12.72c.93-1.4.85-2.79.77-4.14-.04-.72-.08-1.39.02-2.08.02-.15-.06-.29-.19-.35-2.17-.93-4.6-1.3-7.42-1.13-.01,0-.02,0-.03,0-5.43.8-10.61,2.63-14.58,5.15-4.97,3.15-8.08,7.24-9.26,12.18,0,0,0,.02,0,.02-1.21,6.91.62,12.96,5.02,16.6.1.08.23.1.35.04.11-.05.19-.17.19-.3,0-.09,0-.16.12-.24l.32.25c-.22.21-.47.5-.26.92.02.04.05.08.09.11.77.61,1.55,1.28,2.3,1.93,2.91,2.5,5.92,5.08,9.78,5.66l-.27.33c-.07.08-.09.19-.06.29.03.1.1.18.2.22.35.13.72.48,1.1.84.76.71,1.77,1.67,3.03.9,2.22,3.48,7.27,7.79,8.96,9.19.11,1.21.38,2.46.67,3.79.62,2.87,1.27,5.84.43,8.76-1.89,5.79-7.18,9.81-15.74,11.95-.05.01-.09.03-.13.07-.24.2-.58.08-1.13-.14-.6-.24-1.47-.59-2.13.13.02-.09,0-.18-.07-.26-.08-.1-.21-.14-.34-.11-5.6,1.43-11.18-1.53-17.06-9.06-.41-.48-.63-1.19-.85-1.87-.25-.79-.48-1.55-1-1.92-.04-.18-.11-.36-.18-.51-.2-.44-.27-.6.33-.9.08-.04.14-.11.16-.2.03-.08.02-.17-.02-.25-.98-1.87-.75-3.54-.5-5.31.13-.93.27-1.89.22-2.89,1.11-5.11,6.25-6.95,10.38-8.42.1-.03.17-.11.2-.21.03-.1.02-.2-.04-.29l-1.11-1.58c-.09-.12-.25-.17-.4-.11-7.05,2.94-11.96,7.45-13.47,12.37-2.42,5.98-1.16,13.78,3.06,18.98,6.5,9.19,21.63,6.41,26.12,5.34.07-.02.13-.05.17-.11.71-.85,1.75-1,2.85-1.15,1.15-.16,2.34-.33,3.14-1.35,10.02-7.23,18.9-15.69,16.08-28.45h0Z"/>
  <path class="cls-1" d="M741.05,43.43c-.03-.14-.14-.24-.27-.26-1.73-.25-3.04.79-4.2,1.7-.43.34-.84.66-1.21.87-3.68,1.84-4.09,6.43-4.38,9.78l-.07.75c-.18,1.01-1,5.94.22,7.28.11.12.23.21.37.27-.89,1.69-.49,4.43-.23,6.12.07.49.16,1.04.13,1.16-.03.15.05.31.2.37.02.01.05.01.07.02-.49.89-.39,2.27-.31,3.42.03.42.05.82.05,1.13-1.49-.18-2.44-1.02-3.44-1.91-.76-.67-1.54-1.37-2.61-1.83-.12-.05-.26-.03-.36.07-.36.36-.55.4-.63.4-.15-.01-.34-.26-.53-.52-.28-.38-.62-.84-1.19-1.06-.02,0-.04-.01-.06-.02-2.38-.41-4.5-1.5-6.75-2.64-1.8-.92-3.65-1.87-5.64-2.43l.39-.39c.07-.07.11-.18.09-.28-.01-.1-.07-.19-.16-.24-5.96-3.33-12.87-8.87-12.02-16.4.2-.5.79-1.01,1.25-1.43.57-.5.95-.84.87-1.23-.03-.14-.12-.32-.43-.43-.1-.04-.22-.01-.31.06-.84.69-1.52,1.56-2.23,2.49-.79,1.02-1.6,2.06-2.66,2.88-.03.02-.05.04-.07.07-2.84,4.16-3.32,8.11-1.44,11.73.03.07.09.12.16.15,2.52,1.07,2.26,3.86,2,6.57-.13,1.39-.25,2.7,0,3.74-.36,2.45-.61,5.03-.84,7.52-.78,8.29-1.58,16.87-6.98,22.62-.12.13-.12.32,0,.45.12.13.31.14.45.03,5.45-4.6,9.16-11.07,9.92-17.3,0-.04,0-.09,0-.14-.24-.77-.05-1.72.14-2.72.28-1.44.57-2.93-.41-4.07.6-2.11.81-4.85,1.02-7.51.08-1.17.18-2.38.3-3.5,3.25,2.45,6.79,4.63,9.92,6.57l2.15,1.33c.13.08.29.06.4-.04.25-.25.37-.29.39-.29.07.05.19.32.25.49.18.43.39.97.92,1.15.12.04.25,0,.33-.08l1.12-1.12c.08.02.16.03.23.04.23.03.37.06.48.2,0,.13-.17.28-.42.48-.1.08-.21.17-.3.26-.07.07-.1.18-.09.28.01.1.08.19.17.24,2,1.08,4.53,2.35,6.47,2.7,1.1,1.21,2.5,1.93,3.98,2.69,1.77.9,3.59,1.84,4.93,3.69.01.01.02.03.03.04.65.65,1.24,1.57,1.12,2.05-.01.07-.07.28-.5.41-.14.04-.24.17-.24.32,0,.15.1.28.24.31l.92.26c.68,2.89,1.45,6.74,2.16,10.87.03.17.19.29.36.27.17-.02.3-.17.29-.34-.03-.62-.1-1.27-.17-1.96-.24-2.47-.51-5.25.7-7.05.27.26.38.58.5.95.07.21.14.42.24.62.07.15.24.22.4.16.16-.05.24-.21.22-.37-.14-.7.07-1.65.27-2.58.24-1.08.47-2.11.19-2.85-.03-.09-.11-.16-.2-.19-.11-.03-.13-.07-.17-.39,0-.08-.02-.17-.04-.26.03-.02.07-.05.1-.07.05-.04.12-.1.16-.11,0,0,0,0,.02,0,.09.04.2.04.29,0,.09-.05.16-.13.18-.23.25-1.28.03-2.44-.18-3.47-.18-.94-.36-1.83-.15-2.68.04-.17-.05-.34-.22-.39-3.43-1.11-3.13-4.06-2.82-7.2.14-1.44.29-2.93.04-4.21.12-1.75.16-3.61.2-5.41.18-7.96.36-16.19,6.76-20.08.12-.07.18-.21.15-.35h0Z"/>
  <path class="cls-1" d="M802.24,68.36c-.07-.16-.24-.23-.4-.18-9.37,3.12-18.8,2.2-28.45.83.14-.34.43-.52.89-.75.49-.25,1.04-.53,1.38-1.2.06-.13.04-.28-.06-.37-.1-.1-.24-.13-.37-.07-3.57,1.64-7,3.61-10.8,6.2-.09.06-.14.16-.14.27v.79c0,.18.14.32.32.33l8.54.31c0,.12.07.24.18.29.11.05.24.04.34-.04l1.21-.94c.14.18.16.41.16.68,0,.09.04.18.1.24.06.06.16.09.25.09,4.51-.32,7.82-.62,11.14-1-1.53,1.82-2.08,4.21-2.61,6.53-.72,3.15-1.41,6.13-4.29,7.95-4.12,2.75-9.97,3.36-17.89,1.87l-1.58-1.11c-2.63-1.82-4.9-3.38-6.97-6.35-4.29-7.21-4.71-16.11-1.12-23.81.5-.41.34-1.03.24-1.41-.03-.12-.08-.32-.07-.39.04-.02.18-.06.63.01.15.02.29-.06.35-.2,2.11-5.11,8.58-8.36,13.77-8.64v.13c0,.13.08.25.2.3.12.05.26.02.36-.07l.71-.71c1.6-.12,3.85.16,5.38,1.07,5.01,2.73,5.07,8.38,4.75,13.46-.01.17.1.31.26.34.74.15,1.16-.24,1.5-.56.12-.1.22-.2.33-.27.1-.07.16-.19.14-.31-.39-2.9-.39-5.73-.39-8.46s0-5.52-.4-8.31c-.01-.07-.04-.14-.09-.19l-.32-.32c-.05-.05-.13-.09-.2-.09-7.39-.56-14.51.64-20.61,3.47-6.38,2.96-11.61,7.73-15.13,13.78-.01.02-.02.05-.03.07-.18.57-.48,1.17-.8,1.8-.76,1.5-1.62,3.19-.71,4.75-1.32,1.61-1.18,3.94-1.05,6.01.06.98.12,1.9.02,2.68,0,.03,0,.05,0,.08.49,4.15,2.03,11.48,6.86,14.27.93,2.46,2.59,3.02,4.35,3.61,1.1.37,2.24.75,3.3,1.63.05.04.1.06.16.07,7.28,1.12,20.46,1.46,27.88-8.55l.63,3.01c-.54,2.88,1.15,5.52,2.64,7.85.65,1.01,1.25,1.96,1.67,2.88.06.14.21.21.36.19.15-.03.26-.15.26-.3.21-3.14.29-6.31.36-9.37.14-6.09.28-12.39,1.5-19.31,4.31-.72,9.57-3.2,11.26-4.11.15-.08.21-.26.14-.42h0Z"/>
  <path class="cls-1" d="M462.72,91.84c-.1-.11-.25-.14-.38-.08-.77.34-1.39.97-2,1.57-.57.58-1.12,1.11-1.75,1.41-2.53.22-3.85-2.23-5.12-4.59-.17-.32-.33-.61-.5-.91-.83-3.01-2.33-5.98-3.66-8.59l-.59-1.18c-.18-2.63-1.01-5.64-2.24-8.1-.33-.9-.59-1.84-.85-2.74-.45-1.62-.92-3.29-1.82-4.82-.13-1.66-.39-3.22-.65-4.73-.38-2.25-.77-4.56-.77-7.35,0-1.28,1.2-2.62,2.1-3.55.14-.11.27-.23.37-.38.09-.14.07-.33-.06-.44-.13-.11-.32-.1-.44.02-.09.09-.19.19-.3.3-.24.16-.55.27-.84.36l-.16.05c-.06.02-.11.05-.15.1-.83.98-1.93,1.98-3.09,3.03-2.2,2.01-4.67,4.24-5.77,6.88-.2-.43-.48-.8-.76-1.16-.53-.69-1.03-1.34-.88-2.48.02-.12-.04-.25-.14-.31-.13-.09-.27-.25-.41-.41-.29-.34-.64-.75-1.2-.75-.12,0-.23.07-.29.17-.06.11-.05.24.02.34,2.05,3,.58,7.69-.49,10.25-1.72,2.18-3.18,4.74-4.61,7.23-3.08,5.39-6.27,10.97-12.32,13.52-.13.05-.21.19-.2.33.01.14.12.26.26.29.93.19,1.62-.06,2.12-.76.22.03.45.03.67.03.42,0,.79,0,1.09.16-.42.58-.89,1.11-1.35,1.62-.84.94-1.64,1.84-1.91,2.83-3.25-3.25-7.18-5.72-11.68-7.34.04-.05.05-.12.05-.18,0-.09-.03-.17-.1-.23-1.06-1.06-2.59-1.7-4.07-2.31-1.74-.73-3.38-1.41-4.27-2.7-.03-.04-.07-.08-.12-.11l-1.15-.59c-2.84-1.47-5.3-2.74-7.77-5.34-2.95-3.62-1.87-7.91-.83-12.05.14-.55.28-1.12.41-1.68,4.47-6.29,9.16-6.77,15.62-7.4l.38.16c1.8.74,3.66,1.5,4.77,3.17.06.08.14.13.24.14.1.01.19-.02.26-.09l.9-.9.29.24-.88,1.01c-.07.08-.1.18-.07.28.89,4.03,1.27,8.58,1.1,13.53,0,.09.03.17.09.24.06.06.15.1.23.1h1.9c.09,0,.18-.04.24-.11.06-.07.09-.16.08-.26-.52-4.74-.49-9.41-.45-13.93.02-2.29.03-4.45-.02-6.61,0-.07-.03-.14-.07-.19l-1.11-1.42c-.06-.08-.16-.13-.26-.13-8.05,0-14.44.89-19.43,5.23-2.56.24-4.2,2.21-5.78,4.12-1.11,1.35-2.27,2.74-3.73,3.5-.12.06-.19.19-.17.33.02.13.11.25.24.28l1.33.33s-.07.08-.11.12c-.62.7-1.11,1.16-1.78.83-.16-.08-.36-.01-.44.15-1.63,3.25-3.63,8.16-2.24,13.2,1.71,8.02,8.09,11.78,14.26,15.42,2,1.18,4.06,2.4,5.95,3.75.13.09.31.08.42-.04l.16-.16c.14.05.27.1.41.15.46.15.86.29,1.14.74.05.09.14.14.24.16.1,0,.2-.02.27-.09l.24-.24c.58.57,1.29,1.01,2.03,1.47.93.58,1.89,1.17,2.63,2.07.06.07.15.11.24.12.09,0,.18-.03.25-.1l.06-.06c.27.31.58.59.87.87.75.7,1.46,1.36,1.51,2.34-1.89,2.76-4.52,4.95-7.61,6.3-3.1,1.36-6.52,1.84-9.89,1.38-.02,0-.03,0-.04,0-1.14,0-2.26-1.67-2.73-2.38-.08-.12-.23-.18-.37-.13-.14.04-.23.17-.23.31,0,2.69,1.24,4.54,3.69,5.53.03,0,.05.01.08.02,7.12.87,12.46-3.93,17.18-8.16l1.38-1.22c1.09.96,1.52,2.19,1.96,3.49.31.91.63,1.85,1.2,2.69.94,4.16.48,8.18-1.37,11.95-1.63,3.35-4.28,6.29-7.66,8.52-2.66,1.18-5.26,1.86-7.78,2.53-1.5.4-2.91.77-4.32,1.23-8.6,1.29-16.8-3.41-21.21-7.82-.12-.12-.31-.13-.44-.02l-.59.47-.35-.28c.9-1.47-.07-2.93-.94-4.23-.43-.66-.89-1.33-1.08-1.97-.33-.95-.58-2.12-.81-3.26-.41-2-.8-3.91-1.69-4.98.05-.04.1-.08.13-.08,0,0,0,0,.02,0,.12.06.25.04.35-.04.1-.08.14-.21.11-.34-.36-1.3-.02-2.56.31-3.78.33-1.23.64-2.39.11-3.36l.2-.2c1.29-1.28,3.22-3.19,4.16-5.16,1.14.25,2.16-.13,3.24-.52.86-.32,1.75-.65,2.75-.65.18,0,.33-.15.33-.33v-2.21c0-.17-.13-.31-.29-.33-6.67-.68-10.55,4.86-13.67,9.32-.63.89-1.22,1.74-1.81,2.51-.04.05-.06.11-.07.17-.04.59-.29,1.22-.55,1.88-.55,1.41-1.17,2.99.31,4.28-.07-.02-.15-.06-.27-.12-.24-.12-.54-.27-.85-.16-.1.03-.18.12-.21.22-1.09,3.81-.02,7.35,1.02,10.78.19.62.39,1.27.56,1.9,0,.02.01.03.02.04,1.81,3.94,5.2,7.55,9.54,10.15,4.42,2.65,9.34,3.95,13.86,3.65,1.52.07,2.84-.31,4.01-.64,1.41-.4,2.63-.75,3.75-.19.08.04.17.05.25.02.08-.03.15-.09.19-.16.27-.54.69-.53,1.48-.48.19.01.39.03.6.03.05,0,.1-.01.14-.03l.98-.5c1.9-.97,4.5-2.3,6.88-2.97.03,0,.06-.02.09-.03.45-.28.84-.74,1.21-1.17.82-.96,1.36-1.52,2.26-1.03.11.06.25.05.35-.03,9.2-6.85,14.22-15.91,14.53-26.2,0-.16-.11-.3-.27-.33l-1.54-.25c.13-.26.38-.37.77-.53.31-.13.66-.27.94-.56.07-.08.11-.19.09-.29-.13-.69-.2-1.43-.27-2.15-.19-1.92-.38-3.92-1.69-5.59,0,0-.02-.02-.03-.03-2.33-2.33-.68-4.06,1.23-6.07.87-.91,1.77-1.86,2.24-2.87l1.76-.08c5.71-.24,12.18-.52,16.79-4.34,1.72.08,2.31,2.16,2.94,4.34.3,1.06.61,2.14,1.07,3.02l.08.49c.3,1.74.74,4.35,2.61,5.61.34,3.11,1.94,6.77,4.32,9.82.09.12.25.16.39.1,5.19-2.2,10.04-6.33,12.96-11.04.08-.12.06-.28-.03-.39h0ZM439.04,78.59c-3.01,1.31-5.99,1.27-9.15,1.22-2.19-.03-4.45-.07-6.74.38-.14.03-.28-.04-.35-.16-.07-.13-.05-.28.05-.38,1.29-1.38,2.63-3.52,4.05-5.79,1.14-1.82,2.31-3.7,3.52-5.26,0,0,.01-.02.02-.02,1.87-2.03,3.86-4.47,3.71-7.67,0-.16.09-.29.24-.33.15-.04.31.03.37.17.53,1.05.64,2.16.74,3.15.15,1.47.28,2.73,1.66,3.52.08.05.14.13.16.22.02.1,0,.19-.07.27l-.53.67c.3,1.22.66,2.43,1.01,3.61.59,1.97,1.2,4.01,1.49,6.08.02.15-.06.29-.19.35h0Z"/>
  <path class="cls-1" d="M462.72,91.84c-.1-.11-.25-.14-.38-.08-.77.34-1.39.97-2,1.57-.57.58-1.12,1.11-1.75,1.41-2.53.22-3.85-2.23-5.12-4.59-.17-.32-.33-.61-.5-.91-.83-3.01-2.33-5.98-3.66-8.59l-.59-1.18c-.18-2.63-1.01-5.64-2.24-8.1-.33-.9-.59-1.84-.85-2.74-.45-1.62-.92-3.29-1.82-4.82-.13-1.66-.39-3.22-.65-4.73-.38-2.25-.77-4.56-.77-7.35,0-1.28,1.2-2.62,2.1-3.55.14-.11.27-.23.37-.38.09-.14.07-.33-.06-.44-.13-.11-.32-.1-.44.02-.09.09-.19.19-.3.3-.24.16-.55.27-.84.36l-.16.05c-.06.02-.11.05-.15.1-.83.98-1.93,1.98-3.09,3.03-2.2,2.01-4.67,4.24-5.77,6.88-.2-.43-.48-.8-.76-1.16-.53-.69-1.03-1.34-.88-2.48.02-.12-.04-.25-.14-.31-.13-.09-.27-.25-.41-.41-.29-.34-.64-.75-1.2-.75-.12,0-.23.07-.29.17-.06.11-.05.24.02.34,2.05,3,.58,7.69-.49,10.25-1.72,2.18-3.18,4.74-4.61,7.23-3.08,5.39-6.27,10.97-12.32,13.52-.13.05-.21.19-.2.33.01.14.12.26.26.29.93.19,1.62-.06,2.12-.76.22.03.45.03.67.03.42,0,.79,0,1.09.16-.42.58-.89,1.11-1.35,1.62-.84.94-1.64,1.84-1.91,2.83-3.25-3.25-7.18-5.72-11.68-7.34.04-.05.05-.12.05-.18,0-.09-.03-.17-.1-.23-1.06-1.06-2.59-1.7-4.07-2.31-1.74-.73-3.38-1.41-4.27-2.7-.03-.04-.07-.08-.12-.11l-1.15-.59c-2.84-1.47-5.3-2.74-7.77-5.34-2.95-3.62-1.87-7.91-.83-12.05.14-.55.28-1.12.41-1.68,4.47-6.29,9.16-6.77,15.62-7.4l.38.16c1.8.74,3.66,1.5,4.77,3.17.06.08.14.13.24.14.1.01.19-.02.26-.09l.9-.9.29.24-.88,1.01c-.07.08-.1.18-.07.28.89,4.03,1.27,8.58,1.1,13.53,0,.09.03.17.09.24.06.06.15.1.23.1h1.9c.09,0,.18-.04.24-.11.06-.07.09-.16.08-.26-.52-4.74-.49-9.41-.45-13.93.02-2.29.03-4.45-.02-6.61,0-.07-.03-.14-.07-.19l-1.11-1.42c-.06-.08-.16-.13-.26-.13-8.05,0-14.44.89-19.43,5.23-2.56.24-4.2,2.21-5.78,4.12-1.11,1.35-2.27,2.74-3.73,3.5-.12.06-.19.19-.17.33.02.13.11.25.24.28l1.33.33s-.07.08-.11.12c-.62.7-1.11,1.16-1.78.83-.16-.08-.36-.01-.44.15-1.63,3.25-3.63,8.16-2.24,13.2,1.71,8.02,8.09,11.78,14.26,15.42,2,1.18,4.06,2.4,5.95,3.75.13.09.31.08.42-.04l.16-.16c.14.05.27.1.41.15.46.15.86.29,1.14.74.05.09.14.14.24.16.1,0,.2-.02.27-.09l.24-.24c.58.57,1.29,1.01,2.03,1.47.93.58,1.89,1.17,2.63,2.07.06.07.15.11.24.12.09,0,.18-.03.25-.1l.06-.06c.27.31.58.59.87.87.75.7,1.46,1.36,1.51,2.34-1.89,2.76-4.52,4.95-7.61,6.3-3.1,1.36-6.52,1.84-9.89,1.38-.02,0-.03,0-.04,0-1.14,0-2.26-1.67-2.73-2.38-.08-.12-.23-.18-.37-.13-.14.04-.23.17-.23.31,0,2.69,1.24,4.54,3.69,5.53.03,0,.05.01.08.02,7.12.87,12.46-3.93,17.18-8.16l1.38-1.22c1.09.96,1.52,2.19,1.96,3.49.31.91.63,1.85,1.2,2.69.94,4.16.48,8.18-1.37,11.95-1.63,3.35-4.28,6.29-7.66,8.52-2.66,1.18-5.26,1.86-7.78,2.53-1.5.4-2.91.77-4.32,1.23-8.6,1.29-16.8-3.41-21.21-7.82-.12-.12-.31-.13-.44-.02l-.59.47-.35-.28c.9-1.47-.07-2.93-.94-4.23-.43-.66-.89-1.33-1.08-1.97-.33-.95-.58-2.12-.81-3.26-.41-2-.8-3.91-1.69-4.98.05-.04.1-.08.13-.08,0,0,0,0,.02,0,.12.06.25.04.35-.04.1-.08.14-.21.11-.34-.36-1.3-.02-2.56.31-3.78.33-1.23.64-2.39.11-3.36l.2-.2c1.29-1.28,3.22-3.19,4.16-5.16,1.14.25,2.16-.13,3.24-.52.86-.32,1.75-.65,2.75-.65.18,0,.33-.15.33-.33v-2.21c0-.17-.13-.31-.29-.33-6.67-.68-10.55,4.86-13.67,9.32-.63.89-1.22,1.74-1.81,2.51-.04.05-.06.11-.07.17-.04.59-.29,1.22-.55,1.88-.55,1.41-1.17,2.99.31,4.28-.07-.02-.15-.06-.27-.12-.24-.12-.54-.27-.85-.16-.1.03-.18.12-.21.22-1.09,3.81-.02,7.35,1.02,10.78.19.62.39,1.27.56,1.9,0,.02.01.03.02.04,1.81,3.94,5.2,7.55,9.54,10.15,4.42,2.65,9.34,3.95,13.86,3.65,1.52.07,2.84-.31,4.01-.64,1.41-.4,2.63-.75,3.75-.19.08.04.17.05.25.02.08-.03.15-.09.19-.16.27-.54.69-.53,1.48-.48.19.01.39.03.6.03.05,0,.1-.01.14-.03l.98-.5c1.9-.97,4.5-2.3,6.88-2.97.03,0,.06-.02.09-.03.45-.28.84-.74,1.21-1.17.82-.96,1.36-1.52,2.26-1.03.11.06.25.05.35-.03,9.2-6.85,14.22-15.91,14.53-26.2,0-.16-.11-.3-.27-.33l-1.54-.25c.13-.26.38-.37.77-.53.31-.13.66-.27.94-.56.07-.08.11-.19.09-.29-.13-.69-.2-1.43-.27-2.15-.19-1.92-.38-3.92-1.69-5.59,0,0-.02-.02-.03-.03-2.33-2.33-.68-4.06,1.23-6.07.87-.91,1.77-1.86,2.24-2.87l1.76-.08c5.71-.24,12.18-.52,16.79-4.34,1.72.08,2.31,2.16,2.94,4.34.3,1.06.61,2.14,1.07,3.02l.08.49c.3,1.74.74,4.35,2.61,5.61.34,3.11,1.94,6.77,4.32,9.82.09.12.25.16.39.1,5.19-2.2,10.04-6.33,12.96-11.04.08-.12.06-.28-.03-.39h0ZM439.04,78.59c-3.01,1.31-5.99,1.27-9.15,1.22-2.19-.03-4.45-.07-6.74.38-.14.03-.28-.04-.35-.16-.07-.13-.05-.28.05-.38,1.29-1.38,2.63-3.52,4.05-5.79,1.14-1.82,2.31-3.7,3.52-5.26,0,0,.01-.02.02-.02,1.87-2.03,3.86-4.47,3.71-7.67,0-.16.09-.29.24-.33.15-.04.31.03.37.17.53,1.05.64,2.16.74,3.15.15,1.47.28,2.73,1.66,3.52.08.05.14.13.16.22.02.1,0,.19-.07.27l-.53.67c.3,1.22.66,2.43,1.01,3.61.59,1.97,1.2,4.01,1.49,6.08.02.15-.06.29-.19.35h0Z"/>
  <path class="cls-1" d="M685.89,45.78c-.1-.09-.24-.11-.36-.05-4.61,2.14-10.25,1.63-15.72,1.14-2.47-.22-4.8-.43-6.93-.38-.1,0-.19.05-.25.13-.06.08-.08.18-.06.27.3,1.32.77,2.75,2.66,2.94.02,0,.04,0,.05,0l10.92-.79s.03,0,.04,0c.29-.06.55-.2.78-.32.2-.11.43-.23.52-.2.01,0,.05.03.1.09-.11.08-.21.17-.31.25-.38.33-.6.49-1.05.34-.05-.02-.11-.02-.16-.01-7.86,1.46-7.65,6.65-7.42,12.14.1,2.48.2,5.05-.43,7.4-.03.09-.01.18.04.26l.66,1.06c-.07.07-.14.09-.28.04-.11-.03-.22-.01-.31.06-.09.07-.13.18-.12.29.52,3.97.49,8.34.46,12.97-.01,2.31-.03,4.69.02,7.09,0,.1.05.2.13.26.09.06.19.08.29.05l.56-.16c-.38,2.22,1.33,4.12,2.87,5.47-.76.3-1.77.3-2.83.3-2.07,0-4.43,0-5.58,2.31-.05.11-.04.24.03.34.07.1.19.15.31.13l10.3-1.54c.22.84.66,1.54,1.1,2.22.43.67.84,1.31,1.05,2.09.05.17.22.27.4.23.17-.04.28-.21.24-.39-.25-1.12-.76-3.43.27-4.49l6.65.77c.12.01.24-.04.31-.14.06-.1.07-.24.01-.34-.81-1.44-2.45-1.39-4.03-1.35-1.45.04-2.81.07-3.52-.96.14-4.72.05-9.05-.04-13.25-.11-4.89-.21-9.52.04-14.62.07-.47-.26-.83-.51-1.1-.1-.1-.25-.27-.27-.34,0-.02.07-.09.28-.2.11-.05.18-.16.18-.27.03-.58.11-1.24.2-1.93.25-2.04.51-4.15-.37-5.27-.2-.25-.45-.45-.74-.57.04-.04.07-.07.11-.11.33-.33.52-.51.8-.51.09,0,.18-.04.24-.1.06-.07.09-.16.08-.25-.11-1.49.2-2.89.5-4.25.1-.47.2-.92.29-1.37.56-2.35,2.51-2.7,4.38-3.04,1.56-.28,3.04-.55,3.52-1.98.04-.12,0-.26-.09-.35h0Z"/>
  <path class="cls-1" d="M531.87,49c-.08-.13-.25-.18-.39-.12-9.02,3.58-19.41,3.14-29.46,2.71l-5.26-.2-1.24-.97c-.05-.34.2-.61.6-1,.4-.39.85-.85.85-1.5,0-.12-.07-.24-.18-.29-.11-.06-.24-.04-.34.02-1.05.76-2.16,1.44-3.24,2.11-3.04,1.88-5.92,3.66-7.47,6.87-.05.1-.04.22.02.31.06.09.16.15.27.16,5.96.22,11.34-.1,16.54-.42,1.68-.1,3.4-.2,5.15-.29-.31.12-.58.31-.72.65-2.23-.23-4.33,1.91-5.89,3.49l-.43.44c-.06.07-.1.16-.09.25.19,2.6.02,5.12-.14,7.55-.25,3.68-.48,7.15.44,10.75-.43,1.07-.76,2.92-.02,3.89-.69,2.15-.74,4.5-.79,6.78-.07,3.62-.15,7.36-2.82,10.26-.65.23-1.46.3-2.24.36-1.68.13-3.43.27-3.9,2.05-.03.1,0,.21.06.3.07.08.17.12.28.12,1.46-.12,2.89-.27,4.28-.42,5.75-.6,11.18-1.17,17.62.1.09.02.19,0,.27-.07.08-.06.12-.15.12-.25,0-1.13-.91-2.16-1.79-2.52-.04-.01-.08-.02-.12-.02-1.05,0-2.13-.02-3.27-.04-2.84-.05-5.76-.1-8.19.16.5-.26,1.05-.48,1.62-.7,1-.39,2.03-.79,2.91-1.51,5.29-3.12,4.9-9.61,4.56-15.33-.14-2.32-.27-4.51,0-6.24.02-.11-.02-.21-.09-.29l-1.23-1.23.04-.06c.09.02.18.03.26.04.32.04.35.06.39.17.05.15.21.25.37.22.16-.03.27-.17.27-.33l-.32-9.94c.09-.58.15-1.18.22-1.75.3-2.64.57-5.13,2.61-6.98,1.21-.21,2.47-.41,3.69-.59,5.87-.88,11.94-1.79,16.17-6.29.1-.11.12-.29.03-.41h0Z"/>
  <path class="cls-1" d="M678.08,108.02c-.56.01-1.14.02-1.72.02-4.33-.25-7.7-2.81-11.24-5.51l-1.18-.89c-.71-1.31-1.83-2.47-2.92-3.59-.93-.96-1.8-1.87-2.43-2.85,0,0-.01-.01-.01-.02-.2-.27-.42-.68-.65-1.11-.58-1.1-1.25-2.34-2.3-2.62-.1-.03-.2-.04-.3-.05l.22-.22c.11-.11.13-.29.04-.41l-.32-.47s-.02-.04-.04-.05c-.1-.1-.19-.33-.29-.54-.16-.4-.35-.84-.78-1.02-.18-.07-.38-.08-.6-.03l-1.95-3.22c-2.23-3.73-4.54-7.58-7.24-10.91.9-.8,1.9-1.54,2.87-2.26,2.89-2.15,5.89-4.37,6.49-8.32.02-.12-.03-.24-.13-.32-.1-.07-.23-.08-.34-.03-.23.12-.35.06-.75-.41-.01-.02-.03-.04-.05-.06.04-.03.07-.06.11-.1.35-.32.47-.39.69-.28.1.05.21.04.31,0,.09-.05.16-.15.16-.25l.48-5.06c.01-.13-.06-.26-.18-.32-.6-.3-.63-.81-.62-1.62,0-.1,0-.2,0-.3,0-.07-.02-.13-.05-.18-.62-.93-1-1-1.54-1-.16,0-.32,0-.51-.05.31-.39.44-.84.35-1.32-.13-.72-.73-1.35-1.49-1.56-.02,0-.04,0-.05,0-.54-.06-1.14-.55-1.71-1.03-.69-.57-1.33-1.1-2-1.01-.23.03-.44.13-.62.31h0s0-.01,0-.02c.05-.09.05-.19,0-.28-.04-.09-.12-.16-.22-.18-4.91-1.3-9.84-.88-14.61-.46-5.14.45-10.45.91-15.74-.8-.09-.03-.18-.02-.26.02-.08.04-.14.11-.16.2-.32,1.11.2,1.94.65,2.66.06.1.12.19.18.29.05.09.16.15.27.16,1.98.08,4.25-.05,6.63-.19,7.34-.43,15.67-.91,20.34,4.35,1.5,1.5,1.66,3.76,1.81,5.95.11,1.53.21,2.98.79,4.03-.32,3.81-2.96,7.47-6.6,9.12,0,0-.02.01-.03.01-.82.47-2.06.41-3.25.35-1.81-.09-3.85-.19-4.49,1.73-.04.12,0,.24.08.33.09.09.21.12.33.08,4.7-1.47,6.22,1.46,7.98,4.85,1.07,2.06,2.17,4.19,4.1,5.31.09,2.99,2.15,5.74,3.98,8.17.34.46.67.89.98,1.32.05.07.14.12.24.13.09.01.19-.03.26-.09l.57-.57c.11.16.14.36.14.63-.05.03-.1.07-.14.11-.05.04-.12.1-.16.11,0,0,0,0-.02,0-.12-.07-.28-.04-.38.06-.1.1-.12.26-.05.38,2.72,5.09,7.05,8.4,13.23,10.13,4.67,1.3,9.62,1.48,14.09,1.46.58.03,1.17.03,1.79-.02.17-.01.31-.17.3-.34,0-.18-.16-.31-.33-.31h0Z"/>
  <path class="cls-1" d="M495.45,93.72c-.11-.11-.28-.13-.41-.05-3.45,2.11-6.82,3.35-10.03,3.69-3.59.39-6.99-.36-10.1-2.21-2.18-5.29-2.01-11.16-1.86-16.85.1-3.52.19-6.85-.29-9.83l.25-2.96c.24-2.88.5-6.14.86-9.17.24-3.56,2.12-3.66,4.5-3.79,2.07-.12,4.42-.25,5.74-2.9.05-.1.05-.22-.01-.32-.06-.1-.17-.16-.28-.16h-.47c-.1,0-.19.04-.25.12-.77.92-2.22,1.06-3.62,1.2-1.17.11-2.37.23-3.24.81l-.6-.48c-.07-.05-.15-.08-.24-.07l-.8.08c-4.72.46-10.07.98-15.42.24-.09-.01-.19.01-.26.08-.07.06-.11.15-.11.25v1.58c0,.17.14.32.32.33l7.59.32h.04c.7-.05,1.36-.19,1.99-.33,1.2-.25,2.25-.47,3.16.04-.15.04-.35.03-.64-.01-.15-.02-.29-.04-.42-.04-.02,0-.03,0-.05,0-7.02,1.08-6.53,7.32-6.14,12.32.09,1.14.17,2.21.17,3.19,0,.07.02.13.05.18l.26.38c-.25,4.02-.29,8.03-.33,11.91-.08,8.34-.16,16.22-2.19,23.99-.04.14.02.29.15.36.12.07.28.06.39-.04.46-.42.89-.87,1.31-1.31,1.41-1.47,2.63-2.75,4.42-2.41,4.88.81,10.41.57,15.17-.66,3.74-.96,8.75-2.98,11.42-7.08.08-.13.07-.3-.04-.41h0Z"/>
  <path class="cls-1" d="M613.55,62.02c.43-4.23-1.53-7.89-5.83-10.88-.03-.02-.06-.03-.09-.04-5.79-1.81-12.29-1.62-18.58-1.43-4.89.14-9.51.27-13.73-.48-.1-.02-.21.02-.29.09-.08.07-.11.18-.09.29.04.24.02.52,0,.81-.05.76-.12,1.7,1,2.13.03.01.05.02.08.02,3.04.31,5.88-.12,8.62-.54,4.26-.65,8.3-1.26,12.46,1.03l-.04.02c-.11.07-.16.21-.14.34.03.13.13.23.26.25,3.38.59,4.93,3.96,6.23,7.37.95,4.18,1.83,11.85-2.92,16.44,0,0-.01.02-.02.02-1.38,1.63-3.64,1.67-5.84,1.7-1.66.03-3.23.05-4.37.76-.1.06-.16.18-.15.3,0,.12.09.23.2.28,3.69,1.52,7.41-.22,10.7-1.76.98-.46,1.91-.89,2.83-1.24.86-.31,1.67-.95,2.45-1.56.84-.66,1.64-1.28,2.4-1.43.11-.02.21-.11.24-.22.09-.27.28-.53.49-.8.41-.53.9-1.19.69-2.16,2.35-1.62,3.42-5.9,3.43-9.3h0Z"/>
  <path class="cls-1" d="M633.95,100.37c-.86-3.65-4.11-3.15-7.25-2.67-1.5.23-3.04.47-4.29.24l6.5-4.19c.06-.04.11-.1.13-.17,1.13-3.31.84-6.59.55-9.76-.2-2.18-.38-4.25-.06-6.11.02-.1-.02-.21-.09-.29l-.56-.56.56-.56c.06-.06.09-.14.09-.23l-.04-3.43c-.06-3.82-.13-8.15.35-11.37.44-1.35.39-2.74.33-4.08-.08-2.03-.15-3.94,1.47-5.57.1-.1.13-.26.05-.39-.07-.13-.21-.19-.36-.16-.74.17-1.34.59-1.92,1-.6.42-1.17.82-1.83.9-.01,0-.02,0-.03,0-6.9,1.5-6.82,8.73-6.76,14.01v1.49c.01.12.08.24.19.29l1.38.69c-.05.2-.21.26-.55.37-.35.11-.79.25-.99.74,0,.02-.01.04-.02.05-.27,1.27.04,2.64.3,3.73.19.8.36,1.56.2,1.88-.07.15-.03.32.1.41.13.1.31.08.42-.03l.12-.13.04.03c-1.2,3.38-1.16,6.88-1.11,10.26.04,2.95.08,6-.7,8.94-1.2,2.36-3.85,2.84-6.17,3.26-.59.11-1.15.21-1.67.34-.06.01-.11.04-.15.08-.07.07-.16.14-.24.21-.33.26-.82.65-.63,1.23.05.16.22.25.39.21,6.17-1.51,13.32-1.61,21.86-.31.11.01.21-.02.29-.1.07-.08.1-.19.08-.3h0Z"/>
  <path class="cls-1" d="M594.5,100.56c-2.41-3.14-6.38-2.68-9.88-2.28-.47.06-.94.11-1.39.15.6-.38,1.38-.65,2.19-.92,2.08-.7,4.44-1.5,3.76-4.71-.89-8.47-1.27-18.07-1.1-27.77.14-1.1.22-2.13.29-3.12.25-3.37.48-6.27,3.11-9.51.1-.12.1-.29,0-.41-.09-.12-.26-.16-.39-.09-2.42,1.13-4.65,2.25-6.81,3.32-5.56,2.66-4.92,7.85-4.31,12.87.25,2.05.51,4.17.33,6.06-.02.16.08.3.24.35l.61.17-.77.88c-.06.07-.09.16-.08.25,0,.09.06.17.13.23.07.05.09.07,0,.36-.06.21-.16.49.01.75.11.16.28.25.45.31-.51,3.23-.42,5.99-.34,8.67.11,3.61.2,7.02-1,11.47l-.5.5c-.92.94-1.95,2-2.82,2.37-.15.07-.23.24-.18.4.05.16.21.26.38.23,5.47-1.1,12.27-1.1,17.74,0,.14.03.27-.03.34-.15.07-.12.07-.27-.02-.37h0Z"/>
  <path class="cls-1" d="M443.33,61.52h-.63c-.18,0-.33.15-.33.33v.63c0,.18.15.33.33.33h.63c.18,0,.32-.15.32-.33v-.63c0-.18-.15-.33-.32-.33h0Z"/>
  <path class="cls-1" d="M442.54,62.62h-.47c-.18,0-.33.15-.33.33v.63c0,.18.15.33.33.33h.47c.18,0,.33-.15.33-.33v-.63c0-.18-.15-.33-.33-.33h0Z"/>
  <path class="cls-1" d="M444.12,63.42h-.63c-.18,0-.33.14-.33.32v.63c0,.18.15.33.33.33h.63c.18,0,.33-.15.33-.33v-.63c0-.18-.15-.32-.33-.32h0Z"/>
  <path class="cls-1" d="M368.66,71.29c.08-1.2.17-2.55-.89-3.38-.1-.08-.23-.09-.34-.04-.11.06-.18.17-.18.3v4.4c-.8,4.24-3.96,8.36-7.7,10.01-2.39.79-5.24.36-6.94-1.04-1.88-1.89-2.65-5.19-1.84-7.91,3.96-1.89,6.2-4.06,6.84-6.64.04-.15-.03-.3-.17-.37-.11-.06-.18-.31-.23-.53-.09-.35-.19-.74-.54-.93-.24-.13-.54-.12-.91.02,0,0-.02,0-.02,0-4.68,2.19-7.92,7.08-8.26,12.46-.16,3.25,1.41,6.05,4.43,7.89.04.02.08.04.12.04,4.39.71,7.54-1.53,10.58-3.69.45-.32.91-.64,1.36-.95.04-.02.07-.06.09-.1.49-.78,1.06-1.56,1.6-2.3,1.21-1.65,2.47-3.36,3.02-5.37.02-.05.02-.1,0-.15-.1-.51-.06-1.09-.02-1.72h0Z"/>
  <path class="cls-1" d="M441.12,64.52h-.63c-.18,0-.33.15-.33.33v.63c0,.18.15.33.33.33h.63c.18,0,.33-.15.33-.33v-.63c0-.18-.15-.33-.33-.33h0Z"/>
  <path class="cls-1" d="M354.57,67.24c-.07-.15-.24-.23-.39-.18-2.23.69-3.72,2.89-3.55,5.24,0,.1.06.19.14.25.08.06.18.07.28.04l1.11-.32s.03-.01.04-.02c1.87-.85,3.27-3.07,2.38-5.02h0Z"/>
  <path class="cls-1" d="M627.78,66.42h-.48c-.18,0-.33.15-.33.33v.63c0,.18.14.33.33.33h.48c.18,0,.33-.15.33-.33v-.63c0-.18-.14-.33-.33-.33h0Z"/>
  <path class="cls-1" d="M670.35,68.53l-.48-.32c-.1-.06-.23-.07-.33-.01-.11.05-.17.17-.17.29v.79c0,.13.08.25.2.3.12.05.26.02.36-.07l.48-.48c.07-.07.1-.16.09-.26,0-.1-.06-.18-.14-.24h0Z"/>
  <path class="cls-1" d="M472.12,68h-.48c-.18,0-.33.15-.33.33v.47c0,.18.15.33.33.33h.48c.18,0,.33-.15.33-.33v-.47c0-.18-.15-.33-.33-.33h0Z"/>
  <path class="cls-1" d="M581.59,68.79h-.63c-.18,0-.33.15-.33.33v.48c0,.18.15.33.33.33h.63c.18,0,.33-.15.33-.33v-.48c0-.18-.15-.33-.33-.33h0Z"/>
  <path class="cls-1" d="M383.38,69.9h-.63c-.18,0-.33.15-.33.33v.48c0,.18.15.33.33.33h.63c.18,0,.33-.15.33-.33v-.48c0-.18-.15-.33-.33-.33h0Z"/>
  <path class="cls-1" d="M628.14,73.13c-.14-.11-.34-.09-.46.05l-.63.79c-.12.14-.09.35.05.46.14.11.34.09.46-.05l.63-.79c.12-.14.09-.35-.05-.46h0Z"/>
  <path class="cls-1" d="M386.53,74.06c-.05-.12-.17-.2-.3-.2h-1.11c-.11,0-.21.05-.27.14-.06.09-.08.2-.03.31l.31.79c.04.1.13.18.24.2.11.02.22-.01.3-.09l.79-.79c.09-.09.12-.24.07-.36h0Z"/>
  <path class="cls-1" d="M583.49,74.49h-.63c-.18,0-.33.15-.33.33v.48c0,.18.15.33.33.33h.63c.18,0,.33-.15.33-.33v-.48c0-.18-.15-.33-.33-.33h0Z"/>
  <path class="cls-1" d="M445.39,75.44h-.32c-.18,0-.33.15-.33.33v.63c0,.18.15.33.33.33h.32c.18,0,.33-.15.33-.33v-.63c0-.18-.15-.33-.33-.33h0Z"/>
  <path class="cls-1" d="M466.43,75.12h-.47c-.18,0-.33.15-.33.33v.63c0,.18.15.33.33.33h.47c.18,0,.33-.15.33-.33v-.63c0-.18-.15-.33-.33-.33h0Z"/>
  <path class="cls-1" d="M393.19,79.71h-.47c-.18,0-.33.15-.33.33v.63c0,.18.15.33.33.33h.47c.18,0,.33-.14.33-.33v-.63c0-.18-.15-.33-.33-.33h0Z"/>
  <path class="cls-1" d="M698.01,79.71h-.47c-.18,0-.33.15-.33.33v.63c0,.18.15.33.33.33h.47c.18,0,.33-.14.33-.33v-.63c0-.18-.14-.33-.33-.33h0Z"/>
  <path class="cls-1" d="M511.74,178.57h-.48c-.18,0-.33.15-.33.33v.17c-8.48,7.43-20.11,5.18-28.31.51l.12-.18c.05-.07.06-.15.05-.24-.13-.81-.82-1.09-1.36-1.3-.22-.08-.42-.17-.59-.28-.38-1.05-1.02-1.78-1.59-2.43-.73-.83-1.36-1.54-1.36-2.74,0-.13-.08-.25-.2-.31-.12-.05-.26-.02-.36.07l-.22.21-.32-.4c.11-1.17-.31-2.36-.7-3.52-.47-1.35-.94-2.74-.64-4.14,2.45-.2,5.14-.27,7.98-.34,5.77-.14,11.74-.29,16.99-1.55,1.76-.35,3.37-1.23,4.93-2.08,1.3-.71,2.52-1.37,3.78-1.72.17-.05.28-.23.23-.4-.05-.17-.23-.28-.4-.23h0s0,0,0,0h0c-5.62,1.52-10.94,1.9-17.28,1.26-.08,0-.17.02-.24.07l-.68.54c-2.06-.37-4.71-.34-7.51-.3-2.73.04-5.56.07-8-.27.25-1.54.57-2.87.85-4.05.27-1.12.53-2.17.67-3.22.27-1.86,1.36-4.15,3.26-6.8,4.39-5.14,11.68-7.15,18.59-5.12,3.38,2.2,3.34,6.1,3.3,9.55v1.07c-.01.09.02.17.09.23.06.06.14.09.23.09h.79c.18,0,.33-.15.33-.33v-12.02c0-.07-.02-.14-.07-.2-1.9-2.46-4.96-2.24-7.91-2.03-1.42.1-2.88.21-4.16,0-.05-.01-.1,0-.15,0-5.72,1.81-12.18,4.36-16.76,9.59-.11.13-.11.32.01.44-4.7,2.44-6.03,7.13-7.3,11.67l-.23.79c-.33-.3-.47-.49-.32-.86.06-.14,0-.3-.12-.39-.13-.09-.3-.07-.41.03-.94.88-2.04,1.55-3.1,2.19-1.56.94-3.16,1.92-4.23,3.57-.06.1-.07.23-.01.33.06.1.17.17.29.17h7.29s.45,5.71.45,5.71c0,.04.01.08.03.12.31.62.5,1.44.7,2.31.37,1.59.79,3.37,2.07,4.5l-.47.38c-.13.1-.16.28-.08.42.24.41.53.78.82,1.13.47.58.91,1.14,1.03,1.82-.59,1.29-1.72,1.87-2.91,2.48-.62.31-1.25.64-1.81,1.07-7.77,2.78-16.96,1.09-25-.76,0-.02,0-.03,0-.05-.03-.42,0-.45.11-.49.15-.05.25-.21.22-.37-.03-.16-.17-.28-.34-.27-1.45.07-2.62-.96-3.76-1.96-1.11-.97-2.26-1.98-3.67-1.96l.11-.14c.09-.11.1-.26.02-.38l-.4-.63c-1.35-2.11-3.03-4.73-4.05-5.9-.06-.07-.15-.11-.24-.11-.11,0-.21,0-.31.01-.22.02-.37.02-.48-.02l.54-.54c.12-.12.13-.31.02-.44-.57-.7-.87-1.72-1.17-2.71-.4-1.33-.77-2.59-1.78-3.01.02-.12.13-.2.37-.37.12-.08.24-.16.35-.27.06-.06.1-.14.1-.23s-.04-.17-.1-.23c-.33-.33-.31-.86-.29-1.42.03-.68.05-1.49-.64-1.98.65-1.71.47-3.75.29-5.73-.13-1.41-.25-2.75-.06-3.88,0,0,0-.01,0-.02.95-9.8,8.34-18.92,17.97-22.19,0,0,.02,0,.02,0,.83-.36,1.83-.35,2.88-.35,1.56,0,3.16.02,4.37-1.18,1.22.23,2.44.42,3.63.6,1.24.19,2.52.39,3.77.63,6.81,1.85,7.44,9,8,15.32l.14,1.48c.01.13.1.24.22.28.51.17.81-.2,1.03-.47.11-.13.23-.28.36-.36.1-.07.15-.18.15-.3-.27-3.38-.18-6.8-.08-10.42.07-2.53.14-5.15.08-7.75,0-.12-.07-.24-.19-.29-3.57-1.64-8.13-1.63-12.16-1.61h-.95s-.03,0-.04,0c-9.27,1.12-17.21,3.84-23.57,8.08-7.26,4.84-12.19,11.51-14.67,19.83-.02.08-.02.17.02.24.28.55-.02,1.25-.33,1.99-.41.97-.91,2.16.28,2.94-.46,4.22-.45,7.63.02,11.73.01.11.07.2.17.25.51.28.65.84.79,1.42.12.5.27,1.07.71,1.39-.09.1-.12.23-.06.36,2.91,6.51,6.46,12.87,12.68,15.36.04.01.08.02.12.02.77,0,1.17.54,1.64,1.17.34.47.7.94,1.23,1.17,4.72,2,10.94,1.97,15.94,1.93h1.75s.05-.01.07-.02l1.58-.32c6.47-1.31,14.51-2.94,18.15-9.92.15.01.31-.01.46-.03.41-.05.55-.04.64.12.05.17,0,.22-.14.34-.03.03-.07.06-.1.09-.12.12-.13.3-.03.43,2.75,3.67,6.86,6.23,11.89,7.4,4.6,1.28,9.73.99,14.82-.86,4.7-1.7,9.14-4.61,12.86-8.41.06-.06.09-.14.09-.23v-1.11c0-.18-.15-.33-.33-.33h0Z"/>
  <path class="cls-1" d="M688.83,172.65c-.06-.07-.15-.1-.24-.1h-.79c-.13,0-.25.08-.3.2-1.63,3.85-5.61,5.14-9.56,6.13-6.98.67-14.21.38-19.78-6.21-.05-.06-.13-.1-.21-.11-.89-.11-1.43-.82-1.61-2.09,0-.06-.04-.12-.08-.17-.26-.31-.48-.6-.68-.9-.48-.69-.93-1.35-1.91-1.46l.2-.2c.06-.06.1-.15.1-.24,0-.09-.05-.18-.12-.24-2.03-1.74-1.94-5.34-1.39-7.35,2.72-.21,5.58-.28,8.61-.34,9.84-.21,20.01-.42,27.4-5.88.13-.1.17-.27.09-.41-.07-.14-.24-.21-.39-.16l-3.12,1.09c-1.4.09-2.85.2-4.39.33-4.23.34-8.59.69-12.61.46-.08,0-.15.02-.22.07-.48.36-1.25.34-2,.32-.86-.02-1.82-.05-2.34.59-.04-.05-.05-.1-.05-.17,0-.18-.14-.32-.31-.33l-11.48-.47c-1.07-3.5.56-6.29,2.28-9.24.67-1.14,1.36-2.33,1.86-3.54,5.01-4.86,9.5-8.4,17.51-6.37,4.32,1.45,4.83,5.6,5.33,9.63.13,1.04.26,2.11.46,3.1.03.15.17.26.32.26h.47c.18,0,.33-.14.33-.32l.32-14.87c0-.08-.03-.16-.09-.22-1.33-1.44-3.28-1.31-5.17-1.19-.99.07-2.01.14-2.93-.02-.04,0-.07,0-.11,0-11.98,2-25.7,9.17-28.39,23.33-.06.01-.12.01-.16,0-.13-.06-.23-.33-.31-.56-.12-.32-.24-.66-.56-.77-.1-.03-.21-.01-.3.05-.5.37-1.07.76-1.67,1.19-2.27,1.59-4.85,3.4-6,5.06-.08.11-.08.26,0,.37.07.11.21.17.34.14,1.26-.28,2.62-.37,3.94-.46,1.46-.1,2.85-.19,3.97-.54.18.93.33,1.93.5,2.97.95,6.11,2.13,13.72,8.73,18.05.67.66,1.46,1.05,2.23,1.44.72.36,1.41.7,1.84,1.21.03.03.06.06.11.08,4.04,1.91,8.87,2.43,13.96,1.51,4.73-.86,9.34-2.92,12.96-5.82.41-.35.85-.68,1.32-1.04,1.9-1.45,4.05-3.09,4.18-5.52,0-.09-.03-.18-.09-.24h0Z"/>
  <path class="cls-1" d="M559.51,133.25c-.04-.16-.21-.27-.38-.23-11.85,2.28-11.07,13.99-10.38,24.32.22,3.27.43,6.37.22,8.99-1.36-1.64-3.15-2.69-4.88-3.7-.98-.58-2-1.17-2.9-1.86-.03-.02-.06-.04-.09-.05-.62-.23-1.29-.67-2.01-1.14-1.19-.79-2.43-1.61-3.68-1.57-2.87-2.6-6.06-4.39-9.14-6.13-4.84-2.73-9.42-5.3-12.82-10.75-.44-1.81-.44-3.04.01-5.02.03-.14-.03-.28-.15-.36-.12-.07-.28-.05-.39.04-1.94,1.79-4.03,4.29-5.75,6.86-.01.02-.02.04-.03.06-2.3,5.5,2.14,8.93,5.72,11.68.99.76,1.93,1.49,2.65,2.2.21,2.22.02,4.29-.17,6.3-.2,2.07-.39,4.21-.16,6.53,0,.35-.18.78-.36,1.2-.35.82-.81,1.92.24,2.69-.63,1.05-.86,2.35-1.07,3.5-.11.62-.22,1.21-.37,1.67,0,.03-.01.06-.02.09-.26,5.82-1.4,13.95-8.2,17.44-.14.07-.2.22-.17.37.03.15.17.25.32.25h1.26c.1,0,.19-.04.25-.12,1.17-1.38,2.23-2.51,3.26-3.6,2.72-2.87,4.86-5.13,6.6-9.78.02-.05.03-.11.02-.16-.11-.79.2-1.52.54-2.29.49-1.13,1.04-2.41-.16-3.74,1.39-3.06,1.28-7.01,1.16-10.83-.08-2.75-.16-5.36.28-7.63.85.38,1.45.92,2.13,1.54.47.42.95.86,1.55,1.28.11.08.26.08.37,0l.31-.2c.46.26.94.51,1.41.75,1.14.57,2.31,1.17,3.25,2.1.09.09.22.12.34.08.94-.31,1.55.34,2.2,1.03.51.54.99,1.05,1.64,1.06.27,0,.53-.08.79-.25.64,1.71,2.45,2.32,3.92,2.82.24.08.46.16.68.23,5.92,4.52,14.81,11.34,12.03,20.96,0,0,0,.02,0,.02-.04.17.06.35.23.4.17.05.35-.05.4-.22h0s0,0,0,0c.34-1.3.77-2.53,1.19-3.72.75-2.13,1.52-4.32,1.83-7.09.01-.1-.02-.2-.1-.26-.03-.03-.08-.07-.14-.12-.48-.37-.53-.53-.53-.59,0-.02.06-.09.25-.18.12-.05.2-.17.2-.3,0-.73.11-1.52.22-2.37.33-2.5.7-5.33-1.81-7-.31-3.52.07-7.56.48-11.82.35-3.65.71-7.42.64-11.06.79-3.57,2.27-10.15,7.06-11.91.16-.06.25-.23.2-.39h0Z"/>
  <path class="cls-1" d="M605.33,134.24c-.1-.13-.28-.17-.42-.09-2.96,1.63-7.54,1.78-11.58,1.92-2.13.07-4.13.14-5.71.41-.05,0-.09.03-.13.05l-.37.25c-.35-.05-.75-.16-1.19-.28-1.38-.38-3.09-.85-4.59.02-.11.06-.17.19-.16.32,0,.05.02.1.05.14-.07.07-.21.16-.39.22-.16.05-.39.08-.6-.04,0,0-.01-.01-.02-.02-.28-.14-.3-.21-.3-.34,0-.18-.14-.32-.32-.33l-15.09-.47-.7-.5,2.08-1.94c.12-.11.14-.3.04-.43-.09-.13-.27-.18-.42-.1-4.04,2.12-6.89,4.46-8.97,7.38-.07.09-.08.22-.03.33.05.11.15.18.27.19,5.15.4,9.79.36,14.28.31,1.98-.02,4.01-.04,6.08-.02-6.23,2.72-5.98,8.76-5.73,14.63.09,2.12.18,4.3-.06,6.23-.01.1.02.2.09.27l.68.68c-.04.33-.1.68-.16,1.04-.34,2.2-.76,4.91.84,6.89-.11.05-.26.05-.5.03-.1,0-.2-.01-.31-.01-.09,0-.18.04-.24.1-.06.07-.1.16-.09.25.29,3.6-.07,7.18-1.09,10.94-.95,2.29-3.01,2.99-5.01,3.68-1.8.62-3.67,1.26-4.47,3.1-.05.12-.03.26.07.36.09.09.23.12.36.07,7.1-2.99,15.8-3.65,24.49-1.88.13.03.27-.03.34-.14.07-.11.07-.26,0-.37-.34-.48-.65-.76-.93-1.02-.37-.34-.67-.6-.92-1.28-.04-.11-.13-.18-.24-.2-3.1-.64-6.17-.29-9.14.06-1.08.13-2.19.26-3.31.34l7.34-4.71c.07-.05.12-.12.14-.2l.05-.21c.78-3.44,1.52-6.69.59-9.71.05-1.98.03-3.93.02-5.99-.04-4.07-.07-8.29.45-12.92,0-.1-.02-.2-.09-.27l-.6-.6c.79-1.28.73-2.85.68-4.36-.04-1.24-.08-2.4.31-3.38.96-2.19,3.78-2.18,5.84-2.17h.34c4.6.12,13.12-.48,18.42-5.79.12-.12.13-.3.03-.43h0Z"/>
  <path class="cls-1" d="M650.44,185.08c-.39-.17-.94-.27-1.58-.39-1.22-.24-2.73-.53-3.64-1.38-.05-.2-.15-.35-.3-.43-.29-.16-.59-.02-.87.1-.09.04-.25.11-.33.12-.02-.04-.05-.15-.05-.4,0-.14-.09-.27-.22-.31-.24-.08-.49-.05-.71-.02-.23.03-.34.04-.41,0l.18-.28c.09-.14.07-.32-.06-.43-7.11-5.95-14.16-12.59-17.69-20.85l.63-.53c3.17-2.69,6.77-5.75,7.36-9.79,0-.02,0-.03,0-.05,0-.74-.14-1.15-.61-1.58.05-.03.1-.04.13-.02.1.05.22.04.31,0,.1-.05.16-.16.16-.27l.32-5.7c0-.07-.01-.14-.06-.2-.33-.48-.5-1.15-.67-1.81-.32-1.26-.67-2.67-2.26-2.89l.22-.28c.11-.14.09-.34-.04-.45-2.92-2.6-8.45-3.13-12.08-1.15-.02.01-.04.03-.06.05-.77.71-1.75,1.2-2.7,1.68-1.55.78-3.15,1.59-3.87,3.34-.05.13-.02.28.09.38.11.09.26.1.39.02l3.47-2.2c2.3-1.2,4.33.21,6.13,1.45.36.25.7.49,1.04.7,2.39,5.5,2.2,12.23-.5,17.18-1.71,3.29-5.41,5.52-11.01,6.64-.16.03-.28.19-.26.35.02.17.16.29.33.29h3.96c1.53,1.77,2.94,3.53,4.31,5.23,2.17,2.7,4.22,5.24,6.52,7.64,0,0,.01.01.02.01,7.07,6.38,17.19,7.74,24.3,6.89.15-.02.26-.13.29-.28.02-.15-.06-.29-.2-.35h0Z"/>
  <path class="cls-1" d="M614.1,186.75l-.32-1.9c-.03-.16-.16-.27-.32-.27h-11.19c.66-.47,1.36-.91,2.04-1.34,2.43-1.54,4.93-3.13,5.98-5.81.01-.04.02-.08.02-.12v-40.49c0-.1-.04-.19-.12-.25-.07-.06-.17-.09-.27-.07-.31.06-.63.11-.94.16-1.49.24-3.03.49-4.38,1.3-.02.01-.04.03-.05.04-1.41,1.29-3.18,2.18-4.89,3.04-2.6,1.31-5.29,2.67-6.58,5.44-.05.12-.03.25.04.35.08.1.21.14.34.11,1.19-.32,2.06-1.23,2.9-2.12.93-.98,1.81-1.91,3.04-1.99.08,0,.15-.04.21-.1.36-.36.7-.47,1.03-.33.61.26,1.09,1.26,1.1,1.98-.3,1.59-.06,2.89.14,4.03.23,1.3.44,2.43-.12,3.77-.01.04-.03.08-.03.12-.05,3.71.18,7.03.39,10.25.47,6.9.87,12.86-1.47,20.32-.89,1.84-2.79,2.37-4.63,2.89-1.6.45-3.11.87-3.74,2.15-.06.12-.04.26.05.36.09.1.24.14.36.09,7.17-2.73,15.39-2.19,21.03-1.25.1.02.21-.01.29-.09.07-.08.11-.18.09-.28h0Z"/>
  <path class="cls-1" d="M748.25,150.05s-.03-.08-.06-.12c-3.67-4.38-10.3-3.45-16.14-2.62-2.06.29-4.01.56-5.73.6.88-7.68,2.52-13.76,7.44-18.4,1.66-1.21,4.94-3.05,8.38-1.84,1.79.7,1.54,2.55,1.08,4.56-.11.48-.2.86-.2,1.14,0,.17.13.31.3.33.17.01.32-.1.35-.27.22-1.16.77-2.19,1.3-3.17.6-1.12,1.22-2.27,1.39-3.65.01-.1-.02-.19-.08-.26-1.77-1.91-4.76-1.41-6.94-1.04-.33.05-.65.11-.94.15-.03,0-.05.01-.08.02-4.83,2.01-9.19,5.45-12.3,9.68-3.3,4.5-5.02,9.62-4.99,14.82-1.21.84-2.29,1.01-3.44,1.19-.88.14-1.8.28-2.81.73-.18-.86-.24-1.78-.3-2.75-.14-2.23-.29-4.53-2.07-6.2-.04-.04-.08-.07-.13-.08-2.98-.88-5.55,1.5-7.43,3.24-.02.02-.04.05-.06.07-.44.74-.99,1.5-1.57,2.3-1.82,2.54-3.88,5.41-2.73,8.12.05.13.18.2.31.2.14,0,.25-.1.3-.22l.33-1.01c1.13-3.46,2.3-7.04,5.53-9.3.11.08.23.16.34.23.9.6,1.55,1.03,1.55,2.06,0,.07.02.13.06.18.98,1.44,1.34,2.59,1.09,3.53-.37,1.4-2.06,2.23-3.85,3.1-1.56.76-3.18,1.55-4.04,2.81-.08.12-.08.28.01.39.09.12.24.15.38.1.85-.34,1.75-.76,2.62-1.17,1.43-.68,2.9-1.37,4.2-1.72-.21,8.31-1.54,14.74-7.08,19.05-2.14.43-3.8-.74-4.46-2.03-2.13-7.2.19-14.59,2.98-22.15.47-.43.75-1.01,1.02-1.56.36-.76.71-1.48,1.52-1.8.12-.05.2-.17.2-.3v-.63c0-.13-.08-.25-.2-.3-.12-.05-.26-.03-.35.06-6.11,5.71-9.61,11.2-10.7,16.79,0,.02,0,.05,0,.07.05,1.51-.08,3.02-.21,4.48-.25,2.77-.51,5.63.55,8.59,0,.03.02.05.04.07.2.29.38.62.59.96,1.09,1.84,2.44,4.13,5.5,2.97.02,0,.05-.02.07-.04,4.54-3.22,8.15-6.92,10.71-11,2.73-4.36,4.28-9.16,4.61-14.28,1.49-1.7,4.38-2.26,6.59-2.06l-.75,6.44c-.84,2.17-.82,5.92-.8,8.41v.52c-.13,0-.24.08-.29.2-.67,1.63-.83,3.51-.99,5.31-.18,2.11-.37,4.29-1.37,6.04-.02.03-.03.07-.04.1-.8,4.32-2.68,9.11-5.16,13.15-3.71,4-8.8,8.28-15.28,5.9-2.5-1-4.08-3.47-4.69-7.34-.03-.17-.18-.29-.35-.27-.17.01-.3.15-.3.32v6.49c0,.07.02.14.06.19.24.33.46.66.68.98.94,1.39,1.83,2.7,3.6,3.25.01,0,.03,0,.04,0,3.93.7,7.72-.39,11.6-3.34,3.35-2.54,6.33-6.15,8.97-9.33.76-.92,1.49-1.79,2.21-2.63.01-.01.02-.03.03-.05,4.9-8.25,6.1-17.38,7.36-27.05.39-3.01.8-6.12,1.33-9.18l15.91-.31,3.35,2.44c1.1,1.33.62,3.3.23,4.88-.18.72-.33,1.34-.33,1.84,0,.16.11.29.27.32.16.03.31-.06.37-.21.19-.52.4-1.04.6-1.56,1.04-2.6,2.12-5.28,1.3-8.14h0Z"/>
  <path class="cls-1" d="M965.74,165.82c-.05-.11-.17-.18-.3-.18h-1.11c-.11,0-.21.05-.27.14l-.22.33c-1.99,2.92-4.05,5.94-7.77,5.71-1.87-1.44-2.74-3.22-3.65-5.1-.24-.5-.49-1.02-.76-1.52-4.55-10.05-8.2-21.26-10.26-31.56,0-.02-.01-.05-.03-.07-.98-2.1-.7-4.81.78-7.62.08-.15.03-.34-.12-.43-.15-.09-.34-.05-.44.09-.96,1.38-2.34,2.5-3.68,3.58-1.98,1.61-4.02,3.26-4.63,5.75l-.2-.2c-.1-.1-.25-.13-.37-.06-2.83,1.41-4.41,2.21-6.88,4.35-.03.02-.06.05-.09.08-.02.02-.04.03-.06.05h0s-.01,0-.02.01c-.12.12-.13.32,0,.46.12.13.32.14.46.02.05-.04.09-.08.13-.12.25-.18.5-.15.67-.07.31.13.54.43.55.71-.93,5.1-1.89,10.37-4.08,15.07-1.13,2.81-3.68,3.83-6.39,4.9-1.71.68-3.48,1.39-4.91,2.58-.12.1-.15.27-.08.4.07.14.23.2.38.16,1.37-.39,3.17-.34,4.76-.3.67.02,1.31.03,1.88.02-3.82,7.78-9.32,15.45-17.26,24.1-.12.12-.12.31,0,.44.11.13.3.15.43.05l4.27-3.01c5.54-3.62,8.88-9.17,12.11-14.53,1.63-2.7,3.16-5.24,4.96-7.57,4.4-.51,10.03-1.46,15.15-4.27.38,1.03.83,2.09,1.27,3.11.87,2,1.76,4.08,2.06,5.96,0,.06.03.11.07.16,1.39,1.69,1.84,4.2,2.15,5.86.01.07.05.14.11.19.63.53.88,1.21,1.16,2.01.1.28.2.58.33.88.04.08.11.15.2.18.85.28,1.01.94,1.19,1.98.14.75.28,1.59.9,2.21.1.1.26.13.38.06,5.91-3.09,11.53-7.88,17.18-14.63.08-.1.1-.23.05-.35h0ZM938.97,157.26c-3.53,1.22-7.63,1.18-11.59,1.14l-2.12-.02c-.11,0-.21-.05-.27-.15-.06-.09-.07-.2-.03-.3.79-1.95,1.69-3.89,2.56-5.76,2.23-4.83,4.54-9.81,5.33-15.36.02-.16.16-.28.33-.28.16,0,.3.13.32.29.45,4.09,1.85,8.07,3.21,11.91,1,2.84,1.94,5.53,2.48,8.15.03.16-.06.32-.21.37h0Z"/>
  <path class="cls-1" d="M965.74,165.82c-.05-.11-.17-.18-.3-.18h-1.11c-.11,0-.21.05-.27.14l-.22.33c-1.99,2.92-4.05,5.94-7.77,5.71-1.87-1.44-2.74-3.22-3.65-5.1-.24-.5-.49-1.02-.76-1.52-4.55-10.05-8.2-21.26-10.26-31.56,0-.02-.01-.05-.03-.07-.98-2.1-.7-4.81.78-7.62.08-.15.03-.34-.12-.43-.15-.09-.34-.05-.44.09-.96,1.38-2.34,2.5-3.68,3.58-1.98,1.61-4.02,3.26-4.63,5.75l-.2-.2c-.1-.1-.25-.13-.37-.06-2.83,1.41-4.41,2.21-6.88,4.35-.03.02-.06.05-.09.08-.02.02-.04.03-.06.05h0s-.01,0-.02.01c-.12.12-.13.32,0,.46.12.13.32.14.46.02.05-.04.09-.08.13-.12.25-.18.5-.15.67-.07.31.13.54.43.55.71-.93,5.1-1.89,10.37-4.08,15.07-1.13,2.81-3.68,3.83-6.39,4.9-1.71.68-3.48,1.39-4.91,2.58-.12.1-.15.27-.08.4.07.14.23.2.38.16,1.37-.39,3.17-.34,4.76-.3.67.02,1.31.03,1.88.02-3.82,7.78-9.32,15.45-17.26,24.1-.12.12-.12.31,0,.44.11.13.3.15.43.05l4.27-3.01c5.54-3.62,8.88-9.17,12.11-14.53,1.63-2.7,3.16-5.24,4.96-7.57,4.4-.51,10.03-1.46,15.15-4.27.38,1.03.83,2.09,1.27,3.11.87,2,1.76,4.08,2.06,5.96,0,.06.03.11.07.16,1.39,1.69,1.84,4.2,2.15,5.86.01.07.05.14.11.19.63.53.88,1.21,1.16,2.01.1.28.2.58.33.88.04.08.11.15.2.18.85.28,1.01.94,1.19,1.98.14.75.28,1.59.9,2.21.1.1.26.13.38.06,5.91-3.09,11.53-7.88,17.18-14.63.08-.1.1-.23.05-.35h0ZM938.97,157.26c-3.53,1.22-7.63,1.18-11.59,1.14l-2.12-.02c-.11,0-.21-.05-.27-.15-.06-.09-.07-.2-.03-.3.79-1.95,1.69-3.89,2.56-5.76,2.23-4.83,4.54-9.81,5.33-15.36.02-.16.16-.28.33-.28.16,0,.3.13.32.29.45,4.09,1.85,8.07,3.21,11.91,1,2.84,1.94,5.53,2.48,8.15.03.16-.06.32-.21.37h0Z"/>
  <path class="cls-1" d="M812.27,131.42c.07.06.17.08.26.07.09-.01.17-.07.22-.14l.31-.48c.08-.12.07-.29-.03-.4-.66-.73-1.8-1.11-2.91-1.47-1.13-.37-2.31-.75-2.75-1.49-.06-.1-.17-.16-.29-.16-7.5.15-11.35,6.49-14.75,12.09l-.92,1.51h-.14c-.18,0-.33.15-.33.33v1.15c-2.07,2.58-3.24,5.84-4.37,9-.29.81-.59,1.64-.9,2.46-.61-2.69-1.64-5.36-3.29-8.49,0,0-.01-.02-.02-.03l-.38-.59c-4.41-6.78-9.4-14.46-17.64-17.73-.11-.05-.24-.02-.33.06-1.15.99-3.06,1.63-3.69,1.84-.04.01-.08.04-.12.07-.85.8-1.83,1.62-2.85,2.47-2.2,1.83-4.47,3.73-5.89,5.81-.05.08-.07.17-.05.26.04.18.02.37,0,.57-.05.39-.11.92.49,1.23.1.05.21.04.31,0,.87-.5,1.56-1.41,2.21-2.28,1.1-1.46,2.14-2.83,4-2.59,4.73,2.78,9.04,6.34,12.45,10.28,3.76,4.34,6.32,9.07,7.42,13.68,0,.03.02.06.03.09.84,1.46.82,2.55.81,3.71-.02,1.13-.04,2.29.73,3.8-.01.59-.17,1.31-.34,2.07-.39,1.79-.84,3.82.25,5.43l-.94,1.07s-.07.1-.08.16c-.6,3.41-2.18,5.72-4.68,6.86l-.23.03c-2.09.32-4.7.71-5.36,2.87-.04.12,0,.25.09.34.09.08.23.11.34.06,7.18-2.9,16.02-2.41,23.73-1.56.13.01.26-.05.32-.17.06-.12.05-.26-.03-.36-2.48-3-5.94-2.53-9.29-2.08-1.66.22-3.24.44-4.69.25.05-.05.1-.11.15-.15.36-.38.6-.62.99-.5.07.02.14.02.21,0,.5-.2,1.04-.45,1.56-.69,1.15-.53,2.33-1.08,3.26-1.18.07-.01.14-.04.19-.09l2.37-2.21c.07-.06.1-.15.1-.24,0-.08-.03-.17-.09-.23l-.31-.31c1-2.09,1.01-5.36,0-7.45.09-.07.19-.13.24-.1.11.05.24.04.34-.03.1-.07.15-.19.13-.32-1.03-6.55.26-13.5,3.74-20.1,3.19-6.04,7.98-11.31,13.49-14.83.41-.18.83-.39,1.27-.61,1.91-.96,3.88-1.95,5.65-.53h0Z"/>
  <path class="cls-1" d="M900.48,134.43l-.04-3.74c0-.08-.04-.17-.1-.23l-1.11-1.11s-.09-.07-.14-.08c-4.62-1.27-9.75-1.53-14.85-.74-5.23.81-10.03,2.67-13.9,5.37,0,0-.02.01-.02.02-.39.33-.81.67-1.22,1-1.77,1.44-3.6,2.92-4.54,4.76-.02.02-.04.04-.05.06-.13.15-.17.2-.37.13-.14-.05-.3.01-.38.14-.08.13-.06.29.05.4l.22.22s-.05.04-.07.06c-.34.31-.52.45-.9.29-.16-.06-.34.01-.42.16l-.59,1.22c-1.28,2.64-2.48,5.14-2.76,8.06,0,.03,0,.07,0,.11.35,1.45-.02,3.06-.38,4.62-.43,1.89-.88,3.85-.11,5.64-.13,1.71.1,4.31,1.14,6.57.16.32.36.51.6.57.36.1.68-.09.91-.24.01,0,.02-.01.04-.02,0,.03,0,.06,0,.1-.1.17-.24.3-.31.26-.1-.05-.23-.04-.33.02-.1.06-.16.17-.15.29.13,3.25,3.49,6.06,6.18,8.31.73.61,1.42,1.19,1.99,1.72.13.12.33.12.46,0l.13-.13c2.94,1.96,7.48,3.23,11.66,3.23,8.57.19,15.37-2.95,18.16-8.4.07-.13.04-.28-.06-.38-.1-.1-.26-.12-.39-.06-1.28.69-2.61,1.06-4.02,1.46-.78.22-1.59.44-2.39.73-7.86,1.51-16.07-1.58-21.96-8.26-2.24-3.49-2.98-6.76-3.84-10.55-.21-.93-.43-1.89-.68-2.89.26-3.18,1-7.81,3.09-11.95,2.09-4.16,5.08-6.94,8.87-8.28.02,0,.04-.01.05-.03,4.67-2.74,11.84-1.2,15.52.49,4.65,2.17,5.19,7.73,5.19,11.72,0,.18.15.33.33.33h.79c.16,0,.3-.12.32-.28.48-3,.42-6.92.36-10.7h0Z"/>
  <path class="cls-1" d="M852.32,141.14s0-.02-.01-.02c-4.93-8.16-14.98-11.07-22.75-11.07-11.34.31-21.79,6.46-27.95,16.45-.08.13-.06.3.05.4l.13.13c-1.38,2.22-3.47,5.73-2.21,8.7-.02.01-.04.02-.06.04-.05.04-.12.1-.16.11,0,0,0,0-.02,0-.1-.05-.22-.04-.31.01-.09.05-.16.16-.16.27l-.32,7.91s.01.1.03.14c.38.89.67,1.86.97,2.88.77,2.63,1.57,5.34,4.09,6.62-.06.07-.12.06-.22.03-.14-.05-.3,0-.38.13-.08.12-.07.29.03.4.31.35.61.72.89,1.07.97,1.22,1.97,2.47,3.7,2.8.87,2.09,2.89,2.83,4.86,3.53.85.31,1.74.63,2.49,1.05.06.03.13.05.2.04,1.15-.12,2.44.2,3.8.54,1.99.5,4.05,1.01,5.9.16l.63.63c.13.13.33.13.46,0l.71-.71c3.67-.38,9.11-1.45,14.4-4.4,5.04-2.81,8.65-6.6,10.73-11.26,2.28-3.5,3.48-8.06,3.48-13.17,0-4.77-1.07-9.52-3-13.4h0ZM847.64,157.99l-.65.52c.79,5.49-1.12,11.21-5.02,14.96-5.94,5.94-14.06,7.69-21.71,4.66-.01,0-.03,0-.04-.02-9.77-5.5-14.21-16.28-12.19-29.59.85-7.33,7.61-12.58,13.53-14.36,6.11-1.7,12.9.05,16.91,4.33,1.55,1.01,2.58,2.32,3.56,3.59.44.56.89,1.13,1.37,1.67.03.03.05.07.07.11.26.73.63,1.44.98,2.12.69,1.32,1.39,2.69,1.41,4.4.95,1.94,1.24,4.59,1.12,6.43l.69.69c.07.07.1.16.1.25,0,.1-.05.18-.12.24h0Z"/>
  <path class="cls-1" d="M852.32,141.14s0-.02-.01-.02c-4.93-8.16-14.98-11.07-22.75-11.07-11.34.31-21.79,6.46-27.95,16.45-.08.13-.06.3.05.4l.13.13c-1.38,2.22-3.47,5.73-2.21,8.7-.02.01-.04.02-.06.04-.05.04-.12.1-.16.11,0,0,0,0-.02,0-.1-.05-.22-.04-.31.01-.09.05-.16.16-.16.27l-.32,7.91s.01.1.03.14c.38.89.67,1.86.97,2.88.77,2.63,1.57,5.34,4.09,6.62-.06.07-.12.06-.22.03-.14-.05-.3,0-.38.13-.08.12-.07.29.03.4.31.35.61.72.89,1.07.97,1.22,1.97,2.47,3.7,2.8.87,2.09,2.89,2.83,4.86,3.53.85.31,1.74.63,2.49,1.05.06.03.13.05.2.04,1.15-.12,2.44.2,3.8.54,1.99.5,4.05,1.01,5.9.16l.63.63c.13.13.33.13.46,0l.71-.71c3.67-.38,9.11-1.45,14.4-4.4,5.04-2.81,8.65-6.6,10.73-11.26,2.28-3.5,3.48-8.06,3.48-13.17,0-4.77-1.07-9.52-3-13.4h0ZM847.64,157.99l-.65.52c.79,5.49-1.12,11.21-5.02,14.96-5.94,5.94-14.06,7.69-21.71,4.66-.01,0-.03,0-.04-.02-9.77-5.5-14.21-16.28-12.19-29.59.85-7.33,7.61-12.58,13.53-14.36,6.11-1.7,12.9.05,16.91,4.33,1.55,1.01,2.58,2.32,3.56,3.59.44.56.89,1.13,1.37,1.67.03.03.05.07.07.11.26.73.63,1.44.98,2.12.69,1.32,1.39,2.69,1.41,4.4.95,1.94,1.24,4.59,1.12,6.43l.69.69c.07.07.1.16.1.25,0,.1-.05.18-.12.24h0Z"/>
  <path class="cls-1" d="M920.43,149.44c-.11-.11-.27-.13-.4-.05l-1.84,1.07-2.81.28c-7.33.74-14.25,1.44-21.17.2-.29-.18-.47-.42-.52-.68-.05-.24.02-.48.19-.71.1-.13.09-.31-.02-.42-.11-.12-.29-.14-.42-.05-1.02.68-2.12,1.35-3.19,2-1.92,1.17-3.9,2.38-5.54,3.71-.11.09-.15.23-.1.36.05.13.16.22.3.22l2.95.1c5.24.17,12.27.41,17.32,0l-2.59,2s-.06.05-.07.08c-4.75,7.53-1.34,16.76,3.02,22.37.08.1.22.15.34.11.13-.03.22-.14.24-.27.5-3.74.48-7.12.46-10.37-.02-2.96-.03-5.77.34-8.61,0-.04,0-.08,0-.11-.48-2.19-.36-3.79.39-4.89,1.09-1.62,3.42-2.02,5.89-2.43,2.88-.49,5.86-1,7.3-3.52.07-.13.05-.29-.05-.39h0Z"/>
  <path class="cls-1" d="M694.15,167.06h-.47c-.18,0-.32.15-.32.32v.48c0,.18.14.33.32.33h.47c.18,0,.33-.15.33-.33v-.48c0-.18-.15-.32-.33-.32h0Z"/>
  <path class="cls-1" d="M693.52,167.37h-.63c-.18,0-.33.15-.33.33v.63c0,.18.15.33.33.33h.63c.18,0,.33-.15.33-.33v-.63c0-.18-.15-.33-.33-.33h0Z"/>
  <path class="cls-1" d="M871.16,168.48h-.63c-.18,0-.33.15-.33.33v.63c0,.18.15.33.33.33h.63c.18,0,.33-.15.33-.33v-.63c0-.18-.14-.33-.33-.33h0Z"/>
  <path class="cls-1" d="M874.96,171.65h-.63c-.18,0-.33.14-.33.33v.48c0,.18.14.33.33.33h.63c.18,0,.33-.15.33-.33v-.48c0-.18-.15-.33-.33-.33h0Z"/>
  <path class="cls-1" d="M946.3,171.96h-.63c-.18,0-.33.14-.33.33v.63c0,.18.15.33.33.33h.63c.18,0,.33-.15.33-.33v-.63c0-.18-.14-.33-.33-.33h0Z"/>
  <path class="cls-1" d="M810.42,175.76h-.63c-.18,0-.33.15-.33.33v.63c0,.18.15.33.33.33h.63c.18,0,.32-.15.32-.33v-.63c0-.18-.14-.33-.32-.33h0Z"/>
  <g>
    <g>
      <path class="cls-1" d="M94.64,145.54l1.27-.19c.6-.09,1.02-.63.96-1.23-.05-.52-.21-1.34-.99-3.03-2.2-4.76-15.01-19.62-28.79-19.62h-.14c-.61,0-1.1.49-1.12,1.11-.07,3.38,2,7.28,5.96,11.28,6.4,6.45,16.52,11.69,22.58,11.69h.12s.1,0,.15-.01Z"/>
      <path class="cls-1" d="M111.17,86.25c-4-.51-8.01-.77-11.93-.77-8.97,0-17.42,1.37-24.43,3.95-.42.16-.71.55-.74,1-.01.24-.02.48-.02.73,0,11.31,11.35,29.62,22.03,41.12,4.17,4.49,7.76,7.37,9.61,7.7.32.06.66-.03.91-.24.4-.33,9.61-7.84,9.66-7.87l4.48-3.61c.17-.07.25-.11.33-.16.52-.34.66-1.04.32-1.56-6.45-9.79-9.3-21.87-9.24-39.16,0-.57-.42-1.05-.98-1.12Z"/>
      <path class="cls-1" d="M148.78,72.75c-1.19-3.23-12.42-13.25-19.07-13.25-.5,0-.97.05-1.4.16-2.45.61-4.2,1.33-6.12,5.72-1.78,4.09-3.58,14.33-3.58,26,0,7.49.77,18.2,4.42,26.69l.63,1.56c.26.65,1.14,2.83,1.87,3.97.32.49,1,.66,1.52.36,2.46-1.43,9.7-5.62,9.95-5.78l2.56-1.59c.34-.21.55-.59.53-1-.03-.91-.06-1.87-.06-2.78,0-18.84,5.69-32.1,8.74-39.22.11-.27.12-.56.02-.84Z"/>
      <path class="cls-1" d="M151.21,199.72c.61.27,1.28.41,1.99.41,2.06,0,4.21-1.17,5.62-3.04,5.82-7.75,9.66-20.27,10.29-33.5.64-13.47-2.01-25.07-7.27-31.84-4.51-5.81-9.22-8.93-14.39-9.53-.61-.07-1.25-.11-1.88-.11-8.99,0-17.94,7.22-26.6,14.2-1.99,1.6-2.51,2.02-2.66,2.14-9.31,7.43-18.93,15.11-29.65,15.11-.51,0-1.02-.02-1.52-.05h0c-.54,0-.96.29-1.13.73-.17.46-.02,1,.38,1.3,6.24,4.69,11.8,6.97,17.02,6.97,7.87,0,14.23-5.23,20.96-10.78l.72-.59c6.26-5.14,16.14-11.15,23.42-11.15.41,0,.82.02,1.2.06,3.85.4,8.84,3.3,11.3,8.88,4.39,9.88,3.8,23.93-1.52,36.66-.77,1.84-1.97,2.94-3.22,2.94-1.13,0-2.19-.51-2.92-1.41-.13-.16-.31-.28-.51-.35-.12-.04-.25-.06-.37-.06-.45,0-.86.27-1.04.69-.29.69-.7,1.83-.89,2.79-.24,1.19-.36,2.32-.36,3.37,0,4.19,1.9,5.66,3.03,6.17Z"/>
      <path class="cls-1" d="M206,173.75c.86-.1,20.7-2.55,29.09-11.36.91-.96,1.81-2.32.89-3.3-3.25-3.19-14.39-13.49-22.97-13.49-.82,0-1.61.1-2.34.29-5.77,1.53-9.21,8.71-9.21,19.19,0,2.46.19,5.03.56,7.64.1,1.1,1.5,1.4,3.98,1.03Z"/>
      <path class="cls-1" d="M234.82,151.14l.73.6c7.05,5.8,13.13,10.8,21.03,10.8,5.19,0,10.72-2.24,16.91-6.86.4-.3.56-.82.39-1.29-.16-.44-.59-.74-1.06-.74-.48.03-.9.04-1.31.04-10.81,0-20.51-7.74-29.89-15.22l-2.71-2.17c-8.65-6.98-17.6-14.19-26.57-14.19-.63,0-1.26.04-1.88.11-5.17.6-9.87,3.72-14.39,9.53-5.26,6.77-7.91,18.37-7.27,31.84.63,13.23,4.47,25.75,10.29,33.5,1.41,1.88,3.57,3.04,5.62,3.04.71,0,1.38-.14,1.99-.41,1.13-.5,3.03-1.98,3.03-6.16,0-1.02-.12-2.16-.36-3.37-.15-.79-.52-2-.74-2.72-.11-.37-.39-.64-.75-.76-.34-.11-.74-.05-1.03.17-.13.08-.21.16-.29.25-.73.89-1.8,1.4-2.93,1.4-1.24,0-2.44-1.1-3.21-2.94-5.33-12.73-5.91-26.77-1.53-36.66,2.14-4.84,6.69-8.41,11.32-8.88.38-.04.78-.06,1.19-.06,7.26,0,17.15,6.01,23.42,11.16Z"/>
      <path class="cls-1" d="M290.81,121.32c-13.87.06-26.68,15.03-28.86,19.77-.78,1.73-.93,2.56-.98,3.03-.06.59.36,1.13.95,1.22l1.28.19s.1.01.15.01h.11c6.05,0,16.17-5.24,22.57-11.69,3.99-4.02,6.03-7.98,5.9-11.45-.02-.61-.52-1.08-1.13-1.08Z"/>
      <path class="cls-1" d="M283.06,89.46c-7.05-2.61-15.55-3.99-24.57-3.99-3.87,0-7.82.25-11.77.75-.56.07-.99.55-.99,1.12,0,17.26-2.85,29.31-9.23,39.07-.32.49-.22,1.13.23,1.49.12.1.29.23.49.39l4.33,3.56s8.15,6.65,9.66,7.88c.25.2.58.29.91.24,1.84-.33,5.42-3.19,9.58-7.67,10.71-11.52,22.1-29.86,22.1-41.18,0-.16,0-.31,0-.46v-.17c-.02-.47-.3-.87-.74-1.03Z"/>
      <path class="cls-1" d="M234.8,118.12c3.67-8.53,4.43-19.25,4.43-26.73,0-11.66-1.8-21.91-3.58-26.01-1.93-4.38-3.67-5.11-6.11-5.72-.43-.11-.91-.16-1.4-.16-6.66,0-17.9,10.03-19.08,13.26-.1.27-.09.57.02.83,3.06,7.13,8.75,20.4,8.74,39.23,0,.69-.02,1.4-.04,2.12l-.02.65c-.01.4.19.78.53.99l1.04.65c.87.54,1.7,1.06,1.86,1.16,0,0,7.03,4.08,9.6,5.57.51.29,1.2.12,1.52-.37.63-.98,1.36-2.67,1.86-3.92l.63-1.56Z"/>
      <path class="cls-1" d="M147.27,145.9c-.73-.19-1.51-.29-2.33-.29-8.35,0-18.94,9.53-23.11,13.63-.21.21-.34.5-.34.8,0,.42.24,1.17,1.37,2.36,3.54,3.72,9.48,6.76,17.66,9.03,6.09,1.69,11.24,2.31,11.45,2.33,1.13.17,1.85.17,2.19.18l.17.02c.12.03.25.04.38.02.51-.05.92-.44,1-.95.44-2.89.67-5.67.67-8.28,0-10.29-3.4-17.33-9.11-18.85Z"/>
    </g>
    <path class="cls-1" d="M211.74,104.59l-.11-1.16c-.9-9.34-5.65-22.5-12.42-34.34-2.69-4.7-12.09-20.05-20.25-20.26-8,.21-16.87,14.24-20.31,20.27-6.77,11.84-11.52,24.99-12.41,34.33l-.12,1.2c-.17,1.73-.39,3.86-.39,5.82,0,2.15.21,5.15,2.06,6.28.04.02.08.04.12.06l2.79,1.27,2.84,1.12c18.98,7.9,20.4,21.45,20.4,41.22,0,1.8-.01,3.65-.02,5.54l-.03,3.72-.16,7.74c-.07,2.54-.14,4.93-.14,7.29,0,2.76.09,4.99.28,7.03.66,4.75,2.09,6.71,4.95,6.81l.04.76.04-.76c3.45-.11,4.52-2.74,5.08-6.65.2-2.16.29-4.45.29-7.28,0-2.48-.07-5.11-.14-7.43l-.18-11.22c-.01-1.92-.02-3.79-.02-5.61,0-19.73,1.42-33.25,20.35-41.13l2.84-1.12,2.83-1.3s.08-.04.12-.06c1.86-1.14,2.08-4.14,2.08-6.3,0-2.05-.23-4.32-.38-5.83Z"/>
  </g>
</svg>