<?xml version="1.0" encoding="UTF-8"?>
<svg id="Layer_1" xmlns="http://www.w3.org/2000/svg" viewBox="0 0 449.96 347.4">
  <defs>
    <style>
      .cls-1 {
        fill: currentColor;
      }
    </style>
  </defs>
  <path class="cls-1" d="M182.32,178.99c.03,1.15,1.46.96,1.94,1.74.65.23,1.36.74,1.96.7l.64.67c.66.01,1.08.96,1.8.42.11.17.32.23.27.39.6.07,1.1-.25,1.47.47.55-.15,1.55-.41,1.97.26.4-.87.75.62,1.16-.19.49.23,1.5-.9,1.7.26.72-.15,1.75.48,2.15-.45l.48.5c.87.35,1.27-.41,1.88-.73l.54.56c.13-.77.99-.2,1.33-.79.05.17.27.23.21.39h.44c.33-.2-.27-.38.12-.65.33-.1.43.28.65.45.73-.64,1.62-1.34,2.77-1.04.45-.7,1.49-.3,1.62-1.12.44-.16.84-.86,1.33-.36.68-1.03,1.5-.68,2.18-1.71.65.18.29-.93,1.06-.64,1.24-1.4,3.01-1.97,4.3-3.58-.19-1.16,1.49-.41,1.19-1.57.78-.7,1.14-1.73,2.29-2.04-.09-.93.7-1.85,1.37-2.6-.2-.83,1.01-1.08.7-1.96.83-.2.08-1.15.69-1.3.07-.55-.13-1.48.43-1.97-.25-1.32.64-1.58.34-2.9-.26-.5-.03-.99-.24-1.71,1.23-.8-.57-1.44.06-2.52-.98-.19.41-1.03-.63-1.33-.31-1.05-.72-2.1-1.53-3.05-.64-.84-1.23-1.62-2.15-2.13-.11.22-.45.43-.01.66.05.22-.12.38-.28.49-.21-.44-.71-.24-.92-.68.23-.65.84-.69.8-1.52-.16-.28-.38-.34-.65-.29-.74-1.28-2.11-1.42-2.8-2.59-1.23-1.51-3.21-1.39-4.32-3.11l-.39.38c-.27-.06-.61.1-.77-.13-.05-.11.06-.22.12-.27-.32-.45-.25-1.27-1.01-1.34-1.54.3-2.32-1.64-3.65-1.4-.57-1.38-2.1-1.64-3.13-2.43.18-.76-.7-.51-.91-.95-1.15-.3-2.42-2.14-3.72-2.99-.7-.84-1.06-1.89-1.64-2.67-.21-.55-.46-1.38-.89-2,.59-1.69-1.08-3.32.11-4.88-.47-.89,1.02-1.46.33-2.46,1.17-.69.7-2.07,1.87-2.76.89-.37,1.51-1.28,2.39-1.49.51-.65,1.33-.46,1.99-.62.61-.26,1.61-.95,1.24-1.73.71.02.3,1.27,1.18,1.12.55-.04,1.1-.14,1.42.25v-.11c1.06-.53,2.13.54,3.4.18.32.5.92.68,1.19.96,1.44-.63.78,1.83,2.33,1.26-1.22.74.74,1.28.62,1.99.26.77.57,1.77.22,2.64.69.89.23,2.26.31,3.41-.62.54.12,2.03-.72,2.62-.13.82.19,1.38.78,1.88,1.43-.19.92-1.96,1.49-2.77-.42-.94-.23-2.26-.04-3.29h.11s0-.38,0-.38c-.92-.46.14-1.2-.35-1.82.72-.37.3-1.26.42-1.86-.6-.29-.2-.72.02-1.04l-.38-.28c.23-.43.08-1.1.52-1.42-.31-.99,1.03-2.06.23-2.9.89-.53.13-1.15.15-1.86-.53-.83-1.8-.48-2.73-.55l-.37-.45c-2.63-.22-4.5.18-6.87.51-.52,1.14-1.32.08-2.15.39-.29.54-1.1-.13-1.33.63-.82.09-1.55.62-2.38.99-.82-.07-1.4,1.07-2.1.89-.56.65-1.72.79-1.9,1.66-1.38.57-2.62,1.75-3.74,3.05-.18.82-1.34.85-1.08,1.84-.56.32-.62.86-.96,1.3.26.77-1.06.58-.69,1.41-.88.31.02,1.59-.81,1.96.48.67-.85,1.13-.04,1.76-.52,1.03-.26,1.92-.34,3.12,1.13,1.23-.16,2.36.96,3.59-.73.7.75,1.06.24,1.71,1.05-.14.42,1.05,1.29,1.35.64.84,1.17,1.95,1.75,2.95.65.18.23-.6.57-.76.5-.15.43.45.64.67-.11.05-.23.27-.39.21-.17.49.65.56.36,1.11.77.07,1.24.96,1.83,1.47.44.17.72-.26,1.05-.36.37.45-.24.76-.03,1.32h.49c.38.29.59.68.64,1.07.38.06.61-.15.93-.09.42,1,1.84,1.25,2.76,2.04.67-.32.87.51,1.3.8.71.29.89-.64,1.55-.52.86.79-.67.42-.68,1.08,1.09.35,1.95,1.25,2.87,1.87l.84-.75.49.4c.16.33-.23.38-.4.54.21.66.96,1.12,1.39,1.73,1.1-.14,1.28,1.51,2.38,1.75-.24.93.82.35,1.02,1.06.36,1,2.43,1.7,2.18,3.07l.78-.48c.05.28.48.5.09.77-1,.53.57,1.44.61,2.26-.28.43-.02.99.25,1.32-.34.43.69.95.14,1.32.54.56-.09,1.7.45,2.1.05.22-.17.27-.28.43.52,1.33-.99,2.5-.3,3.78-1.47,2.05-2.07,4.51-4.62,5.72-.03,1.21-1.66.79-1.9,1.77-.7-.4-.84.64-1.55.62-.76-.18-.9,1.13-1.77.62-.19,1.04-.98-.35-1.33.63-1.14-.46-1.77.84-2.75.38.05.22-.07.49-.29.65-.43-.28-.98-.46-1.41-.85-.39.27-.62.92-1.22.8-.22-.17-.04-.49-.1-.66-.72.26-1.74-.7-2.36.17-.42-1-1.32.36-1.74-.7-.96,1.13-1.75-.48-2.85-.17-.47-1.27-1.63-.91-2.6-1.48-1.46-.85-2.31-2.19-3.9-2.61l.23-.27c.17-.33-.21-.28-.38-.39-.04-.82-1.24-.85-1.11-1.73-.97-.68-.79-1.72-1.26-2.55-.59-.4.16-2.36-1.28-1.73.06-.27.51-.59.02-.77.34-.27.51-.7.68-.92-1.17-1.51-.47-3.52-.33-5.17h-.11c-.21-.23-.04-.61-.09-.94.94-.36-.3-1.21.69-1.52.02-.77-.08-1.15.42-1.58.61-.21.52-1.2,1.07-1.29.25-1.53,1.96-1.6,2.8-2.57.77-.04,1.48-.13,1.99-.62.22.06.44-.1.55.12.62-.86,1.48.2,2-.89l-.37-.5c-.08-1.59-1.15-.13-1.85-.97l-.4.65c-.93-.07-1.5.68-2.27.99-.78.75-1.84,1.11-2.41,2.09-1.06.69-1.79,1.61-2.79,2.3,0,.11-.06.27.1.39-.17.27-.46.87-.95.64-.07.82-1.62,1.17-1.09,2.06-.77.2-.08,1.04-.69,1.3l-.11-.11c-.22-.06-.28.16-.45.26.36.94-.04,1.92-.72,2.62.43.39-.12.71-.24,1.04.98.19-.08.93.63,1.33-.34.38-.46.76-.68,1.19.7.45.19,1.38.34,2.09,1.8.75-.5,2.73,1.52,3.44-.57,1.08.9,1.45.61,2.43.43.34.69,1,1.29,1.07-.41,1.09,1.24.96,1.66,2.01ZM221.32,165.07c.05.22.38,0,.27.28v.38s-.28,0-.28,0v-.66ZM220.79,166.49l-.27-.23c.11-.16.28-.16.39-.16,0,.17.05.33-.12.38ZM220.68,154.13l.21.28c-.06.16-.22.1-.39.1l.17-.38ZM212.01,115.75c.27.12-.06.38-.18.49h-.38c-.1-.29.23-.61.56-.49ZM205.59,113.47h.27c0,.17.05.34-.12.44h-.16s0-.44,0-.44ZM199.11,115.96c.05.33-.29.71-.56.65-.11-.22.18-.6.56-.65ZM191.55,122.82c-.11,0-.27,0-.38-.17.11-.16.4-.76.67-.37.1.22-.12.38-.29.54ZM195.79,134.77h-.27s0-.28,0-.28h.27s0,.28,0,.28ZM198.56,141.53h-.16s0-.39,0-.39c.11-.05.22.06.27.12.05.11-.06.16-.12.27ZM200.49,143.54h-.16s0-.39,0-.39c.11-.05.22.06.27.12.05.11-.06.16-.12.27ZM205.53,146.56c0-.38.39-.38.66-.15-.17.27-.45.32-.66.15ZM209.08,142.3c-.44.16-.71-.29-.81-.57.39-.1.54.18.81.4v.16ZM212.78,146.33h-.38c-.1-.29.13-.83.39-.44v.44ZM214.54,150.82h-.16s0-.39,0-.39h.27c0,.17.05.34-.12.39ZM216.27,149.81h-.27c-.05-.17.06-.44.28-.38v.38ZM209.82,179.03c.11.11.22.17.16.28h-.27s.12-.28.12-.28ZM195.55,181.25l-.28.27-.21-.28c.06-.22.39-.21.49.01ZM190.06,179.16v.38c-.34.05-.83-.13-.76-.57l.76.18ZM187.96,179.49l-.77-.02c.12-.44.72-.2.77.02ZM184.84,176.68c.05.22-.33.05-.5.1v-.55c.34-.16.34.28.5.45ZM184.37,175.74c-.11.22-.33.05-.55.1-.1-.28.4-.54.55-.1ZM183.27,178.19c.17-.16.49-.04.38.28-.11.05-.17.16-.28.16-.16-.11-.1-.28-.1-.44ZM183.2,156.23h.27c0,.17-.12.39-.28.38v-.38ZM180.06,166.92c-.33-.12-.32-.61.02-.77.11-.05.22.06.27.12.05.28-.07.49-.29.65ZM180.48,165.23h-.11s0-.39,0-.39c.11-.05.16.06.27.12.05.11-.06.22-.17.27ZM253.16,227.94c-.16-.28-.38-.34-.65-.29-1.03-.73-2.26.23-3.4-.35-.4.59-1.31-.19-1.6.62-.21-.39-.65-.45-1.03-.41-.57.81-1.54.02-2.14.23-.51.81-1.81-.15-2.38.72-.33-.06-.99.2-1.04-.3.78-.37,1.61-.73,2.38-1.1.56-.43,1.28-.63,1.73-1.28,1.16-.52,2.22-1.27,3.34-1.9-.31-.83.63-1.08.69-1.74.35-1.15-.61-2.37.34-3.12-.04-.83.27-2.25-.21-2.91,1.33-.85-.74-1.39-.44-2.37.18-.54.83-.15.95-.64-.6-.34-.21-.66-.14-1.05-.42-1-.11-2.47-.2-3.46l.45-.37-.43-.28c.02-.99.28-2.57-.15-3.41.41-1.25.45-2.95.09-4.22.89-.42-.59-.89.25-1.31,0-.33.18-.71-.09-.93-1.03-.41.35-.93-.07-1.7.58-1.36.02-3.4.59-4.6-.31-.77.58-1.36.87-2.07.39-.27.9-.8,1.44-.41.51-.81,1.31.14,1.72-.73.75.73,2.02.32,3.01.45.5-.37,1.16-.25,1.6-.62l.27.39c.61-.31,1.26.03,1.97.04.62-.81,1.92.15,2.54-.71.75.62,1.11-.58,1.98-.23,1.45-1.12,3.16-1.36,4.23-2.76.77-.2,1.77-.51,2.28-1.27-.66-.12-1.33.58-1.99.84-1.09-.46-1.45.85-2.48.38-1.22.52-2.91-.12-4.13.4-.54-.29-1.49.57-1.97-.32-.35.82-1.37.03-1.83.62-.48-.72-.71.09-1.32-.03-.82-.02-1.21.08-1.86-.42-.44.27.36,1.05-.4.65-.38-.28-.98-.57-1.47-.31-.55.15-1.1-.02-1.69-.42-.46,1.14-1.32.03-2.09.34-.12.44.8.84.08,1.21-.26-.72-.98-.46-1.41-.58l.29-.65c-1.76.13-3.78-.41-5.28.32-.33-.06-.66.04-.82-.29l-6.42-.14-.54-.56-.28.38c-2.73-.77,1.24-1.56,1.1-2.72h-.38c-1.24,1.5-3.22,1.51-4.3,3.19-1.49.46-1.75,2.21-3.19,3.06-.17.33.26.5.37.67l4.33.09.39-.21c.66.01,1.55-.63,1.86.26,1.11-.41,2.37-.61,3.4.07l.56-.76.38.39,4.11.09c.34-.43.6.01,1.04.02.46-.87.87.62,1.32-.25.55-.1.99-.25,1.42.19-1.68,1.39-3.78,2.28-5.46,3.94-.39.32.26.72-.4.81v.38c-1.06.58.28,1.76-.72,2.34.41,1.33.09,3.24.11,4.89.21.22.54.45.42.78-.11.05-.17.22-.28.16v.22s.11,0,.11,0c.08,1.43.36,3.52-.38,4.88l.81.68c-.29.71-1.19,1.68-.44,2.35.21.66-.4.7-.46,1.2.76.46.24,1.43.39,2.09.32.5.25,1.32,1.01,1.34-.13.82-.72.15-1.22.52.24,1.82.03,3.79.04,5.65l-.45.37c-.29.65.62,1.71-.27,2.24.03,1.37-1.16,2.66-2.05,3.52-.66.04-.9,1.02-1.61.9-.73.97-2.24-.54-2.55.99-.82-.13-1.22.85-1.84,1.28-.28.27-.77.09-.83.53.11.22.38.06.55.12.35-.76,1.43-.08,1.61-1.01,1.14.57,1.78-.95,3.03-.59,1.11-.42,1.88-.78,3.03-.59.44.01,1.01-.86,1.32.03.84-.86,2.36.11,3.2-.75.22.17.32.56.65.45.18-.49.94-.2,1.43-.24.31.88.73-.59,1.04.3.55-.04,1.15.08,1.6-.24.81.57,2.19,0,3.01.56.5-.15,1.15.35,1.47.58.3-1.09-1.57-1.02-1.44-2.12ZM255.11,186.11c-.06.27-.56.7-.9.86h-.27c.17-.28.63-1.03,1.17-.86ZM253,187.11c.28-.05.1.33.1.5-.17.16-.28.38-.5.37-.21-.28.45-.48.4-.87ZM232.99,186.29l-.1-.28h.27c.05.12-.11.17-.17.28ZM247.09,199.05c.11,0,.16.11.27.17-.06.16.1.44-.17.49h-.11s.01-.66.01-.66ZM247.5,223.32c0,.22-.28.32-.45.54h-.22c-.1-.34.4-.93.67-.54ZM265.95,227.67c-.18.71-.94.53-1.34.9-1.85-.7-2.49.93-3.88,1.62-.12.6-1.31-.19-.89.64,1.04.08,1.77-.67,2.66-1.15.33.06.77-.09,1.04.19.46-.81,1.54-.02,2.1-.61.92.57,1.45-1.12,2.14.05.73-.81,2.2,0,2.87-.6.71.4,1.97.43,2.63.06.39-.27,1.04-.09,1.2.3,1.65-.07,3.29.13,4.48.87.56-.54-.43-.5-.53-.94l.28-.27c.06-.16-.16-.22-.27-.39.11-.05.17-.16.28-.1-.15-.83-1.43.24-1.85-.7-.36,1.25-.86-.79-1.43.24-2.3-.1-5.26-.22-7.53.6-.53-.89,1.06-.96,1.46-1.67.76.24.83-.42,1.33-.79.83-.15,1.45-.9,2-1.27.85-1.08,2.83-1.37,2.48-2.97.11-.05.17-.27.39-.27.13-.82-.29-1.98.44-2.62-.05-.33.24-.82-.25-1.05-.49-.34-.04-.77.3-1.04-.05-.39.24-.93-.25-1.21l.12-10.64c.13-.93-.22-2.31.18-3.18-1.26.08-.36-1.16-.62-1.72,1.73,1.08-.58-1.05.69-1.3-.11-.22-.38-.23-.49-.39-.18-1.87,1.06-3.55.11-5.27.62-.86.49-2.35.18-3.29l.15-1.86c.67-.53-.8-1.06-.07-1.81-1.19-.63-2.32.5-3.58.47-.9.97-2.27.99-3.06,2.02-1.23,1.02-2.72,1.31-3.89,2.39-1.27.3-2.28,1.49-3.55,1.79.09.88-1.67,1.06-.87,2.07.89-.58,1.67-.95,2.56-1.76-.15-.72.67-.64.96-1.19,1.05-.42,2-1.11,3.16-1.25.43.39.91.95.52,1.49.7.78.23,2.09.32,3.14.48.45.14,1.27.23,1.87.71.35-.24.98.63,1.17-.07.6-1.07,1.19-.42,1.58l-.02,5.82c0,.33.7.56.25.94-.23.33-.68.7-.02,1.04-1.06.8.25,1.27.34,2.09-.11.11-.23.32-.39.27-.17.43.65.56.36,1.05-.11.11-.23.32-.39.27-.23.54.6.29.37.78-.11.11-.23.32-.39.27.26.83-.09,1.7-.22,2.52-.23.32-.23.49.15.77.32.39-.07.82-.4.93.7.62.18,1.81.33,2.53-.62.92,0,2.36-.62,3.28.03.99-.69,1.63-.44,2.74-.45.65-.74,1.41-1.09,2.06-.33.21-.51.76-.95.53ZM274.04,201.39h.38s0,.23,0,.23c-.17.05-.44,0-.38-.23ZM272.03,202.89c0,.16,0,.33-.17.43l-.1-.44h.27ZM271.21,192.6c.11,0,.27,0,.38.17.05.11-.06.16-.17.22h-.22s0-.39,0-.39ZM270.8,211.86c.16.06.39-.1.49.12-.12.27-.33.1-.5.1v-.22ZM251.13,260.66c.06-.33-.09-.77.19-1.04-.82-.35-.63-1.33-.61-2.1-.66-.07-.15-.77-.64-.95.57-.92-1.29-1.18-.61-2.26-.15-.77-1.03-.41-1.29-1.07-.02-1.59-1.93-2.29-2.55-3.73-.76-.4-1.46-.96-2.22-1.25-.63-1.33-1.85-.7-2.49-1.65-.99.09-1.73-1.25-2.62-.72-.81-.4-1.63-.86-2.73-.72-.86-.73-2.3-.32-3.45-.46-.79-1.55-1.51,1.28-2.19-.43-.74,1.25-1.52-.58-2.27.72l-.38-.39c-.73.81-2.03.01-2.81.6-.98-.41-1.44.74-2.26.5-.34.65-.82-.35-1.16.36-.83.15-1.72.84-2.66,1.1-.93-.02-1.78.95-2.67,1.42-1.03-.35-.68,1.08-1.72.73-1.34.85-1.8,1.99-3.24,2.56-.51.76-1.72,1.06-1.91,2.1-1,.58-1.14,1.84-2.14,2.59-.18.82-1.4,1.51-.98,2.34-.34.38-.84.69-1.07,1.13-.18.93-.81,1.96-1,3.05-1.05.53.46,1.66-.81,2.07-.35.82.7.67.74,1.33-.12.6-.93-.35-.78.53-.12.66.79,1.66-.32,1.97.86.95-.05,2.25.2,3.3.16.28.7.45.47.89-.12.27-.33.21-.5.43.16.22.81.62.36,1.05,1.31.41.07,1.81.99,2.38-.06.16.1.44-.12.55.54.56.63,1.28,1.11,1.83-.51.7.64,1.06.9,1.61-.13,1.09.87.46,1.3.96.04.49-.6.04-.78.37.69,1,1.66,1.74,2.41,2.8.6.07,1.26-.08,1.58.58.31,1.1,1.4,1.07,2.09,2.13.94-.42.96,1.17,1.96.7.42.72,1.36.58,1.79.97.38.06.71.23.92.57.95-.69,1.79.86,2.53-.11.85,1.28,3.01.39,4.15.91v.11c.64.56,1.05-.31,1.49-.63.43.23.14.94.75.84v-.16c.12-.22.35-.6.67-.48.05.06.22.11.16.22.65.51,1.12-1.18,1.81-.18l.28-.43c.38.06.88-.09,1.2.19.41-1.25,1.48.31,1.99-.78,1.37.03,2.38-.83,3.54-1.35,1.16-.52,2.43-.66,3.33-1.63.5-.15,1.38-.3,1.34-.9.07-.55.55-.04.83-.09,1.56-1.17,3.35-2.56,4.43-4.3,1.21-.19.81-1.9,2.14-2.31-.14-1.1.97-1.68,1.26-2.61.72-.31.29-.87.8-1.41-.37-.72.74-1.14.7-1.85,1.05-.47-.29-1.6.7-1.96.18-.54-.29-1.65.48-2.07l.14-6.31c-1.09-.57.47-1.64-.78-2.16ZM207.13,280.51h-.27s0-.23,0-.23h.38c.05.12-.06.17-.11.23ZM243.37,248.92c.11-.05.16.06.27.12l-.28.27v-.38ZM212.57,285.02h-.27s0-.45,0-.45c.16,0,.33,0,.38.17.05.11-.06.16-.12.27ZM218.26,288.66h-.27s0-.23,0-.23h.27s0,.23,0,.23ZM219.54,285.17l-.16-.28c.17-.05.22.06.27.12l-.11.16ZM240.1,283.64h-.11s0-.44,0-.44c.11,0,.16.11.27.17.05.11-.11.16-.17.27ZM244.54,273.69c-.22.11-.06.38-.12.55l.21.28c-1.34,1.01-.6,2.51-1.78,3.64-.14,1.2-1.47,1.94-1.77,3.09-1.9,1.72-3.64,3.43-5.91,4.48-1.15-.03-2.33,1.05-3.53,1.02-1.25-.58-2.12,1.55-3.07.04-.68,1.08-1.92.01-2.75.32-.36-1-1.32.36-1.69-.7-1.05.47-1.13-.85-1.97-.43-1.09-.35-1.83-1.47-2.98-1.66-.75-.67-1.73-1.35-2.21-2.02-.5.04-.63-1.17-1.46-1.07-.98-.35.42-1.47-.85-1.34.06-.22-.1-.39-.26-.55h-.38c.24-1.16-1.39-1.9-1.25-3.16-.92-.4.2-1.53-.89-1.88-.43-.28.42-1.69-.79-1.34,1.22-.69-.53-1.05.04-1.81.18-.6-.75-.89-.19-1.49l-.43-.39.17-7.63c1.05-.42-.3-1.32.7-1.69.08-.93-.12-2.09.88-2.51-.04-.71.1-1.86.99-2.5-.1-.55.84-.64.69-1.3.22.06.49.01.66-.21.19-.98,1.24-1.45,2.02-1.93-.16-.39.18-.6.4-.82,1.11-.41,2.07-1.82,3.44-1.9.56-.43,1.38-.3,1.99-.89.99-.25,2.41.38,3.31-.7.66-.21.97.84,1.48.14l.37.45c.35-.98.99.08,1.44-.52.47,1.16,1.6-.18,1.96.81.6.01.88.07,1.31.47.11-.27.39-.1.55-.15.7.51,1.36.52,1.95,1.36,1.58.64,2.75,2.09,4.16,3.11l.11-.11c-.47,1.25,1.68,1.13,1.26,2.55.37.72,1.74.92,1.28,1.84,1.14.74.61,2.04,1.64,2.83-.46,1.03.85,1.23.34,2.09.59.84,1.05,2.22.86,3.59,1.03.74-.37,1.91.6,2.65-.29.65-.3,1.09-.31,1.7l.27.28c.41,1.22-.81,2.12-.46,3.39ZM245.66,252.37l-.27-.23.28-.27.27.28-.28.21ZM248.19,257.31c-.05-.22-.38-.39-.1-.66.11,0,.27,0,.38.17.05.22-.12.38-.28.49ZM248.46,275.26l-.1-.44h.22c0,.17.05.34-.12.44ZM241.91,164.47c-.64-.95-2.29-.76-2.59-2.2-2.02-.65-3.42.69-5.66.15-.52.98-1.47-.36-1.99.62-.71-.29-1.55.57-1.86-.31.78-.7,1.98-.29,2.77-1.09.32.34.61-.04.83-.26,1.27-.36,2.49-.82,3.44-1.9-.19-1.21.61-2.84-.19-3.85l.09-4.17-.37-.56c.12-.55-.24-1.38.42-1.58l-.38-.28c.06-.38-.09-.88.19-1.15.68-.97-.84-1.94.06-2.52-.31-.66.14-1.64-.39-2.26-.06-2.09.43-4.55-.25-6.32.89-.69.15-1.81.06-2.63,1.05-.14-.26-.66.3-1.04.18-.49.3-1.31-.07-1.7.35-.82.42-1.64.27-2.52.66-.26.23-.71.02-1.04.45-.43.35-1.09.69-1.58-.76-.35.25-1.2.31-1.8.24-1.04,1.19-1.9,1.76-2.6-.99.25-1.83,1.06-2.78,1.64-1.26-.08-2,1.27-3.22,1.52-1.1.31-1.51,1.39-2.67,1.64-.07.71-.63,1.14-.7,1.96-.83.53.02,1.59-.27,2.24-.39.43-.79.92-.03,1.32-.22.21-.56.37-.46.76.48.83.17,2.03.21,3.02l.38.39c0,.33.1.66-.24.82-.23.32-.29.93.19,1.16-.08,1.26.16,2.64-.3,3.73l1.18-1.07c.7.67-.69,1.25-.97,1.73.22-.05.27.17.43.23l-.45.43c.21.55.88-.04,1.09.52-.23.49-.5.21-.94.25.1.28-.46.81.08,1.21l-.12,5.76c.05.44.86,1.01-.03,1.32.04.49-.19,1.09.36,1.33,0,.38.09,1.1-.42,1.47,1.13,1.23-.65,2.35.08,3.79-.83.26-.08,1.21-.69,1.58.3,1.38-1.09,2.12-2.04,2.97-.6-.23-.83.31-1.22.52.4,1.6,1.17-.85,2.08.15.79-.81,1.87-.01,2.81-.6,3.29.18,6.75-.07,9.87.49.5-.04.81.68,1.31.3ZM235.7,134.43c-.06.38-.94.25-.68.92-.33-.06-.38-.39-.37-.67.49.34.67-.7,1.05-.25ZM230.75,137.5h-.49c-.16-.4.18-.67.51-.55v.55ZM231.69,142.24h.55c.1.23-.12.39-.29.55h-.27s.01-.55.01-.55ZM288.74,282.72c-.83.2-1.55.52-2.37.61-.52.98-1.47-.42-1.99.62-1.65.07-3.78-.41-4.89.28-.63-1.22-1.22.63-1.86-.42-1.05.47-1.4-1.02-2.35-.33-.37-.89-1.48.02-1.85-.86-.93-.07-1.63-.69-2.45-1.1-.43-.45-.98-.46-1.46-.8-.43-.34-.97-1.01-1.68-1.08-.95-1.61-3.18-2.65-3.3-4.57-1.52-.58-.61-2.43-1.91-3.22-.27-.23.35-.82-.25-1.05-.16-.44-.15-.77-.36-1.16.06-.11.17-.22.28-.16-.26-.44-.31-.94-.24-1.43-.76-.29.4-.98-.53-1.05.67-.48-.15-.55-.09-1.1.06-.05.17-.16.28-.1-.16-.22-.37-.78-.64-.95-.16-.33.23-.32.39-.49l.08-3.57c.84-.64-.51-1.77.7-2.12l-.54-.4c1-.47.8-1.47.87-2.34.56-.65.42-1.58,1.36-2.06.43-2.19,2.76-3.18,4.06-4.96.45-.37,1.7-.07,1.45-1.12,1.09.3,1.67-1.17,2.76-.87.68-.97,1.98-.23,2.66-.99,1.6-.51,3.9.03,5.71-.26l.65.51.5-.48c.39-.1.54.34.81.51.22.06.44-.05.66-.1.2.88,1.54-.13,1.79.97,1.75.42,2.74,2.58,3.87,3.6.15.77.8,1.28.89,1.99-.02.99-.16,2.03.32,2.81-.72.2-.3,1.2-.42,1.8.32.39.64.67,1.2.57,1.43-.3.53-1.85.83-2.73-.97-.62.37-1.69-.61-2.26l.16-7.63c-.73-1.61-2.33-1.31-3.8-1.95-1.43.08-2.52-.11-3.5-.46-.38-.12-.84.64-.93-.02h-.38c-.89.69-2.2.22-3.3.3-.56.43-1.71.24-2.43.61-.16-.28-.43-.39-.76-.4-.84.91-1.87.07-2.66,1.09-.54-.56-.72.53-1.32.25-.89.42-2.05.72-2.94,1.53-1.36-.36-1.95,1.33-3.05,1.64-.99-.02-.85,1.02-1.73,1.28-.82-.24-1.06,1.02-1.89.89-.07.88-1.11.58-.97,1.57-1.1.14-.86,1.57-1.85,1.77-.01.55.6.12.76.46-.12.38-.61.1-.78.37-1.47-.47-.96,1.46-2.01,1.77.05.22-.12.44.1.55-.67.42-.41,1.25-.81,1.85-.99.2-.58,1.25-.7,1.96-1.27.36-.37,1.69-.88,2.45h-.11c.27.33.26.72-.13.93-.12.49.04.88.36,1.21.2.77-.58,1.25-.7,1.8v.27c.1-.05.16.06.27.12.16.39-.28.38-.45.54.6.29.21.66.14,1.04,1.19.96-1.36,2,.6,2.54.1.33-.12.55-.4.65.14.94.18,1.93.71,2.76-.35.76.69,1.28.5,2.15.26.83.65.29,1.15.13.16.17.38.28.26.55-.22.21-.45.48-.78.37-.14,1.26.5,2.32,1.36,3.05l-.11.11c.91,1.28,2.47,2.69,3.7,4.03.71.35,1.47.58,1.84,1.36.22.11.39-.1.5-.21.6.23.81.51,1.08,1.07l.11-.16c.39-.1.54.23.76.46.22-.05.44.12.55-.15.64.67,1.7.37,2.22,1.26.17-.27.5-.1.77-.15.64.84,1.92.1,2.62.71.27.06.49.01.66-.2.27.06,1.05-.2,1.31.25.44,0,.93.13,1.21-.36.71.29,1.92.15,2.9.23.57-.76,1.27-.25,1.98-.23l1.33-.79c.87.24,1.21-.19,1.82-.62,1.04.35,1.61-.79,2.27-1.1,1.33-.41,2.23-1.65,3.36-2.84-.04-.66.79-1.03,1.07-1.4l-.11-.17c-.66.04-.88.31-1.33.79ZM283.02,243.19c0,.16,0,.33-.17.38l-.11-.11.28-.27ZM276.41,244.09v.27c-.17-.06-.45.1-.55-.12.06-.05.39-.48.55-.15ZM265.38,279.41c-.39.16-.38-.23-.54-.4.06-.22.62-.65.77-.09.1.22-.12.38-.23.49ZM269.01,281.63c-.17.38-.61.21-.94.2-.1-.33.39-.32.56-.65.16.17.55.07.37.45ZM292.53,282.91c1.64.31.56,1.82,1.92,2.57-.34.27.04.55.26.77.54.51.4,1.71,1.17,1.89.2-1.59.24-3.34.11-4.88.17-.38.62-.65.52-1.2-.92-.51-.07-1.76-.33-2.48.4-.6.58-1.25-.07-1.76.61-.37-.15-.88.52-1.31-.32-2.97.33-5.21.06-8.01l.39-.37c-.36-1.11.69-1.52,1.25-2.22.38.17,1.09.35,1.32-.25.98.57,1.34-.9,2.26-.23.5-.48,1.33-.57,1.82-.62l1.5-1.01c.76.24,1.06-.8,1.82-.62.46-.76,1.81-.12,1.73-1.28-.56.37-1.32.3-1.83.89-2.08-.1-3.96.57-5.93.25l-.39.38-3.95-.09c-.73.97-1.41-.8-1.98.23l-5.43-.23c-.82-.18-1.47-.36-2.25.06-.42-.61-1.48.19-1.79-.81-.21-.66.73-.64.41-1.2-.33-.12-.44.27-.67.37-.99.03-1.51,1.28-2.55,1.26-1,.8-2.07,1.6-3.33,1.9-.18.82-1.35,1.29-1.47,1.94.44.12.93-.03,1.05-.36.28-.05.38.12.54.29.99-.25,1.74.64,2.64-.22l.27.39c.83-.26,1.82-.51,2.63.06.33,0,.88.13.89-.37l5.05.11c.34-.27.78-.42,1.32-.36.05.11.27.23.21.39,1.16-.41,2.43-.66,3.75-.69l.21.28c-1.12.8-2.51,1.81-3.47,3.05.64.78-.67.7-.69,1.3.7.84-.9,1.13-.31,1.86-.78.42.03.99-.42,1.58-.28.43.52,1.11-.14,1.53.15.61-.63,1.36.18,1.87.15.55-.19.98-.25,1.42,1.05-.14.08,1.15.74,1.5-.3,1.15,1.34,1.29.72,2.38ZM277.14,118.97c-.51.76-1.65.24-2.53.38-.44.21-1.17.63-1.59-.03-.33.05-.82-.24-1.05.2l-6.2-.13c-.35,1.15-.81-.51-1.33.41-.48-.72-1.36-.41-2.19-.32l-.54-.4c-.72.09-1.37-.25-1.86-.31.21.55.14,1.16.4,1.71.26.55.87.51,1.3.69.62-.54.92.51,1.81.15.89-.58,2.3.21,3.03-.59.11.17.32.23.27.44.38.12.55-.21.83-.42,1.81-.02,3.84.3,5.49-.1,1.14.46,2.57.22,3.84.3.75.68,1.86.42,2.73.72.2.88,1.26-.03,1.3.85l.28-.38c.65.56,1.24.96,2.11,1.36.65.4.74,1.28,1.4,1.46-.07.49.43.39.36.94-.45.76.86.79.91,1.17-.06.11-.17.22-.28.16v.27c.49.12.2.77.24,1.16.75,1,.23,2.09.21,3.19l.37.5c.15.5-.23.65-.4.92l.75.68c-1.11.52-.52,1.31-.71,2.24-.77.2-.08,1.15-.69,1.3-.3,1.15-.98,2.12-2.03,2.59-.69,1.41-2.45,1.76-3.99,1.89-1.61.73-4.16-.69-5.4,1.09.68,1.44,2.13.54,3.38.84.28-.32.56-.48.94-.53.44.17.7.62.64,1.11h.38c.75.85,1.06,1.9,1.81,2.79-.02.93,1.01,1.39,1.1,2.27.91.84.77,2.65,2.19,2.68.21.22.76.18.64.67-.11.05-.17.27-.39.27-.39.38.09.66.37.89-.06.22.1.44-.12.55l.75.78c.41,1.16,1.27,2.11,1.63,3.22,1.14.52,1.01,1.72,1.92,2.4l.84-.75c.27.17.27.44.37.67-.23.43-.72.26-1.05.47.05.44.6.29.75.68-.46,1.09,1.39,1.79,1.53,2.67,1.28,1.46,2.41,2.52,3.99,3.27.41,1.33,1.7.09,2.22,1.37.87.35,1.65-.07,2.23.82.6.23.55-.26.94-.47.49.28.52,1.11,1.3.8.37.83,1.49-.19,1.96.7.38,0,.82.07,1.15-.08.7.84,1.98-.01,2.78.83,1.1.13,1.81-.18,2.74.33.38.34,1.37.03,1.06-.53.27-.05.38.12.54.29.61-.37,2.07.87,2.1-.45-.93-.24-2.19-.27-3.13-.07-.42-.89-1.59.02-1.96-.87-.99.09-1.46-.91-2.34-.98-1.96-.81-3.06-3.3-4.97-3.51.24-.93-1.22-1.95-2.03-2.57l.11-.11c-.91-.9-1.61-1.74-2.02-2.95-.71-.07-1.19-.9-1.56-1.46.07-.82-1.08-1.07-1-1.89-.6-.18-.94.25-1.43.35-.27-.17-.32-.39-.26-.66.17-.38.61-.1.78-.37.23-.49-.6-.29-.37-.78-.49-.4-.41-1.33-1.18-1.23-.65-.51-.85-1.17-.73-1.99-.21-.33-.54-.51-.92-.4-.09-.99-1.11-2.11-2.03-2.79.29-.93-.62-1.66-1.16-2.28-.32-.61-.19-1.49-1.01-1.72.52-1.14-1.72-1.52-1.26-2.83-.38-.39-.89.31-1.2-.41.23-.32.57-.92,1.11-.74.89-.64,1.84-1.33,2.68-2.19.49.07.67-.7,1.17-.63.28-.16,1.05-.53.57-.92,1.55-.57,1.2-2.28,2.43-3.13-.36-.89.68-1.19.43-2.08-.38-.12-.5.48-.94.25-.1-.22-.49-.34-.37-.67.39-.21.73-.53,1.22-.36.74-1.08.34-3.01.48-4.49-.16-.11-.27-.39-.54-.4.02-.88-.29-1.98-.82-2.82-.49-.18-.34.43-.67.53-.22-.06-.44.1-.55-.12.12-.44.29-.76.68-1.08-.08-1.15-1.4-1.13-1.93-2.13-1.75-.09-2.7-2.03-4.69-1.53-1.52-.58-3.78-.19-5.53-.56-.85,1.08-1.8-.37-2.63-.06ZM292.35,164.36h.38s0,.28,0,.28h-.38s0-.28,0-.28ZM290.85,159.99h.27s0,.39,0,.39h-.27s0-.39,0-.39ZM290.09,152.18l-.23.27-.16-.39c.16,0,.33-.05.38.12ZM288.2,148.08c.28-.1.38.12.54.29.16.33-.23.27-.39.38-.22-.17-.37-.5-.15-.66ZM287.62,157.39c.05.11-.06.22-.12.27l-.27-.28c.06-.16.33-.16.39,0ZM284.99,151.96c-.38,0-.32-.5-.15-.66.16.06.43.45.15.66ZM287.19,134.22h.27c-.06.17.1.45-.12.55h-.16s.01-.55.01-.55ZM287,119.84c-.23.32.37.45-.01.66h-.27c-.05-.23.07-.5.29-.66ZM310.33,228.91c.22-.1.61-.32.51-.65-.6-.34-1,.64-1.43-.03-.94.47-.86-1.01-1.69-.31-.76-.4-1.63-.75-2.11-1.47l-.22.21c-.33.21-.5.21-.82-.02.08-.99-1.04-.24-1.41-.69l.51-.65c-1.03-.52-1.89-1.47-2.97-2.04.01-.49-.42-.83-.74-1.17-.82-.13-1.08-.96-1.84-1.25-.8-1.17-2.58-2.36-3.32-3.75-.32-.39-1.26-.25-.91-1.06-2.03-2.4-3.73-4.97-5.1-7.63.23-.6-.25-.94-.63-1.33l.4-.54c1.65-.4,2.41-2.31,3.91-3.21.01-.71.9-1.08,1.35-1.67.33-.1-.09-.71.4-.65-.32-.67.57-.81.41-1.42,1.27-.47.37-1.86.88-2.62-.38-.17-.55.21-.83.26-.69-.84.89-.64.96-1.46-.23-1.87.76-4.76-.63-6.21.26-1.75-1.57-1.19-2.2-2.24l.77-.26c-.64-1.11-2-1.36-2.69-2.31-.44,0-.29.54-.67.53-.31-.83-1.32-.08-1.69-.7-.73.64-1.59-.25-2.42.22-.45.65-.93.04-1.54.19-.96,1.08-2.59.49-3.22,1.91-.16-.06-.44.1-.55-.12-1.12,1.13-2.33,1.27-3.46,2.56.26.44-.51.76.09,1.04.9-1.08,2.24-1.82,3.34-2.18.45-.7,1.49-.24,1.98-.34,1.05-.47,1.74.86,2.62.72.64.78,1.62,1.35,1.82,2.29.87.24-.08,1.04.74,1.33-.62.92,1.12,1.73.11,2.47l.48.56-.33,4.88c-.4.6.18,1.65-.59,2.07.48.72-.68,1.03-.31,1.86-.62.75-.86,1.79-1.75,2.32-.64,1.52-2.3,2.09-3.47,3.11-1.3-.58-1.83,1-2.93.98-.87-.29-1.71.4-2.64.33v.38c.82-.04,1.29.69,2.23.43.52-1.14,1.24.9,1.71-.35l1.66,2.01c.1.28.1.5.54.4.22.12.05.39.1.55.98.35.46,1.77,1.67,1.63.15.77,1.17,1.84,1.93,2.02l-.29.49c.54.56,1.01,1.34,1.83,1.52-.42,1.47,1.4,1.07,1.82,2.29.64,1.06,2.15,1.97,3.07,2.92.71-.09.86,1.01,1.57.86.57,1.39,2.15-.34,2.5,1.37,1.1-.31,1.56,1.3,2.73.55.58.89,1.92-.01,2.51.88,1.37.08,2.97-.16,4.16.36.39-.43,1.43-.24,1.98-.12v.17c.56-.48,1.43-.19,2.14-.23ZM294.8,190.86v.27s-.39,0-.39,0c-.16-.28.29-.54.39-.27ZM293.83,192.33l-.23.27-.27-.28.28-.27.21.28ZM293.15,188.36c.16,0,.33-.05.38.12.05.11-.06.22-.12.27-.22.05-.33-.23-.27-.39ZM293.32,198.24c-.06.16-.45.37-.66.1-.05-.39.55-.26.66-.1ZM289.64,193.28l.21.28-.23.27-.27-.28.28-.27ZM285.19,216.12l-.16-.17c.12-.27.61-.26.66.01-.12.27-.33.1-.5.15ZM231.63,183.18c.06-.11.33-.16.28-.38-.16-.33-.49-.23-.82-.29-.73.92-1.91-.32-2.38,1.05-.49-.01-.71-.23-1.05.2-1.01,1.08-2.63,2.3-3.54,3.6.2.88-1.12.96-.7,1.96-1.45.9-.11,2.47-1.12,3.54.11,2.58-.45,5.42.21,7.8-.11.05-.17.32-.39.27v.22s.16,0,.16,0c.03,1.26.38,2.75.02,4.12,1.03.41.25,1.32.07,1.81.92.57.14,1.21.23,1.98.87.51-.62.97.24,1.49.16.39.25,1.1-.03,1.32-.85-1.17-2.16-1.75-3.12-2.87-.86-.73-2.07-.7-2.82-1.6-.83.37-1.08-.79-1.57-.86-.5.1-.88.2-.95.8-.22-.06-.55.1-.65-.18.12-.27.4-.54.67-.64-.14-1.1-1.52-.91-2.05-1.86-.75-.84-1.21.25-1.86-.21.19-1.15-1.35-1.18-1.94-1.85.03-1.43-1.48.02-1.67-1.35-.71.04-.97-.9-1.69-.7-.75-.78-1.56-1.35-2.6-1.37-.36-1.21-1.59-.03-1.56-1.35-.44-.06-.7-.45-1.2-.3-1.09-.19-.56-1.99-1.78-1.36-.14-1.1-1.64-.42-1.56-1.35l-4.77-5.1c-.37-.72-.13-1.65-.72-2.27-.15-.5.29-.71.41-1.03l-.38-.28.39-.38c-.42-.89.73-.75.69-1.47-1.84,1.55-4.09,3.7-5.28,5.7-.73.7-.58,1.47-.43,2.35-1.07,1.02.28,2.26.2,3.41.78,1.83,2.62,3.35,4.36,4.05.65.29-.07.55.14.94,1.09.24,2.06,1.03,2.7,2.03.32.61-.75,1.58.34,1.98-.17.22-.5.43-.4.81.11-.05.22.06.27.12l-.39.38c.09.77-.37,1.75.33,2.26-.61.26-.35.87-.41,1.31-.73.59.19,1.21-.04,1.97-.63.98.11,2.53-.73,3.39.26.66-.69,1.36.35,1.6.26.72-.41,1.09-.69,1.58.04.88-.21,1.97.05,2.64-.89.64-.48,2.02-.45,2.9-.94.47-.19,1.37-.43,1.97-.83.48-.09,1.64-.71,2.23.31.89-.58,1.31-.81,1.96.53.89-.58,1.36-.6,2.18-.22.21-.4.49-.67.53.25,1.32-1.46,1.45-1.65,2.6-.78.7-2.66,1.04-2.79,2.19h.38c2.43-.65,3.58-3.26,5.37-4.87.17-.22.72-.1.56-.54-.22-.06-.55.1-.66-.12.44-.27,1.01-.86,1.56-1.06l1.14-2.06c.06-.33.29-.71.67-.75l.13-.93c.89-.53.14-1.26.97-1.84-.47-1.16.86-1.74.44-2.74h.11c.34-.59-.03-.99.31-1.58l-.76-.13c.62-.7.53-1.85,1.09-2.39.06-.11-.05-.17-.1-.22-.11-.06-.22.05-.28.1-.11-.11-.32-.23-.27-.39.17-.16.28-.38.56-.37l.02-1.1c.5-.21.4-.7.41-1.14-.33,0-.66.04-.82-.29l.56-.37-.04-3.02c-.11-.06-.22.05-.28.1l-.27-.28c.78-.7.81-1.9.61-2.9.95-.69-.07-1.65-.11-2.47,1.06-.8-.79-1.61.21-2.24,1.47.8,2.54,1.98,3.89,2.83l.23-.38c.43.34.75,1.06,1.3.96.87.29,1.63.69,2.39,1.26.42.83,1.53.53,2.07.81.09.94,1.41.91,1.66,1.9l1.22-.8c.65.29-.24.82.25,1.05.42,1,1.41.69,2.06,1.25.25,1.27,1.93-.29,1.67,1.24h.55c.6.25-.12.5.09.89.72-.15,1.03.57,1.58.69.81.46,1.33,1.79,2.21,1.64l2.04,1.91.17-.16.21.28c0,.22.15.44-.12.55.21.33.7.51,1.03.79.53.94,1.5,1.73,1.53,2.83.42.67.85,1.34,1,2.11-.37,1.91.75,3.25.27,5.17,0,.33-.61.42-.4.87-.12.38.15.66.54.56.22-.21.07-.6.13-.93,1-.36-.25-1.16.69-1.58.09-1.42.93-2.18,1.01-3.66-.76-.51.29-.87.14-1.42-.64-1,.86-1.46.33-2.35-.38-.12-.18.55-.67.37-.22-.11-.05-.33-.1-.55.12-.33.51-.54.78-.64l.09-4.33c0-.44-.8-1,.03-1.32l-.27-.28c.69-1.41-1.52-.69-1.38-2.12.73-.75-.86-.79.03-1.48h-.11c-.09-.88-.39-2.1.28-3.02l-.38-.39c.25-1.31.1-2.3.73-3.39h-.38c-.48-.46-.14-1.27-.23-1.88,1.06-.8-.28-2.2.72-3-.05-.44.13-.98-.08-1.32.34-.71-.12-2.09.45-2.9-.47-.89.97-1.85.06-2.52.51-.54.74-1.41.7-2.07.11-.05.23-.33.39-.27v-.27c-.16.05-.26-.17-.37-.23.36-1.2.93-2.23,1.28-3.43.91-1.41,2.12-3.96,4.42-3.86ZM193.48,193.28h-.27c-.16-.23.23-.55.39-.22.05.11-.06.16-.11.22ZM197.08,196.82c-.43-.23-.1-.44.01-.66.39-.1.49.34.76.51-.12.38-.5.43-.77.15ZM203.93,207.78l-.1-.66c.16,0,.33-.05.38.12.1.28-.12.38-.29.54ZM205.58,204.74c-.11,0-.17.11-.28.16v-.55c.12.06.17.22.28.17v.22ZM206.55,203.22c-.05-.11-.16-.22-.27-.17.11-.16.4-.76.67-.37.16.33-.23.38-.4.54ZM208.25,203.26c-.27-.11-.65-.45-.64-.67.39-.16.55.18.81.4.05.11-.11.16-.17.27ZM210.33,206.16c-.44.1-.44-.12-.54-.4.17-.27.5-.26.66.02,0,.16.05.33-.12.38ZM213.58,208.2l-.15-.5h.55c.16.35-.28.34-.39.5ZM219.87,214.05l.17-.44.21.28c-.06.16-.22.16-.39.16ZM226.38,187.41h-.27s0-.39,0-.39h.27s0,.39,0,.39ZM107.86,211.46c.05.39-.13.71-.4.93,1.64.31.05,2.91,2.2,2.3-.12.49-.72.37-.95.75.53.83,1.33,1.78,1.36,2.94.44.06.15.88.64.78.43.28.81.73.63,1.33.69,1.28,1.16-.52,1.88-.62.27.28.48.62.47.94-.29.65-.66-.07-1.04-.02,0,.22-.28.38-.4.54l.64.78c-.17.11-.12.27-.12.38,1.09.3.84,1.77,2.04,2.02.09,1.1,1.89,1.3,2.47,2.47.16,0,1.05-.14.76.51.42.78.98.19,1.58.58.05.22-.12.38-.28.49.66.01,1.03.57,1.69.59-.52,1.2,1.15.3,1.47.8,0,.17-.11.22-.17.27l.27.28c1.12-.91,1.28,1.62,2.51.6.37.72,1.31.25,1.97.43.43.39,1.53.53,2.08.32,1.91.37,4,.47,5.92.51l.94-.36c.05.11.27.17.27.39.33.12.55-.15.78-.37.05.11.33.17.27.39.33.17.44-.27.67-.37.87.46,1.22-.47,1.99-.51.37.72.72-.2,1.15-.08.66-.04,1.65-.13,2.15-.61.98.57,1.38-.41,2.26-.61,1.15.19,2.22-1.27,3.7-1.13,1.12-1.07,2.61-1.37,3.46-2.83,1.38-.35,1.36-2,2.42-2.86.44.06.93-.03,1.2.46l-.56.48c.31.99,1.61,1.57,1.81,2.56,1.39-.68.74,1.44,1.85.97.8,1.17,2.08.37,2.71,1.76,1.11-.42,1.63.75,2.51.55.41,1.33,1.6-.29,2.06.98.55-.04,1.47.75,1.98-.23.32.23.26.61.64.84,1.22-.74,2.58-.22,3.96-.19.22-.21.39-.43.67-.54.05.17.32.23.26.45.39-.32.99-.25,1.54-.24.71.02,1.18-1.07,1.88-.62.4-.76,1.09.19,1.33-.63,1.31.36,1.99-.78,3.04-.98.73-.86,2.32-.88,2.68-1.92.94-.15,1.61-.84,2.39-1.27.28-.43,1-.58.85-1.19.44-.1.68-.81,1.17-.74.83-.42.91-1.35.87-1.96-.39.21-.89.53-.96,1.02-1.29,1.29-3.12,1.96-4.67,2.92-.55.1-.76-.24-1.21.25-1.09-.35-1.77.51-2.86.21-.47,1.25-1.08-.9-1.6.35-1.2-.36-2.48.66-3.28-.46-.72.15-1.22.47-1.98.07-.53-.73-1.58-.31-2.35-.44-1.15-.02-1-1.78-2.39-.98-.36-1.05-1.49.19-1.51-1.08-1.09-.3-1.89-1.58-3.16-1.11l.56-.54c-.26-.72-1.18-1.07-1.84-1.36.35-1.14-1.61-1.46-1.09-2.66-.26-.66-.98-.24-1.3-.58-.43-.5.19-1.09.03-1.54-.27,0-.39.21-.56.37l-.54-.56c-.1-.33.28-.43.45-.65-.38-.45.03-1.37-.62-1.61.18-.54-.25-1.21-.62-1.71-.04-.82.14-1.59-.39-2.09-.26-.77.46-.81.85-1.19.92.62,2.57.66,3.57.08.21.33.99-.09,1.03.41h.27c.23-.7.82.02,1.43-.18.17-.16.18-.6.5-.43.42.78,1.59.31,2.4.49,2.04-.45,4.19-.68,6.44-.68.66.07,1.54-.13,2.15-.61l.11.17c.82.07,1.59-.02,2.1-.61.26.44.82.18,1.2.24.18-.76.93.18,1.22-.47.99.02,1.72-.79,2.66-1.15.83-.48,1.62-1.17,2.76-.87.44-.27,1.21-.36,1.34-.85-.65-.18-1.43.24-2.09.45-1.38.19-2.71.76-4.12.3-.68,1.03-1.8-.37-2.37.39l-5.38-.12c-.62.65-1.09-.41-1.87-.04l-.12.66c-.44.15-.59-.73-.93-.29-.47-1.16-1.16.47-1.69-.42-.62.7-1.42-.36-1.98.34l-7.24-.32c-.76-.35-2.21.83-2.51-.71.99-.31-.09-1.04.85-1.41l-.43-.39c.17-.11.23-.32.44-.26l-.26-.78c1.01-.86-.11-2.75,1.39-3.26l-.82-.18c.46-.92,1.24-1.73,1.54-2.71.29-.76,1.35-1.34,1.2-2.11.28-.38.73-.97,1.23-1.02.39-.1.72-.53.4-.92,1.11-.47,1.96-1.88,2.96-2.3,1.2.58,1.52-1.67,2.65-.88.62-.92,1.54.03,2.27-.72.49-.04,1.04.24,1.54-.24.55.12,1.43-.24,1.58.42.29-.71,1.27-.19,1.87-.34.36,1.05,1.43-.3,1.69.69,1.59-.13,2.65,1.76,3.34,2.87.47,1.05.12,2.03.76,3.04l-.28.27c.31,1.1-.77,2.56.31,3.52.33,0,.76.18.94-.2-.36-1.21.33-2.79-.47-3.85-.15-.61.35-.87.58-1.3-.51-1.6-.32-2.86-.28-4.73.07-.49-.75-.78-.25-1.21-2.42-2.19-5.47-.89-8.64-1.34-.62.75-1.59-.2-2.16.83-.93-.08-1.81.02-2.64.33-.56.54-1.33.63-2,.89-.92-.46-1.12,1.24-1.99.62-.79,1.03-2.37.5-2.9,1.91-1.99.45-3.18,2.62-4.69,3.58l.37.56c-.72.31-1.33.79-1.9,1.39-1.22.41-1.31,2-2.53,2.74l.38.39c-.9.86-1.64,1.99-1.77,3.25-1.05.36.3,1.21-.69,1.58-.07.55-.02,1.04.35,1.43l-.17.16c-.39.16-.99.03-1.31-.3,0-.33.56-.43.46-.81-.67.37-1.33.74-1.78,1.28-.88.04-1.39.85-2.11,1.27-.94.31-1.46,1.56-2.4,1.7-.22.21-.67.37-.57.76,1.37.3,2.9.17,4.33.2.63-1.25,1.13.85,1.87-.18,1.88-.67.02,1.48,1.17,1.84-.23.43-.94.36-.68.92,1.25.52-.25,1.31.18,1.98.92.62-.25,1.64,1.05,2,.1.39-.45.43-.46.76.32.56.96,1.34.78,1.99.93.29.14.99.74,1.5.49-.04.34-.54.57-.81.11,0,.27,0,.38.17.2.77-.35.98-.8,1.41.1.44.47,1.11,1.01,1.34-.23.54.42.72.64,1.06-.52,1.03-1.14,1.79-2.19,2.37-.72.2-1.33.79-2.11,1-.67.48-1.5.63-2.37.61-.45.7-1.32.14-1.72.9-.66.21-.48-.5-.92-.68-1.4,1.34-3.52.53-5.45.54l-.89.75c-.21-.39-.43-.61-.81-.79-.76-.46-1.21.03-1.98.07-.52-1.22-1.42-.47-2.34-.71-.32-.61-.98-.46-1.41-.8-.74,1.19-1.14-.63-1.97-.32-.74-1.17-1.38.46-2.25.06-.81-.46.4-.76.14-1.31-.55.21-.75-.89-1.31-.41-.31-.94-1.87.23-1.68-1.08-.77-.02-1.13-.9-1.67-1.35-.33-.06-.77.15-.93-.29.17-.05.11-.22.12-.38-.6-.01-1,.64-1.55.73-.81-.68.84-.64.52-1.42.06-.33.02-.88-.48-.67-1.29-1.24-2.19-2.85-2.81-4.4l-.56.37c.4-.87-.54-.56-1.02-.85-.04-.49.67-.53.79-.86-1.03-.35-.29-1.76-1.27-2.17.41-1.14-1.11-1.78-.71-2.76-.38-.17-.45.37-.78.37-.75-.78,1.01-.8.81-1.68-.11.05-.16-.06-.27-.17.12-.6-.3-1.27-.24-1.82l-.48-.67c.89-.48-.58-1,.31-1.48.07-.82.47-1.53-.5-2.1.11-.22.56-.32.4-.65.4-.7-.13-1.37-.06-2.25.11-.22.56-.32.4-.65-1.31-.52.96-1.02-.35-1.6l.39-.38c-.42-1.05.92-1.79.45-2.9.29-.49.57-1.14,1.08-1.68-.1-.39-.71-.23-.48-.78,1.28-.85.99-2.72,2.44-3.51-.08-1.32,1.68-1.72,1.77-3.09.23-.43.67-.37.94-.53.44-2.35,3.06-2.07,4.31-3.97.38.17.94-.31.95-.8,1.47.36,2.28-1.43,3.54-1.08.46-.92,1.64.2,2-.89.91.95,1.82-.62,2.63.06v.11c.54.12.45-.48.84-.64l.38.39c.6.12.51-.7,1.06-.75.91,1.06,2.64-.33,3.28.84.65.4.73-.59,1.32-.36.2.99,1.1-.2,1.47.69.84-.59,1.14.79,1.96.7.32.61,1.47.58,1.29,1.35.22.11.33-.1.5-.26,1.24.96,1.65,2.4,2.72,3.52-.29.76.47,1.16.18,1.98,1.09.57.08,1.48.39,2.37.87.46-.2,1.53.62,1.99-.4.71-.6,2.51.04,3.13.66-.15,1.28-.96,1.63-1.67-.86-.68.1-2.08-.76-2.76l.45-.37c-1.57-.8.79-1.19.05-2.25-.53-1.05-.06-2.31-.36-3.58l.45-.37c0-.27-.33-.17-.43-.39.12-.49-.14-1.1.47-1.31-.19-1.43.56-3.23-.57-4.24-.55-.12-.97-.9-1.58-.42-.68-1.72-1.61,1.01-2.24-.6-.82-.07-1.54.02-2.1.5-.53-1-1.8-.42-2.62-.61-.68.97-1.46-.86-1.99.51-.16-.22-.43-.34-.43-.56h-.22c-.35,1.14-1.26.02-1.98.34-.46.98-1.31-.36-1.77.62-1.31-.52-2.05.94-3.3.2-.57.98-1.43.13-2,.89-.45.32-1.2-.14-1.54.35-.93-.08-1.45.85-2.26.61-.95.75-2.05,1.11-3.05,1.63-1.03-.52-.9,1.13-1.88.78-.06.16.16.28.27.39-.39.43-.54-.29-.93-.13-.4.92-1.77.67-2.4,1.65-.89.69-1.95,1.44-2.57,2.19-1.05.47-2.45,1.43-2.69,2.52-1.88.62-1.15,2.39-2.98,3.23.15.66-.79.86-.8,1.46-1.16.41-.47,1.64-1.37,2.22-.13,1.09-.64,1.85-1.1,2.72.53.83-.46,1.03-.7,1.69.37.72-.8,1.24.07,1.87-.61.43-.07.88-.69,1.3.32.5-.75,1.79.62,1.61.1.44-.45.43-.67.64.2.94-.49,2.29.21,3.13-1,.36.3,1.49-.7,1.96.66.07.09.77.64.95-.02,1.1-.1,2.25.59,3.03ZM167.77,224.88h.22s0,.28,0,.28h-.22s0-.28,0-.28ZM156.89,223.06c-.17.11-.23.32-.44.27l-.21-.28c.12-.27.33-.1.66.01ZM154.53,197.6c.12-.33.52-1.31.94-.36l-.28.27-.16-.17c-.11.16-.28.38-.5.26ZM132.83,231.65c.05.11-.06.16-.12.27l-.16-.28h.27ZM119.2,217.14v.39c-.12.05-.23-.06-.28-.17l.28-.21ZM116.89,215.11c.16.22.6.4.48.78l-.11.11-.64-.67.28-.21ZM134.32,175.31l.11.11-.22-.11h.11ZM111.32,190.84c0,.33-.34.49-.51.65-.11-.17.07-.77.51-.65ZM110.55,213.66c.33,0,.71.07.54.51-.12.27-.33.1-.55.15v-.66ZM108.38,204.77v.38s-.67-.01-.67-.01c.06-.11-.05-.17-.1-.28.17-.16.84-.97.77-.09ZM107.6,205.69h.27c-.06.11.05.17.11.23h-.38s0-.23,0-.23ZM257.43,79.03l-.48-.4-.56.65c-2.38.83-4.42,3.8-6.33,5.68.16.44-.33.27-.5.48-.63,1.36-1.59,2.55-1.79,4.08-1.1.2-.52,1.36-.7,2.07-.83.48-.09,1.75-.7,2.13-.23.43.32.56.37.89-.89.58.01,2.03-.88,2.51.76.29.25,1.32.4,1.98.98.19-.41,1.03.63,1.33-.41,1.36.29,1.93.98,2.93-.46.92.79,1.44,1.27,2,.09.71.96,1.45,1.55,2.01.98.19,1.66,1.79,3.1,1.22,1.09.57,2.91.17,4.22.53l.39-.43c1.1.02,2.04-.29,2.93-.81,1.09.41,1.28-.96,2.26-.61.23-.71.99-.14,1.17-.8.78-.59,1.41-1.51,2.44-1.26.08-1.04,1.56-1.28,2.13-2.04.66.12.46-.87,1.06-.8.35-.93,2.06-1.16,1.92-2.43.94-.42.53-1.58,1.73-1.28l-.1-.66c.17-.22.39-.32.66-.26l.13-1.04c.12-.55.72-.48,1.06-.64-.9-1.39,1.51-1.34,1.65-2.6-.21-.33-.7-.51-.53-.94,0-.22.23-.32.44-.26.05.17.27.23.21.39.11-.05.17-.16.28-.1.13-.88-.73-1.66-.22-2.36.61-.15.37.67.92.51-.09-1.1-.27-2.53.35-3.67-.81-.62,0-2.09-.6-2.92.24-1.15-.72-1.99-1.53-2.78-.22.1-.06.33-.12.55,1.61,1.74.01,4.45.63,6.43l-.39.38c.76.57-.4.92-.03,1.59-.56.65-.53,1.58-1.09,2.23.08,1.26-.81,1.74-1.11,2.99-.67.7-.86,1.63-1.53,2.33-1.59,2.44-3.67,4.7-6.33,5.79-.39.27-.74,1.25-1.33.63-.29.76-1.27.41-1.72,1.06-.16-.06-.44.1-.49-.18-1.18,1.46-2.75.49-4.41.73-.47-1.11-1.66.4-2.07-.87-.38-.06-.61.15-.94.14-.75-.84-1.62-1.13-2.04-2.18-.61.1-.36-1.05-1.19-.68-.58-.89-1.55-1.95-1.09-2.93-.16-.28-.39.05-.55-.01-.43-.39-.25-1.21-.07-1.7-.81-.46-.02-1.54-.61-2.1.13-.82-.3-1.54.43-1.97l-.65-.29c-.05-.22.17-.27.28-.38l-.54-.56c.17-.11.28-.38.56-.37-.65-.45.13-.88.14-1.31.55.12.78-.48,1.32-.25,2.46-2.2,5.41-3.83,7.49-6.26.48-1.75,2.48-2.8,1.87-5.01-.45-2.2-3.15-1.55-3.73-.08ZM248.2,99.79c-.11-.06-.22.05-.28.1v-.66c.13-.05.18.11.29.17v.38ZM252.09,102.4h.22s0,.5,0,.5h-.22s.01-.5.01-.5ZM256.93,84.06c-.52,1.03-1.58,2-2.04,2.97-.73.92-2.21.67-3.05,1.64l-1.04-.02c-.31-.99.53-1.74.44-2.52,1.16-.52.48-1.91,1.37-2.6-.15-.44,1.06-.86.97-1.52.85-1.19,3.29-2.29,3.8-.47.2.99-.37,1.64-.44,2.52ZM163.92,263.55l.39-.43c-.19-1.43-1.53-2.61-2.84-3.08-.99-.13-1.61,1.06-2.54.6.12-.66,1.05-.47,1.5-.9-.49-.18-1.15-.19-1.59-.04-.47-1.22-1.44.79-1.86-.42-.33-.12-.55.21-.78.37-.66.1-1.21-.08-1.69-.42-.34.71-1.32.25-1.98.34-.78.7-1.6.35-2.53.22-.62.7-1.65.24-2.48.33-.66.21-1.29,1.12-1.87.23-.51.59-1.27.41-1.88.78-1.6.51-.52-1.27-1-2,.72-.53.31-1.75.44-2.62.67-.42-.13-1.76.71-2.24-.41-1.27.8-1.35.33-2.52.56-.32.19-1.04.69-1.41.14-1.48,1.27-2.77,1.79-4.19.5-.21.19-1.26.84-.91.44-.15.06-.44.13-.77l2.58-2.58c.77-.04,1.33-.57,2-.89.83-.53,1.49-.52,2.38-.99,2.03.1,4.4-.35,5.51,1.55-.19,1.04.28,2.37-.45,3.17.26.72-.63,1.14-.31,1.69,1.32-.14.65-2.07,1.65-2.87-.64-.95,1.33-.79.7-1.96.17-.11.28-.38.5-.37l.31-1.7c-.48-.72-1.24-.96-1.84-1.25l-3.29-.18c-.45.7-1.38.24-2.09.34-.35.82-1.33.36-1.61,1.01-.22.05-.44-.06-.66-.12-.36,1.36-1.99.51-2.67,1.64-.83.26-1.5.85-2.28,1.27-.34.27-1.06.58-.9,1.19-1.95,1.16-3.19,3.06-4.71,4.73.31.83-1.44.68-.47,1.47l-.67.37c-.18.76-.59,1.85-1.21,2.61-.23.43.04.88-.57,1.2.3,1.21-1.03,2.06-.57,3.5-.99.31.3,1.49-.86,1.74l.54.5-.28.27c-.12.27.1.39.26.55l-.4.49c1,2.16-1.74,1.61-2.58,2.58-.8-1-1.27.52-2.26.34-.63,1.08-1.49.24-2.27,1.05l.09-4.23c-.7-.73.05-2.08-.71-2.65.24-.98-.57-1.6-1.16-2.38-.49-.4-.94.2-1.3-.58-.33-.06-.71-.02-.78.37-1.21-.03-2.49.93-3.33,1.9-1.77.79-2.75,2.63-3.93,4.03-1.09,2.01-2.12,4.18-2.88,6.25l.38.28c.05.22-.06.44-.12.66.16.22.38.28.65.23-.04-.55.68-.75.41-1.42.57-.81.54-1.91,1.1-2.72-.3-1.32,1.08-1.57.99-2.78,1.01-1.24,1.82-2.76,3.1-3.61,1-.53,1.19.9,1.95.98-.4.92.62,1.6.61,2.48.59.84.05,2.69.74,3.75-.18.82-1.29,1.07-1.9,1.66-2.04.61-4.32,1.88-6,3.55.77.13,1.44-.68,2.27-.88,1.51-1.23,3.6-1.35,5.05-2.53.65.34-.13.71.08,1.21-.07.66-.32,2.02.39,2.26l-.56.48c.16.33.04.77.25,1.05-.22.16-.34.43-.56.43l.26.5c-.61.43.02,1.43-.59,1.85.03.99-.05,2.14-.28,2.9-1.1.25.14,1.21-.85,1.41-.18.82-.48,1.75-.55,2.51-1.11.8-1.2,2.11-2.2,2.81-.52,1.03-1.56,1.01-2.3,2.09-.83.31-1.81.18-2.75.22-1.31-.47-.94-2.32-2.32-2.03v-.27c.12-.11.18-.33.4-.27.18-.6-.25-.94-.35-1.43-.04-.55-.19-1.43-.51-1.99,1-.58-.96-1.12.31-1.59-.1-.39.24-.98-.25-1.21-.21-.44-.09-1.1.31-1.42-.91-.9.48-1.75.06-2.91-.05-.39.62-.76.02-1.04.83-.31.08-.93.31-1.47.89-.42-.08-1.16.7-1.69-.47-1.33.92-2.01.73-3.28.46-.92,1.19-1.73,1.49-2.71-.14-1.32,1.48-2.22,1.67-3.53.45-.32.79-.97,1.34-1.01,0-.22-.27-.33-.37-.56-1.23,1.18-2.63,2.52-3.92,3.76v.38c-.79.59-1.08,1.57-2.03,2.21-.19,1.09-1.46,1.67-1.38,2.88-1.44.52-.59,2.02-1.76,2.71.1.66-.25,1.42-.7,1.96.05.17-.12.44.1.55l-.5.48c.25.99-.59,1.8-.34,2.9-.4.71-.43,1.91-.06,2.63,0,.38-.45.32-.67.53.76.46-.07.82-.03,1.43.64.89.34,2.26.2,3.3.87.46-.14,1.26.73,1.72-.06.38.09.88-.14,1.2.82.18-.08,1.21.74,1.33.2,1.05,1.56,1.52,1.81,2.67.12-.27.33-.1.5-.15,1.02.95,1.92-.01,3.06.5.51-.76,1.34-.9,1.84-1.44,2.51-1.81,4.87-4.5,6.73-6.82-.14-.99,1.67-.9.98-1.95.28-.38.67-.53,1.06-.64.08-1.26,1.25-1.95,1.39-3.26.51-.54.63-1.36.97-1.85-.42-.83.9-1.19.43-2.19.83-.09.08-1.15.69-1.47-.31-1.1.91-1.68.33-2.74.72-.42.31-1.59.43-2.35.32-1.97,2.82-.82,3.89-2.06.6.07,1.48.03,2.09-.34,1.5-1.06.3,1.27,1.01,1.45.15.5-.34.32-.51.54-.35.82-.09,1.87.22,2.53-.56.32-.3,1.04-.85,1.41.49.12.59.62.53,1.05-1.16.47-.08,1.32-.43,2.13-.9.86,0,2.53-.9,3.38l.38.28c.16.33-.18.55-.4.76-.18.93.9,1.61.5,2.26-.11-.17-.27-.12-.38-.12v.66c-.68.59-.48,1.42-.34,2.19-1.06.58-.2,1.7-.88,2.51.35,1.44-.65,1.96-.29,3.4-.72.37-.4.87-.47,1.47-.29.76-.75,1.79-.94,2.72.96,1.06-1.51,1.17-.32,2.24-.17.11-.23.32-.39.27.1.44-.89.69-.19,1.04-.13.87-.8,1.46-1.2,2.22.41,1.22-1.09,1.95-1.16,3.1-.9.97-1.42,2.22-2.26,3.03-.42,1.75-2.45,1.81-3.37,3.33-.6-.07-.73.86-1.33.63-.95.91-2.21.83-3.22,1.52-.6-.34-1.33.57-1.86-.04l-.23.38c-.86-.73-1.16.25-2.14.06-.25-.94-1.47-.36-2.24-.54-.27-.23-.48-.72-.86-.68-.98-.57-2-1.31-2.86-2.2.51-.65-.37-.83-.63-1.33.06-.16-.1-.39.12-.49l-.38-.39c.47-1.25-.78-1.77-.21-2.91h-.38c.15.6-.29.92-.42,1.41.75,1,.06,2.53.41,3.69.27.17.32.45.26.66-1.08,1.62,1.21,2.22,1.24,3.76.92.62,2.06,1.2,2.99,1.38.81.51,2.24.38,3.45.46.45-.59.88-.04,1.33-.63.93-.04,1.66-.73,2.49-.99.59.62.45-.65,1.1-.25.95-.86,2.17-1.16,3.07-2.18.82-.04.85-1.24,1.73-1.17,2.7-2.96,5.39-5.54,7.82-8.78.85-1.3,1.65-2.49,2.44-3.9.14-1.59,1.54-2.66,1.68-4.3.46-.92.85-1.35.98-2.34.3-1.04.59-2.13.84-3.17,1.05-.47-.3-1.49.7-1.96-.25-1.32.65-2.18.35-3.56.94-.53-.13-1.81.71-2.35-.26-.55.64-1.52-.35-1.82.28-.32.99-.31.79-.92-.17.05-.22-.17-.38-.28.74-1.03.33-2.63.47-3.94.52-1.42.29-3.18.38-4.71l.39-.27c-.15-.88.42-1.47.04-1.97.61-.21-.04-.55.18-.93.77-.15,1.39-1.01,2.26-.5.62-.75,1.92.04,2.65-.6l8.67.08.92.4c.68-1.14,1.03.63,1.97.04,1.14.63,2.16,1.47,3.24,2.32-.23.71.31,1.05.46,1.6-.29.93.56,2.21-.28,3.01.47.94-.97,1.74-.49,2.51.88-.26,1.02-1.3,1.52-1.94-.42-.89.47-1.25.32-2.13.72-.48-.23-1.93.65-2.35.02-.77.2-1.75-.56-2.1ZM111.09,280.19c-.27-.06-.59-.84-.87-.18-.06.22.1.44-.18.54h-.38c.23-.55.91-1.47,1.61-.91-.06.16.1.44-.18.54ZM113.07,274.8h-.66c-.05-.4.44-.22.66-.27v.27ZM128.06,269.58h-.27s.01-.66.01-.66h.27s-.01.66-.01.66ZM130.01,265.28h-.38c-.1-.34.4-.77.67-.38,0,.22-.23.27-.28.38ZM129.87,264.24v-.55c.4-.1.28.28.44.45-.11.16-.28.1-.44.1ZM138.12,278.63h-.22s.01-.5.01-.5h.22s-.01.5-.01.5ZM140.3,269.18h-.22s0-.39,0-.39c.11-.05.16.06.22.17v.22ZM156.97,259.94h-.22c.06-.06.11-.17.22-.11v.11ZM163.28,262.44c-.39.16-.32-.23-.43-.39l.28-.27c.27.17.1.5.15.66ZM120.67,258.39c.05.17.22.11.38.12.06-.33.67-.48.57-.92-.44,0-.78.48-.95.8ZM203.29,250.02c.99-.2,1.62-1.28,2.4-1.92,1.03.41.4-.65,1.33-.63.68-.81,1.67-1.17,2.46-1.92.54.45.95-.86,1.54-.24.79-1.08,2.15-.67,3.31-.7.27.23.43.5.81.4.42-1.8-1.64-.09-2.1-1.75l-.11.11c-.39.16-.55-.18-.76-.4-.49-.17-.72.26-1.11.36.01-.49-.31-.89-.63-1.33-2.5-.93-4.36.95-6.19,2.12-1.66.84-2.41,2.53-3.81,3.76-1.29,1.23-1.82,2.76-3.11,4.1.26.66-.95.75-.41,1.31-1.43.24.06,2.36-1.37,2.38-.28.32-.57.87-.3,1.31-.89.47-.97,1.52-1.48,2.33-.2,1.42-1.37,2.44-1.4,3.92-1.38.57-.04,1.92-1.26,2.61l-.27-.28c-.16-.22-.15-.66.18-.76,0-.38.07-.88-.36-.94.68-.97-.75-1.06-.23-2.15-.97-.95-.72-2.43-1.63-3.44.3-1.2-1.79-.97-1.05-2.38-1.91-.7-1.15-2.6-2.77-3.74.18-.87-1.08-.79-.9-1.61-.27-.17-.42-.67-.81-.57-.53-1-1.33-1.79-2.31-2.41-.33-.17-1.03-.74-.36-1.05-1.99-1.74-4.2-3.6-6.48-5.02-.71.04-1.53-.2-1.99.62-1.25-.52-2.02,1.99-2.76.87.36.94-.79.92-1.13,1.57-1.43.08-1.74,1.66-2.9,2.13-.56.65-1.51,1.28-1.91,2.1-.99-.02-.41,1.14-1.35,1.29-.12.66-.35,1.14.13,1.7,1.23-.96,1.81-2.65,3.32-3.77.6.23.84-.86,1.33-.36.91-1.46,1.52.8,2.63.33,1.18,1.12,2.88,1.49,3.88,3.1,1.2.58,1.87,2.18,3.13,2.43-.4.76,1.02,1.12.89,1.89,1.09.13,1.17,1.56,2.2,2.13.78,1.77,2.45,3.62,3.3,4.96l-.11.16c.15.83,1.67,1.35,1.27,2.22.38.28.37.67.36,1.11.7.73,1.34,1.62.88,2.65.81.51-.15,1.7.72,2.21-1.44.74,1.34,1.46-.16,2.25.42.83-.53,1.74.72,2.16.1.66-.66.21-.78.75-.17.33.21.44.37.67.26.45.08,1.16-.41,1.31-.23.43.26.66.2,1.05.2.77-1.04,2.5.49,2.81-.07.55-.94.53-1.23.85l.54.56-.56.54c.25,1.16-.98,2.17-.95,3.27-.88-.02-1.29,1.23-2.17,1.27-1.12.91-2.7.65-3.82,1.62-.22-.06-.55.1-.65-.18-.62.54-1.61.95-1.25,1.84.6.07.89-.58,1.44-.52.5-.43,1.27-.14,1.87-.18.22-.21.45-.54.78-.42.51-.98,1.42.41,1.88-.62,1.75.15,3.58-.36,5.55-.1.56-.26,1.39-.68,1.98-.12.49.12,1.47.47,1.82-.23,1.42.47,2.83.94,4.48.75.27.34.59.51,1.03.46.73-.81-1.07-1.12-1.11-2-1.96-.65-4.22-.09-6.19-.41-.94.53-2.36-.11-3.3.42-.66.15-1.87.29-2.14-.16.5-.43,1.11-.58,1.61-.9,1.7.26,3-1.86,4.65-1.71.68-.86,1.73-1.23,2.18-1.93-.11.05-.22-.12-.27-.17.06-.38.29-.76.68-1.03-.62-1.93.92-4.37-.7-5.83.23-.27.61-.43.83-.37-.09-.83.26-1.81-.22-2.47.12-.55-.52-1.27.31-1.58.12-.38-.15-.55-.37-.83-.05-.33.02-.71.4-.76-.31-.83.14-1.48-.34-2.26,1.06-.69-.22-2.47.95-3.27.14-1.37.88-2.78,1.57-4.03.18-.6.69-1.41,1.09-2.12-.2-.83.91-1.24,1.08-1.79-.04-.72.8-1.35.98-2.12,1.23-1.24,1.87-2.7,3.37-3.44-.08-1.32,1.71-.46,1.08-1.84ZM204.32,245.43v.27s-.39,0-.39,0c-.05-.22.23-.33.39-.27ZM171.49,245.77c-.17.05-.27-.23-.21-.39h.22s0,.39,0,.39ZM172.02,246.44v-.39c.12-.05.17.06.28.12l-.28.27ZM173.03,248.05l-.1-.28h.27c.05.12-.11.22-.17.28ZM183.08,253.15c-.16-.11-.1-.28-.1-.39.22-.11.39-.43.66-.15.16.44-.39.38-.56.54ZM183.73,258.27l-.22-.22c.06-.16.22-.16.39-.16,0,.16,0,.33-.17.38ZM187.61,281.84c-.22,0-.32-.23-.26-.44h.27s0,.44,0,.44ZM188.27,281.86l-.15-.44c.11,0,.22.12.27.17.05.11-.06.16-.12.27ZM189.96,269.88h-.38s0-.28,0-.28h.38s0,.28,0,.28ZM192.74,275.59h-.27s0-.39,0-.39c.11-.05.16.06.27.17v.22ZM192.68,270.76l-.21-.28c.06-.16.22-.16.39-.16,0,.17,0,.33-.17.44ZM193.18,267.97h-.27s0-.28,0-.28h.27s0,.28,0,.28ZM201.37,247.35c-.05-.22.34-.38.39-.1-.06.16-.22.1-.39.1ZM202.29,248.03h-.27s0-.28,0-.28h.27s0,.28,0,.28ZM270.25,163.38c.91.9,2.79.5,4.05.47l.38.39c.78-.48,1.13.96,1.59.14-.1-.22-.1-.5-.48-.39-.6-.29-.26-.72-.25-1.16-.54-.4-1.14-.52-1.68-.86-2.25-.1-4.29.35-6.59.13l-.45.37c-.44,0-.89.37-1.31-.14,1.45-.96,3.28-1.69,4.67-2.53.62-.7,1.39-.63,1.63-1.56.83-.2.29-.71.19-1.2.62-.59.48-2.08.17-2.85.62-.7-.02-1.81.33-2.41.08-.99-.73-1.77-.21-2.75-1.68-.8,1.13-1.4-.34-2.26l.39-.27-.54-.51c.06-.38.24-.71.57-.92.07-.6-.37-.78-.75-1.06-.1-.66.78-.31.79-.92-1.53-.47.85-1.24-.34-1.87.13-.77-.29-1.93.43-2.35-.7-.67-.25-1.32-.34-2.26.83-.26-.09-.88.41-1.31-1.25-.74.63-1.25-.23-2.09-.04-.6.86-1.85-.23-2.26.95-.69.53-1.63.5-2.62-.15-.5.9-.86.14-1.31.51-.81.21-2.03.34-3.01.61-.26.23-.71.3-1.2.18-.54.78-.7,1.17-1.02-.48-.61-1.31-.08-1.6.51-.71.04-1.11.8-1.83.89-.62.81-1.94.73-2.18,1.65-1.11.58-2.33,1.27-3.18,2.29-.76,2.18-.38,4.93-.54,7.34l.37.45c-.01.49-.02,1.04-.41,1.42.42.72.81.4,1.41.69.2.72-.89.8-1.34,1.29.1.5-.41,1.03.24,1.43l-.39.43c1.09.46-.51.76-.03,1.43.65.4.35,1.6.17,2.25.71.13.24-.93.95-.8.76.46-.4.87-.41,1.2.05.33-.02.71-.4.76l-.11,5.05c-1.55.79,1.28,1.56-.44,2.35.73,1.61.03,3.73.37,5.55l-.51.65c.42.67-.25,1.37-.59,1.8.1.5-.35.82-.57,1.2-.72.31-1.45,1.18-2.22.99-.88.2-1.62,1.17-2.65.6-.83.37-1.88.67-2.28,1.54.67-.32,1.48-.08,2.1-.5,1.15.19,1.94-.73,3.02-.21.51-.54.77-.09,1.32-.08.68-.86,1.7.04,2.42-.22.68-1.14,1.47.58,2.2-.23.48.83.78-.37,1.32-.08.11.06.22.17.16.28.43.28.99.08,1.32-.36ZM271.55,151.78l-.28.27.02-.77c.16.11.38.28.26.5ZM271.51,140.75c.31.72-.83.42-.52,1.14-.22-.17-.71-.07-.54-.51,1.09.41.07-.77,1.06-.64ZM271.13,135.85c0,.22-.28.32-.45.54l-.09-.94c.22,0,.32.28.54.4ZM270.4,131.12c.11-.05.22.06.27.12.05.11-.06.16-.12.27h-.17s0-.39,0-.39ZM267.16,136.43h.38s0,.39,0,.39c-.28.1-.49-.18-.38-.39ZM266.29,151.17c.11-.05.16.06.27.12v.27s-.28,0-.28,0v-.38ZM266.49,154.85v.27s-.39,0-.39,0c-.05-.22.23-.32.39-.27ZM266.25,152.98l-.28.27-.1-.39c.16,0,.33-.05.38.12ZM265.77,149.84c.16.06.16.22.16.39h-.16s0-.39,0-.39ZM107.95,146.26c-.31,1.53,1.54,2.34.85,3.86.15.66,1.08.74,1.12,1.45-.12.27-.39.21-.5.43l.73,1.55c-.51.65.31,1.05.63,1.5-.06.27.1.61-.13.77.32.39.86.9,1.4,1.07.05.33-.28.21-.39.43-.12.49.15.83.36,1.16-.07.6.3,1.27.9,1.72.1.44-.36,1.25.36,1.33-.35.93,1.19.85.62,1.88.97.57.67,2.05,1.93,2.13,2.77-1.04,5.33-2.85,7.52-5.22h.38c.68-1.02,1.31-2.27,2.53-2.85-.2-.66.74-1.19.97-1.68-.11.05-.16-.06-.27-.12-1.06.8-2.31,2.75-3.74,2.94-1.16.36-1.79-1.19-2.6-1.65l-.11.11c-.47-1.22-1.05-2.38-1.9-3.44l.11-.11-.38-.28c-.03-1.1-.78-2.05-.87-2.93-1.31-.47-.07-1.81-1.38-2.28.13-1.09-.23-2.26-1.25-2.94l.4-.49c-.42-.72-.57-1.55-.99-2.27.3-1.26-.99-2.22-.86-3.59-.81-.62.09-1.43-.89-2,.51-.7-.79-1.33-.33-2.37h-.38c-1.04-.14.29-.55.13-.94h-.11c-.48-.51-.41-1.33-.78-1.83-.28.16.09.93-.51.76-.27-.12-.1-.44-.15-.66,1.54-.35-.24-1.71.59-2.07v-.27c-.54-.34-.46-1.16-1-1.61.11-.11.17-.33.39-.27.07-.66-.47-1.11-.62-1.71.48-1.8-.81-3.09-.28-4.73-.16-.22-.15-.5.12-.66.36-1.31,1.37-2.28,2.43-3.24-.66.04-1.39.79-2.11,1.11-.07.55-.78.53-1.06,1.02-.52,1.31-2.07,1.6-2.97,2.84-1.51,1.45-2.76,3.45-3.13,5.37-1.03-.52-.67-1.99-1.26-2.83-1.05.14-.53-1-.62-1.6-.32-.45-.96-1.28-1.29-1.18-.07.66.8.95.62,1.71.76.57-.3,1.04.24,1.6-.34.65.57,1.66-.32,2.24-.01.66-.08,1.26-.31,1.8-.56.7-.53,1.64-1.09,2.34.14,1.1-1.4,1.07-.98,2.23-.74,1.03-1.3,1.78-2.15,2.75.64.89-.73.86-.97,1.52-.08,1.26-1.2,2-1.77,3.04-.5.43-1.06.8-.97,1.52-.94.42-.64,1.58-1.63,1.83.09.77-1.23,1.13-1.25,1.95-1,.42-1.78,1.22-2.78,1.64-.46,1.14-1.88.45-2.12,1.55h.49c.73-.96,2.2-.16,2.93-1.13.96,1.12-.91,1.24-1.37,2.22.31,1.1-1.54.3-.69,1.47l-.77.2c-.12.38.32.56.48.83.11.22-.12.38-.29.49-.54-.51-1.18-1.4-1.94-1.74-.47-1-1.79-1.03-2.32-2.03-1.04-.02-1.51-1.46-2.6-1.37-.48-.67-1.92-.26-1.67-1.46-.45.37-.93-.18-1.2-.41-.18.54-.72.09-1.05.2-.76-.35.34-.6.19-1.04h-.16c-.5.15-1.31-.14-1.57-.81-.51.59-.59-.62-1.15-.3-1.1.09-1.44-1.84-2.34-.98-.36-.94-.83.09-1.32.25-.16-.17-.43-.28-.43-.56.17-.22.44-.26.66-.2v-.55c-.81-.18-1.46-.64-2.04-1.36-1.27.58-.41-1.33-1.69-.7.24-1.15-1.2-.25-1.29-1.07-.27,0-.6-.07-.83.09-.31-1.1-1.62-1.35-2.15-2.13.18-.93-.87-.35-1.07-1.07.3-1.09-1.39-1.57-.6-2.65-.1-.55-.7-.67-1.02-.95-.15-.55.5-.26.67-.53-.47-1.27.02-3.24-.28-4.73.39-.27.45-.59.13-.93.3-1.09.98-1.96,1.65-2.87.63-1.3,1.91-2.04,2.87-3.07,1.33-.63,2.51-1.87,4.1-1.89.52-1.03,1.47.36,1.99-.62.44.12,1.21-.3,1.31.41l.79-.81c.72-.2.98.52,1.58.47.68-.97,1.15.3,1.98.04.42,1,1.53.36,1.95,1.36.71.13,1.02,1.06,1.45,1.35.12-.33.34-.54.24-.93.4-.65.93.07,1.09.41l-1.12,1.18c.7.67.73,1.66,1.04,2.49-.52,1.25.78,1.99.32,3.03-.39.43-.4.76-.19,1.2.2.72.19,1.21-.26,1.86,1.24.96-1.12,3.65,1.35,3.71,1.6-.4.42-1.8.99-2.78-.92-.57-.35-1.43-.34-2.2-.78-1.88-.07-4.34-.41-6.38-.81-.62,1.12-1.18-.07-1.81.06-.05.11-.22.22-.16.03-1.26.07-3.24.1-4.83-.27-2.86-2.99-1.11-4.68-1.86-.68,1.08-2.36.11-3.04.76-.27,0-.6-.01-.82-.18-.84.64-2.26.22-2.88,1.14-.33,0-.6.04-.82-.13-.79.86-2.15.34-2.94,1.36-.99-.08-1.99.89-2.67,1.81-.33.16-.32-.28-.48-.45-1.39.74-2.78,1.81-3.91,2.99-.77.2-.34.71-.69,1.3-.27-.06-.49-.01-.66.2-1.04-.08-.63,1.25-1.62,1.45-.08.93-1.27.52-1.08,1.57.49.39,1.33-.41,1.87-.23,0,.27-.07.49-.29.65-.82-.07-1.18,1.29-2.1.61-.29.6-.47,1.25-.86,1.79-.89.37.24,1.49-.97,1.85.05.33-.12.71.14.94-1.05.36-.2,1.53-.87,2.07.37,3.14-.08,6.04,1.96,8.49l-.17.11c-.18.55.42.72.64,1.06.21.66,1.07,1.4,1.27,2,1.06,1.83,2.87,1.71,3.66,3.54,1.17-.69.96,1.45,2.07.7.22.17.27.39.26.66.21.22.48.61.76.29.59.84,1.75.37,2.22,1.47.84-.59,1.02,1.17,1.96.7.85,1.23,2.51.88,3.13,2.43l.67-.48,1.29,1.18c.38,0,.68-.97,1.05-.25-.52,1.36,1.36.74,1.66,1.9,1.1-.31,1.61,1.9,2.5,1.1l.2.83c1.21-.03.68,1.44,1.83,1.47-.03,1.37-1.3,1.95-2.15,2.86-1.13,1.35-2.96,2.3-4.3,3.31-.88.2-1.61.68-2.38.99-.4.6-1.31-.14-1.61.62-1.59-.25-2.2.45-3.68.36-.42-.89-1.59.02-1.96-.87-.99.25-1.3-.91-1.95-1.36-.05-.28.07-.6-.26-.77-.29.49-.14,1.53.23,2.09-.97,1.68,1.74.64,1.38,2.28,1-.53,1.67,1.63,2.62.44l.27.28c.55-.1,1.09.24,1.71-.24.69.84.88-.31,1.6-.35.77-.26,1.87-.4,2.66-1.15,3.37-1.24,5.69-4.38,8.7-6.62.81.4.41,1.33,1.28,1.73-.29.76.92.57.63,1.33-.62.81,1.08,1.01.62,1.99.98.35-.41,1.2.62,1.6-.06.27.1.66-.18.87.7.67.34,2.04.22,2.64.36,1-.16,2.3-.18,3.45-.72.42-.19,1.37-1.08,1.68.47,1.27-.97,1.68-.88,2.73-.87-.18-.68,1.08-1.45,1.07-.24.82-1.18,1.4-1.91,2.15-.73.86-2.17,1.22-2.68,2.3-1.97-.26-3,1.86-4.77,2.15l-.26-.67-.68.81c-.71-.35-1.27.52-2.09.17-.68,1.14-1.86-.1-2.44,1.05l-.48-.56c-.23.33-.08.99-.68.92-.1-.28-.6-.01-.54-.4-2.41-.16-4.28.02-6.68-.58-.32-.61-.98-.46-1.47-.69-.47-.94-1.43.3-1.96-.7-.61.48-.86-.84-1.52-.69-.22-.17-.49-.34-.53-.67-.17.05-.44-.12-.55.15l-1.5-1.62c-.17.16-.39.21-.55.26-.48-.5-1.02-1.01-1.17-1.62-.38.05-.89.53-1.15-.13l.11-.16c.12-.38-.15-.77-.47-.89-.12.38-.34.71-.68,1.03l-.64-.67.9-1.19-.38-.39c.24-1.04-.8-1.17-1.11-2-.08-1.48-1.93-2.29-1.4-3.98-.65-.23-.09-.99-.74-1.22.97-1.52-1.1-2.33-.58-3.69l-.39.38c-.22.05-.27-.17-.43-.23,1.72-.73.67-2.84,1.02-4.2.45-.54.68-1.19.59-1.85.17-.11.28-.38.5-.37v-.27s-.38,0-.38,0c-.33.16-.43-.28-.37-.5-.05-.44.44-.21.66-.26.91-1.3,1.87-2.65,3.1-3.61.17-.38-.21-.39-.37-.56,0-.16-.05-.33.12-.38.39-.16.6.18.81.4.88.07,1.44-.52,2.11-1,.49-.04.99.08,1.48.14.29-.93,2.02.32,1.56-1.01.72-.37-.09-1.04-.08-1.59l-2.52-.05c-2.33.94-4.66,2.2-6.41,4.47-.55.15-1.11.69-1.07,1.29-1.31-.19-.8,1.46-1.9,1.66-.24.76-.85,1.35-1.09,2.12-.56.37-.52,1.2-1.08,1.68.05.33-.13.71.09.94-1,.42.41,1.38-.8,1.68-.41,1.03.96,1.06,1.17,1.89l-.28.21c-.39.16-.49-.4-.81-.4.04.66-.79.86-.03,1.48-.62.7-.48,2.13-.17,3.01-.36,1.53.49,2.81.18,4.23.16.17.49.34.48.67.48.67.23,2.04,1.05,2.22.64.67.73,1.55.83,2.38l.66-.2c-.18.71.79,1.33.89,2.1,1.21-.25,1.07,1.12,1.83,1.63,1.26-.14,1.33,2,2.6,1.48.46,1.33,1.84,1.08,2.59,2.03.48.51,1.11-.36,1.58.31.15.72,1.04.3,1.53.42.37.78,1.31.14,1.74.7,1.11-.47,1.84,1.08,2.74.06.27.17.26.44.37.67.27.12.39-.1.55-.26.6.12,1.37-.13,1.8.31v-.11s1.98-.23,1.98-.23c.89-.53,1.69.42,2.42-.33.66-.15,1.48-.13,2.1-.5.05.17.32.23.27.39h.38c.24-.97,1.27-.46,1.99-.61.39-.32.95-.8.8-1.3.28-.05.38.17.54.29.44-.04,1.04.24,1.32-.24.87.35,1.11-.58,1.61-1.01,1.09.57,1.39-.9,2.37-.61.89-.64,1.95-1.22,2.57-2.3l.76.4,5.94-5.63v-.27c1.28-.69,1.81-2.16,2.71-3.23,1.63-1.67,1.4-3.65,2.86-5.32l-.11-.17c-.05-.28.01-.49.23-.65-.42-1,.92-1.74.72-2.62l.45-.37c0-.22-.21-.28-.27-.39.52-1.09.11-2.63.47-3.83l-.27-.39c-.6-.23-.88.31-1.33.52-.22-.17-.26-.44-.26-.66.61-.32,1.12-1.13,1.78-.89.25-1.37-.44-2.26-.2-3.57-.59-.62-.41-1.55-1-2.11-.31-.99-.45-1.99-1.26-2.66-.54-.51.52-1.14-.41-1.33,1.19-1.79,2.93-3.67,4.34-5.45.92.46,1.61-.84,2.25.16,1.07-1.07,2.75-.05,3.96-.3l.39-.38c1.75.2,3.24-.2,4.79-.55,1.33-.63,2.66-1.26,3.99-1.89.34-.38.68-.86,1.33-.63,1.12-1.13.37.83,1.4,1.18ZM119.27,158.25c.16,0,.33-.05.38.12.05.11-.06.22-.12.27h-.27s0-.39,0-.39ZM112.6,139.28v.27c-.28.1-.55-.18-.54-.56.22-.11.38.12.54.29ZM111.36,140.95h.27c0,.11-.02.21,0,.29.04.04.07.07.09.1,0,0,0,0,0,0h0s0,0,0,0c-.06-.02-.08-.06-.09-.1,0,0,0,0,0-.01h-.27s0-.28,0-.28ZM111.76,141.45l.23,1.11c-.5.15-.26-.44-.65-.56-.04-.25.38-.36.42-.54ZM109.9,129.84c.11.22.38.34.37.56-.11.05-.17.16-.28.1l-.38-.39.28-.27ZM109.33,130.76c.27.12.6.4.64.67-.23.27-.61.1-.94.14-.16-.22.23-.54.29-.82ZM108.07,135.61h-.16s0-.39,0-.39h.27c0,.12.05.28-.12.39ZM108.63,132.72c-.17.16-.28.32-.5.26l-.27-.28c.18-.49.49-.04.77.02ZM67.74,117.73c.05.11.16.17.1.28l-.11.16v-.44ZM66.04,117.47h.11s-.01.66-.01.66h-.11s.01-.66.01-.66ZM60.54,120.37h.44c0,.12-.11.17-.17.28h-.27s0-.28,0-.28ZM57.46,123.21c.22-.05.27.17.38.23.05.22-.17.27-.23.43-.16,0-.33,0-.44-.17,0-.27.06-.38.29-.49ZM57.32,137.42l.4-.65c.05.11.27.17.27.39-.17.22-.44.26-.66.26ZM59.63,139.83l1.15.03c-.23.65-1.61.95-1.15-.03ZM66.07,146.28c-.22.05-.27-.17-.38-.28.33-.16.23-.49.24-.76h.27c.27.34.09.78-.13,1.05ZM73.4,147.38c-.11-.06-.43-.45-.1-.66.11-.05.16.06.27.12-.06.22.1.44-.18.54ZM78.86,156.33h-.49c-.05-.34.28-.28.5-.27v.27ZM42.45,159.88c0,.16.05.33-.12.38l-.16-.39h.27ZM38,182.94c-.22,0-.32-.28-.54-.4v-.27c.56-.04.51-.65.69-1.03.76.45-.57.92-.15,1.7ZM58.9,191.02h-.11s0-.39,0-.39c.11-.05.16.06.22.17.05.11-.06.16-.12.22ZM62.83,192.04l-.37-.5h.49c-.06.17.1.4-.12.5ZM64.18,190.48l-.27-.22c.17-.27.46-.87.95-.64-.12.33-.62.54-.68.86ZM68.55,189.26l-.27-.23h.44c-.11.06-.22.11-.17.23ZM68.91,190.36c-.11.05-.16-.11-.22-.17-.16-.44.34-.32.5-.48.16.17-.01.49-.29.65ZM82.7,174.31v-.27c.12-.05.17.11.28.17-.11.05-.17.16-.28.1ZM86.35,165.33l-.02.77c-.27,0-.38-.28-.54-.4.06-.22.23-.54.56-.37ZM106.38,132.83h.16s0,.39,0,.39h-.16s0-.39,0-.39ZM106.25,133.6h.27s0,.28,0,.28h-.27s0-.28,0-.28ZM106.13,144.02c-.35.87-1.04-.24-1.44.63-.77.09-1.86-.37-2.26.34-.65-.4-1.14-.41-1.81-.04-.83.09-1.91-.32-2.42.22-.33.1-.43-.28-.65-.45-.23.6-.94.42-1.32.25l-.21-.28c-1.12.85-2.63-.11-3.86.74-.16-.11-.1-.28-.1-.39,1.1-.2,1.01-1.24,2.01-1.82-.2-.83,1.11-.63.8-1.57,1.01-.86,2.29-1.65,2.15-2.97.6.18.84-.53,1.22-.74.24-.93,1.29-1.45,1.1-2.5.6.12.89-.58,1.34-.9v-.38c.23.06.29-.16.4-.27.08-.93.65-2.07,1.38-2.71-.16-.22-.1-.55-.09-.83.78-.53-.36-1,.04-1.7.77-.04-.42-.94.57-.76-.02,1.1-.22,2.36.59,3.14-.22-.06-.28.21-.44.27.86.62-.09,1.43.78,1.99-.17.38.25.94.46,1.33.33.12.5-.26.83-.09.1.61-.61.32-.84.75.91.9.29,1.98,1.03,2.93-.41,1.09,1.11,1.78.6,2.65.81.4-.3,1.09.63,1.44-.68.86,1.33,1.84-.48,1.75ZM155.16,125.33c.44.12,1.21-.3,1.31.41h.27c1.23-.79,3.07.02,4.35-.56.87.18,1.83-.89,2.36.05.95-.86,2.74.11,3.58-.75.49.28.94-.47,1.31.19-.34.49-1,.64-1.61.73-.13,1.04-1.48.13-1.99.78-.18.55-.61.43-1.05.36-1.17.96-3.17,2.07-3.26,3.72-.46,1.09-.33,2.57-.19,3.73h.11s.13,1.82.13,1.82c-.23.49-.68,1.03-.03,1.48-.12.33.2.83-.3,1.04-.12.49-.47,1.47.24,1.82.21.61-.4.87-.41,1.31.65.62.28,2.04.16,2.91,1.52.86-1.08,1.73.49,2.65-1.78.95,1.17,1.67-.61,2.62.32.34.75.73.25,1.05.36,1.16-.49,2.24-.35,3.56l.43.56c.32.34-.07.82-.46.92l.11,2.64c-.84.75-.05,2.3-1.1,2.83l.37.56c-.72.15-.57.92-1.07,1.29-.74,1.08-1.83.67-2.93.98-1.01,1.19-2.78-.83-3.48,1.13-.58,1.36,1.2.3,1.29,1.18.46-.81,1.59.14,1.99-.73,1.42.52,2.16-.94,3.46-.2.79-.81,2.36.11,3.14-.7l.54.4c.27,0,.6.07.77-.26l6.2.13.27.28c.71-.04,1.48.09,1.97.32-.38-2.81-3.09-1.93-5.11-2.36l-.39.38c-1.37.08-2.96-.28-4.23.18-1.04-.13-2.16.72-3.3.31-.05-.22.12-.38.29-.49.22-.1.33.12.55.12.45-.32.95-.69,1.45-.9,1.26-.08,2.23-1.65,3.61-1.9,1.01-1.13,2.68-2.14,3.09-3.5.28-.49.13-.93-.25-1.32.17-.05.23-.27.39-.21l.16-7.41c-.16-.44-.14-1.1.03-1.59.01-.55.14-1.2-.35-1.54.67-.7.54-2.02.23-2.79.35-1.03-1.35-.8-.9-1.61.55-.15.93.29,1.14.57l.17-.11-.37-.56c.22-.16.28-.38.23-.65-.37-.5-.35-1.76.05-2.36-.43-.61-.12-2.14-.15-3.19.06-.38-.64-.78.02-1.04-.04-.5.14-1.2-.52-1.33.84-.59.52-1.31.43-2.08.89-.58-.01-1.92.88-2.51-.47-1.16.7-1.96,1.49-2.71.33.06.61-.15.67-.42.38-.05.6.18.93.18.84-.8,2.8,0,3.69-.58.77.13,1.99-.62,2.63.06.24-.87,1.21.08,1.44-.79.97.62,1.16-.52,1.99-.45,1.81-.07,2.29-1.76,4-2.05.63-1.03,1.94-.84,2.18-1.93-1.22.47-2.28,1.6-3.6,1.4-.29.87-1.21-.08-1.71.24-2.15.34-4.24.73-6.6.52-.56.54-.82-.29-1.48-.03-.46.76-.82-.13-1.43-.03-.62.75-1.03-.46-1.87-.04-.52,1.2-1.13-.9-1.71.35-.43-.23-1.1.03-1.42-.41l-.28.38-4.22-.26-.51.54-.38-.39c-.56.32-1.47-.75-1.87.34l-.38-.39c-1.09-.35-2.96.05-3.94-.47-.32-.34-.65-.62-.52-1.11.72-.42.74-1.41,1.62-1.5v-.27c-.42-.39-.88.2-1.21.47-.76-.24-.68,1.03-1.44.79-.73.75-2.05.72-2.4,1.92-1.2-.14-1.79,1.44-2.84,1.75-.9.8-1.52,1.67-2.03,2.59l7.4.33.39-.38ZM161.09,155.97v-.49c.12-.05.17.06.28.12.05.22-.23.27-.28.38ZM163.81,152.08l-.28.27c-.33-.17-.32-.67.02-.77.16.11.32.28.26.5ZM168.14,121.66c.16,0,.33-.05.38.12.05.11-.06.16-.12.27h-.27s0-.39,0-.39ZM163.09,124.18c.11-.05.16.06.27.12-.11.05-.17.16-.28.1v-.22ZM154.4,125.04c-.1-.39.34-.54.51-.81.16.11.16.33,0,.44-.17.11-.28.38-.5.37ZM256.42,138.44c.35-.82.91-1.46,1.26-2.22l-.16-.11c.79-.86.31-1.86.5-2.79.74-1.08.29-3.12.48-4.44-1.08-.63-.02-1.43-.61-2.15-.13-1.7-2.02-3.12-3.36-4.41h-.22c-.35-1.66-2.58-.06-2.88-1.49-.17,0-.33-.06-.39.1l-.54-.56c-1.01.86-1.62-1.13-2.53.11l-.21-.28c-3.29-.35-6.25-.25-9.65-.32-.22.21-.78.37-.88-.02-.51.65-1.6.29-2.25.17-.33,0-.73.59-.93-.02-.44.26-.95.8-1.44.41-.64-.95-1.22.41-2.14.06-.27-.23-.42-.78-.92-.57-.9,1.08-2.13-.48-3.4.09-.21-.22-.43-.56-.76-.4-.45.32.21.55.2.88-.28.1-.5.32-.4.65.04.66.75.78,1.18,1.12.99-.14,2.3.38,2.92-.38.49.01,1.31.47,1.54-.19.39-.16.38.23.54.4.33.12.44-.26.67-.37,1.16-.19,2.26-.5,3.58-.36.29-.65.54.18.93.02.83-.42,2.26-.23,3.29-.04.43.34,1.32-.08,1.53.42.99-.2,1.52.97,2.4.6.38.34.83-.15,1.03.41-.17.05-.23.32-.39.27,0,.11-.06.27.1.39.95-.58,1.2.52,1.96.59.7.84,1.63.97,1.82,2.12.81.51.85,1.56,1.49,2.28-.07.82.47,1.22.39,2.09.76.62,0,2.25.6,2.92-.12.49.19,1.16-.31,1.42.48.61.13,1.54.23,2.26-.5.43-.18.71-.3,1.31-.62.81-.43,2.02-1.27,2.77.41,1.16-1.25,1.78-1.49,2.82-.17.27-.39.32-.66.26-.47,1.53-1.7.07-2.28,1.54-2.15.39-4.59-1.14-6.21.63-.12.6.6.4.8.84,1.21.08,2.31,0,3.3-.48,1.81.04,3.65-1.18,5.3-1.59.46-.98,1.7-.13,2.11-1.27.66.12.61-.43,1.33-.36.63-1.19,2.27-.88,2.3-2.31l.37.39c.56-.37.85-1.08,1.46-1.56.45-.37-.09-.77-.36-1.05.29-.93.88-.2,1.33-.63ZM257.18,128.58h.49s0,.29,0,.29h-.49s0-.29,0-.29ZM257.39,131.49c-.27-.06-.43-.34-.65-.45.23-.6.93.08.65.45ZM245.21,121.08l-.1-.39h.22c0,.11.05.28-.12.39ZM249.18,125.39h-.22c-.05-.22.06-.44.23-.44v.44ZM253.17,123.5h-.22s.12-.66.12-.66c.27,0,.1.44.1.66ZM128.22,122.49l.67-.37.27.39.39-.38c.38.06,1.1-.25,1.2.41l.39-.38c1.86.48,2.49-.82,4.34-.34.16.22.49.4.53.67-.39.38-1.15.03-1.76.13-1.23.91-2.83,1.26-3.84,2.55-1.43.02-.42,1.58-1.09,2.23-.18.71-.48,1.86.17,2.47l-.39.38-.12,5.54.82.29c-.12.44-.61.37-.84.75-.06.44.04.82.36.94-.73.81.9,1.72-.43,2.13.68,1.66.19,3.96.25,6.15.7.45-.24.82-.14,1.31l.54.29-.56.54.05,2.74c.43.28-.18.6-.4.65l.38.39c.05.33-.28.21-.39.43l.38.39c-.15,2.03.23,4.45-.51,6.03.48.61-.25,1.31-.05,2.14-1.22.47.85,1.17-.42,1.69.15.61.3,1.54-.16,2.08.3,1.16-.7,1.96-.89,3h.27c.96-1.46,2.62-2.02,3.64-3.32.28-.05.76.18.94-.25.33.12.83-.2,1.04.3.49.07.88-.09,1.32-.25,1.47.53,3.34.24,4.99.38l.28-.27c.6.12,1.38-.19,1.8.31-.05-.11.11-.16.17-.27,2.02.43,3.25-.59,4.9-.55,1.44-.52,2.45-1.43,4.1-1.61,1.4-1.23,3.22-1.74,4.29-3.2.93.18.74-1.14,1.35-1.4-.16-.17-.27-.39-.54-.29-.06.22-.39.32-.29.65-.57.81-1.39.96-2.12,1.38-1.16.14-2.1.67-3.2.97-.55.1-1.38.19-1.99.51-.6-.29-1.22.58-1.53-.31-1.49.46-3.95.08-5.44.16-.99.2-1.68-.92-2.72-.99-.86-.79-1.5-1.51-1.43-2.5-.77-.13-.03-1.15-.63-1.33.62-.75-.52-1.27.31-1.86-.38-.06-.2-.72-.64-.78-.16-.33.29-.49.4-.65l-.21-.28c-.11-.22.12-.33.12-.55-.43-.56-.24-1.6-.06-2.25-.32-.5-.08-1.48-.12-2.2-.21-.39-.59-.78.02-1.1-.19-1.54.62-3.39-.28-4.62l.39-.38c-.09-.77.37-1.91-.33-2.37.28-.21.72-.26.78-.64l-1.03-.41c-.16-.44.39-.32.56-.54-1.03-.63.95-.86.03-1.43-.38,0-.72.2-.94.47l-.38-.39c.12-.71.88-.26,1.17-.74,0-.16.06-.33-.1-.39l.79-.81c.17-.33-.21-.44-.37-.67.2-1.81-.25-3.52.49-4.98l-.38-.28c.67-.7.43-1.97.34-2.9l.39-.38c.08-1.26.44-2.46,1.66-3.09.47,1.27,1.23-.91,1.58.42.23-.38.61-.43,1.05-.36.99-.25,1.78-1,2.77-1.26.57-.76,1.94-.84,1.79-1.72-.62.59-1.49.41-2,1.16-.22-.06-.55.1-.66-.12-1.17.58-2.64.38-3.96.57-.06.22.1.61-.18.76-.44-.12-.43-.56-.75-.78-.44.15-.94.31-1.33.63l-.37-.45c-.39.1-.39.27-.67.53-.33-.06-.48-.5-.81-.57-.52,1.31-1.08-.96-1.6.51-.54-.18-1.54.35-1.69-.59l-1.17.8c-.36-.94-1.54.13-1.74-.7-.44-.17-.51.65-1.05.36-.75-.62-2.24-.49-3.28-.62-.72.09-.41,1.03-1.07,1.18l.54.56c.98.52,2.8.12,4.05.47ZM130.14,142.95h-.27s.02-.94.02-.94h.27s-.02.94-.02.94ZM130.61,139.01h-.38c-.1-.34.17-.17.28-.39.05.17.22.11.38.12.05.17-.12.33-.28.27ZM132.14,159.73c-.11.22-.44.05-.66.1-.15-.5.44-.26.56-.65.22.11.05.33.1.55ZM135.43,149.38c.11-.05.16.06.22.11.1.28-.12.38-.23.54v-.66ZM134.38,142.11h-.11s0-.39,0-.39c.11-.05.16.06.22.11.05.11-.06.16-.12.27ZM134.66,134.49v-.38c.23-.05.28.17.44.23-.11.16-.28.16-.44.16ZM334.76,182.68c-1.76.29-3.34-.18-5,.28-.99-.02-1.86-.15-2.53.33l-.27-.23c-.33-.17-.44.21-.67.37-.55-.12-1.27.52-1.98.07-.33.16-.74,1.25-1.33.63-1.11.69-2.87.87-3.83,2.06-.93-.02-1.66.51-2.28,1.27-.66-.18-.78.53-1.06.86-.65-.34-1.06.69-1.6.62-.25,1.26-1.62,1.28-2.4,1.92-.19.98-1.46,1.45-1.75,2.32-1.28.8-.93,2.12-2.2,2.75.05.28-.01.49-.29.65.09.77-.74,1.14-.92,1.79-.45.43.26.77-.46,1.09-.06.16.21.22.27.39-.9.8-.48,1.91-.72,2.89l-.77-.02c-.6-.34-.31-.77-.52-1.22-.49.04-.51.87-1.05.36-.3,1.09-1.56,1.17-2.12,1.82-1.22.41-2.07,1.71-3.13,2.57-.49-.28-.61.48-1.05.47,0,.16,0,.33.16.44.89-.75,2.26-.23,3.41-.37.51-.76,1.43-.13,1.98-.07.88-.04,1.42.25,2.1-.61l.27.28c-.07.55.19,1.32-.31,1.7.59.78-.17,2.63.58,3.58l-.39.48c1.92-.07-.42,1.53.89,2-.3,1.2.84,1.83,1.15,2.82-.51.59.75.78.46,1.44.76.4.08,1.43,1.01,1.61.9,1.67,2.68,3.02,4.02,4.59,1.08.57,2,1.58,3.25,1.77.64,1.11,1.64.37,2.33,1.37,1.22-.69,1.73,1.36,2.63.33.32.28.87.46,1.02.79.35-.76,1-.36,1.6-.35.54.62,1.54-.02,1.97.32.38,0,.82.02,1.05-.42l.26.55c.28-.16.4-.6.78-.53.56-.48,1.98-.01,2.64-.33,1.27-.25,2.27-.99,3.59-1.07,3.39-2.01,7-3.8,9.76-7.03.01-.49.46-.81.85-1.19-.16-.39.36-1.25-.36-1.21-.63,1.03-1.85,1.94-2.31,2.86-.55-.12-.62.76-1.22.52-1.06,1.02-2.34,1.6-3.72,1.9-.35.87-.88-.02-1.43.24-.95.75-2.47,0-3.47.58-.33.21-.83.09-1.04-.3l-4.06-.09c-.76-.57-1.74-.53-2.5-1.1-.22.1-.34.54-.67.37-.48-.61-1.56-1.63-2.6-1.76-.75-.89-1.57-1.02-2.21-1.91-.21-.22-.93-.08-.64-.67-.53-.78-1.19-.96-1.95-.97l.18-.66c-.69-.95-1.22-1.95-1.8-2.95-.27,0-.17.33-.39.43-.28.27-.66-.01-.93-.19-.21-.61.56-.59.79-.92-.32-.61-.68-1.33-1.28-1.73.24-.87-.29-1.65-.17-2.36-1.19-.63.04-1.76-.49-2.65.83-.42,1.6-.24,2.53-.05,1.05-.31,2.41.16,3.41-.37.54.62,1.09.19,1.7.04.63,1.28,1.5-.68,1.97.48.33.17.39-.27.56-.43l3.4.07c.44.17.84-.8,1.04-.09,1.03.73,1.77-.73,2.53-.22.55-.26,1.58.64,1.98-.23.82.29,1.55-.46,2.08.05.35-.76,1.1.02,1.6-.62.51-.87,1.47.47,1.88-.73.84,1.72,1.06-1.02,2.09-.06,1.02-1.3,2.6-.99,3.72-2.06.56-.26,1.6-.35,1.51-1.12-.38-.12-.56.32-.83.48-.76-.46-.95.86-1.54.35-.84.75-2.42.22-3.57.36-.39.21-.78.59-1.04-.02-.95.58-2.36-.22-3.2.59l-6.03-.29-.67.53c-.5.21-.65-.34-.92-.57-.68.97-2.37.33-3.3.48-.22.22-.18.66-.56.65-.49-.18-.04-.72-.36-.94-.78.42-1.93.23-2.75.05-.39.21-.73.64-1.1.14-.66.1-1.42-.36-2.09.23-.42-.94-1.26.08-1.85-.48-.33.21-.67.53-1.16.41-.41-1.22-.89.58-1.31-.3.23-.65.09-1.48.16-2.25-.05-.39.68-.75.02-1.04l.39-.38c-.21-.44-.56.26-.76-.29-.1-.55.5-.48.78-.64.11-.22-.1-.33-.1-.55,1.02-1.51,1.28-3.37,2.46-4.83-.03-1.32,1.53-2.11,2.31-2.97.19-1.37,1.83-1.06,2.3-2.31.93.02,1.6-.62,2.38-1.1.78-.53,1.61-.62,2.37-.39.19-1.2,1.38-.36,2.26-.61.38.06.78-.59,1.04.02,3.24-.15,5.63,1.06,7.55,3.46.04.88.36,1.33.89,2-.23.38-.08.99-.14,1.48.69,1.22-.46,3.67.83,4.74.44-.15,1.11-.47.68-1.03,1.17-.69-.62-1.72.43-2.35l-.54-.45.56-.48-.38-.39v-8.18c-.46-.89-1.33-1.4-2.32-1.37ZM305.75,209.71l-.27-.28.28-.27.21.28-.23.27ZM340.11,222.03c.05.11-.06.16-.17.27l-.1-.28h.27ZM315.67,225.34c.16.06.44-.1.49.12.05.11-.06.16-.12.27h-.38s0-.39,0-.39ZM312.57,191.25h-.27s0-.23,0-.23h.28s0,.23,0,.23ZM334.86,183.45h-.38s0-.23,0-.23h.38s0,.23,0,.23ZM335.61,186.75v-.38s.28,0,.28,0c-.06.11.05.17.1.28-.11.16-.28.1-.39.1ZM302.02,118.19c-.23.65.58.95-.03,1.48,1.09.19,1.96.76,3.17.56,1.6-.4,3.51-.09,5.27-.11,1.06-.96,3.18.34,3.97-1.01.1.39.71.23.54.67-1.6.46-2.99,1.31-4.44,2.15-.46.76-1.44.41-2,1-.28.16-.83.42-.68.92-.95.58.24,1.65-1.08,1.95-.4.92.79,1.66-.05,2.25.05.22-.12.55.15.66.6.18-.07.66-.29.93,0,.33.65.29.48.78-.72.48-.25,1.59-.43,2.13.55.12.45-.65.95-.64.96,1.06-1.32.36-.59,1.69-.68,1.03-.44,2.68-.3,3.94.71.07.4-.81,1.07-1.02l.48.5-1.74,1.83c.65.62-.31,1.86.77,2.38l-.45.37c.15.55-.9.86-.14,1.31.09.88.35,1.65-.33,2.35.7.67.23,1.93.33,2.64.09,1.1-.27,2.41.21,3.19.1.22-.12.38-.29.54.74,1.39.21,2.8.34,4.45.22.11.33-.1.5-.26.72-.15.4-.76.85-1.13,1.69.69-.46.92-.48,1.8.16.44-.36,1.25.41,1.33,0,.27-.12.44-.18.65l2.31,2.46c-.22.1-.23.32-.39.49-1.54.13-2.95-.5-4.34.18-1.09-.57-2.1.89-3.05,1.53.05.17-.12.44.1.5.52-1.2,1.69.31,2.16-.72,1.25.36,2.15-.56,3.3-.2.9-.8,1.97.1,2.87-.71.44.06.99-.09,1.31.14l-.03,1.21h.44c.16.45.7.79.63,1.34.43.39.08,1.26.74,1.44l.11-.11c.12-.49-.04-.88-.36-1.22.24-1.04-.49-2.54.73-3.11,1.14.74,3.34.29,4.76.49.49.01.81.73,1.31.52.12-.33-.26-.45-.42-.67-1.4-1.4-3.94-.69-5.75-.78-1.08-.63,0-2.36-.87-3.15.33-.21-.09-.83.4-.81-.48-.78-.12-1.92-.21-2.86.89-.47-.09-.99.04-1.59.84-.59-.85-1.39.04-1.86-.04-.6.25-1.31-.35-1.71,0-.33.56-.43.4-.76-.75-.68.46-1.14.04-1.97-.15-.77-.72-2.21.07-3.07.12-.44-.04-.88-.36-1.16.18-.82-.29-1.98.44-2.35v-.27c-.1.05-.16-.06-.21-.17-.16-.33-.31-1.05.14-1.31-1.03-.74.15-1.97-.21-2.86-.21-.22-.65-.18-.65-.56.39-.21.35-.76.68-.92-.09-.99.39-2.9-.31-3.57.72-.53.32-2.08.44-2.84-.22,0-.33.21-.5.37-.22.21-.66.15-.82-.18.12-.33.45-.48.68-.75,1.64.2.19-1.42.87-2.07h.11s.33-2.41.33-2.41h.11c0-.38-.04-.88.3-1.14.62-.65,1.36-1.95,2.29-1.65.52-1.03,1.71-.46,2.49-.77.56-.37,1.23-.96,2-1,.38,0,.39-.43.56-.65-.77-.02-1.28.63-1.99.72-1.14-.46-1.61.84-2.75.38-1.61.62-3.74.25-5.44.1l-.67.42c-.58-1.17-1.38.41-1.97-.32-2.69,0-4.99-.16-7.34-.54-.16-.17-.21-.61-.54-.45-.45.43.32.34.37.67ZM309.68,155.02c-.33-.23-.65-.34-.53-.84.22.11.28-.32.44,0,.16.11.1.66.09.83ZM310.97,161.36h-.38c.17-.11.17-.44.39-.16v.16ZM311.17,151.87c-.11,0-.28.05-.38-.12l.28-.27c.16.06.11.22.1.39ZM311.96,128.07c0,.11.05.28-.12.38l-.27-.28c.06-.16.22-.1.39-.1ZM311.3,135.95c0-.33.51-.59.66-.15-.17.27-.5.32-.66.15ZM311.97,145.57v-.27c.17,0,.34-.05.44.12-.11.16-.28.16-.44.16ZM312.21,129.39c-.16-.06-.44.1-.54-.18.28-.32.61-.48.94-.47.16.33-.28.43-.4.65ZM346.56,276.73c-.02,1.15-1.41,1.83-1.76,2.71-1.29,1.18-3.01,2.13-4.55,2.43-1.58-.64-3.03-2.15-3.49-3.81-.69-.84-.61-2.1-1.48-2.78.68-.86-.69-.95-.9-1.61-.54-.56.52-1.42-.35-1.71.57-.98-1.02-1.07-.61-2.1-.54-.45-.52-1.44-1.06-1.89.06-.16-.1-.44.18-.54-.21-.66-1.25-.8-.63-1.55-1.09-.19.13-1.04-.63-1.5.24-.93-.9-1.56-.61-2.37-1.08-.74-.66-2.32-1.41-3.32.06-.33-.09-.72.19-.93-1.46-1.07-.26-3.24-1.88-4.27l.11-.11c.41-.98-.46-1.38-.45-2.26.4-.92-.74-1.22-.5-2.26.78-.48-.26-.88-.52-1.33-.05-.22.12-.33.29-.49.34-.38.02-.88-.25-1.21.12-.38-.19-1.1.46-1.14l-.27-.28c-.1-.28.12-.38.29-.54-.8-1.22,1.3-1.67.94-2.72-2.2,2.7-6.69,5.02-7.16,8.52-.83.37-.64-.73-1.3-.8-.57,1.03-1.83.78-2.29,1.93-.23.32-1.37-.25-.89.48-.79.81-2.38.99-2.46,2.09.44.06.61-.43.95-.64,1.68,1.19,0,2.8.28,4.62-.01.6-1.12,1.07-.42,1.69-.34.54-.41,1.2-.53,1.85-.56.7-.58,1.63-1.15,2.33-.03,1.48-1.26,2.44-1.4,3.92-.56.48-.52,1.2-1.08,1.68-.2,1.59-1.83.73-2.66,1.37-2.11,1-3.79,2.72-6,3.16v.27c.26.28.7.12,1.03.19,1.01-.86,2.85.12,3.75-.74.55.07,1.21-.08,1.7.2-.23.43-.56.54-.85,1.02.47.94-1.12.96-.7,1.96-1.11.42-.48,1.86-1.58,2.05.31.88-1.28,1.01-.7,1.85-1.12.85-1.08,1.84-2.2,2.7-.81,2.01-2.44,3.79-4.06,5.18-1.59,2.38-3.44,4.43-5.79,6.35v.27c1.37-.24,2.45-1.98,3.89-2.55.87.13.85-1.19,1.72-1.06,3.37-3.49,7.23-7.03,8.92-11.39,1.11-.69.59-2.07,1.76-2.71,0-.27.07-.49.29-.65.13-.99.69-1.74,1.26-2.5.77.13.67-.59,1.06-1.02.6.23,1.1.02,1.59-.08.94-.15,2.36-.22,3.3-.37,1.16-.3,2.21-.83,3.42-.97.3-.98,1.09.41,1.22-.63,1.81.26,2.55-1.26,4.1-1.61.44.12.59.67.53.94.75.84.24,1.71,1.1,2.49-.45.65.86.95.4,1.76.87.51-.19,1.26.84,1.72,0,.44.58,1-.03,1.32l.43.39c1.18,1.45.26,3.19,1.99,4.38l-.56.54c1.19.69,1.27,2.06,1.69,3.17.33.17.33-.21.5-.37.16.06.44-.1.54.18.16.33-.28.32-.39.48.03,1.21.55,2.32,1.36,3.05,1.16-.3,2.06-1.27,3.06-1.91.99-.14,1.79-1.61,2.68-1.92.79-1.14,2.28-1.38,2.69-2.58,1.33-.36,1.91-1.82,2.96-2.57h.39c.69-1.35,2.9-2.18,2.88-3.88-.49-.07-.88.09-1.22.41ZM324.57,262.91v.66c-.18.05-.23-.17-.39-.28.11-.16.07-.49.39-.38ZM318.81,250.16c.16.06.1.22.1.39h-.22s.12-.39.12-.39ZM321.31,269.04c-1.06.58-2.52-.11-3.58.47l-1.32.08c.06-.22-.16-.28-.27-.39-.34.32-.78.48-1.32.36-.53-.89-1.61.68-2.24-.43,1.05-.42.47-1.53,1.52-1.94.24-.76.58-1.63.71-2.24,1.38-.3.04-1.97,1.21-2.5-.15-.66,1.06-.86.47-1.53,1.06-.64.59-2.07,1.48-2.6l-.1-.66c.16.06.22-.21.39-.27-.42-1.05.79-.97.32-1.97.83-.48.52-1.14.81-1.68.06-.33-.15-.77.29-.93l.16-2.25h.27c-.08,1.16.62,1.78.31,3.2.93.35-.19,1.04.63,1.44.59.78-.2,1.59.61,2.26-.46.92.85,1.34.34,2.09.19,1.21.55,2.37,1.25,3.32-.17.21-.12.55-.13.82.77.13.03,1.32,1.02.9.14.99-.37,1.69.33,2.42-.06.22-.17.38-.12.66.16.22.49.39.53.67-1.21.19-2.16,1.05-3.58.69ZM325.92,243.84l-.27-.28c.22,0,.44-.16.44.17l-.17.11ZM326.65,258.07c-.22.05-.27-.17-.21-.39h.22s0,.39,0,.39ZM328.13,275.89c-.11.05-.16-.06-.27-.12-.1-.22.35-.76.56-.37.05.22-.12.38-.29.49ZM330.73,282.8c-.11.05-.16-.06-.22-.12-.1-.28.29-.82.5-.37.1.22-.12.38-.29.49ZM332.95,271.38h-.22c-.05-.17,0-.39.23-.38v.38ZM174.91,95.68c-.13,1.15-.59-.51-1.05.14.04.55-.3,1.37.35,1.6.05.33-.07.66-.19,1.04.66-.04.87.46,1.19.96-.17.33-.5.21-.77.2-.12.55.48.45.64.84-.41,1.2.56,1.82.6,2.92.71.35-.13.98.47,1.33l.39-.43c.44-.21-.1-.44-.2-.66.07-.88-1.28-1.89-.38-2.75l.09-4.22c.84-.64.1-1.97.72-2.73-.36-1.27.71-2.24.9-3.44,0-.27-.32-.39-.54-.51l.17-.16c1.68-1.39,1.67-3.42,3.13-4.93l-.16-.11c.51-.54.63-1.3,1.35-1.56.8-1.68,2.24-2.15,3.26-3.61.93.18,1.12-1.07,2.1-.89.68-1.14,1.84-1.39,2.84-1.91,1-.53,2.26-.44,3.31-.97.22.06.5-.1.66.12.51-.81,1.76.09,2.27-.72l3.29.07c1.55-.46,3.73-.14,5.66-.15l.39-.38c.39-.1.71.07.92.4.55.07.99-.03,1.33-.52l.48.56c.72-.09,1.64.37,2.15-.34.05.11.33.17.27.39l3.02.07c.39-.1.79-.97,1.16-.25-1.59,2.44-5.48,4.55-4.51,8.19-.78.53.34,1.93-.82,2.4,1.2.36-.19,1.31.62,1.82.44,0,.34-.54.51-.76.22-.05.27.17.43.28-.29.93-1.51,1.17-1.64,2.05l.48.39c.21.5-.34.65-.51.92-.02.77.51,1.88-.05,2.36-.12.49.15.83.25,1.21-1.44.52.47,1-.2,1.81-1.06.58.36,1.22-.04,1.98-.78.53-.09,1.75-.71,2.4.66,2.65-1.14,4.31-2.22,6.1-1.16.41-1.91,1.82-3.48,1.24-.35,1.03-1.2-.36-1.55.63-1.05.14-2.27.66-3.32,1.03.36,1.05,1.22-.41,2.08.05.4-.81,1.43-.02,1.88-.62.82.02,1.7.04,2.2-.39,1.54-.08,3.34.4,4.62-.28.11.17.32.23.27.39l.55-.21c1.31.47,2.96.23,4.44.32l.43.45c.17-.05.38.12.5-.15l-1.66-1.85-2.63-.22c-.57,1.03-1.37.08-2.26.34-.39.1-.79.97-1.16.25.24-1.04,1.61-1.01,1.75-2.05l1.74-1.55c-.21-.66.89-.75.69-1.41.89-.42-.08-1.26.96-1.46.3-1.09.28-2.79.85-3.77-.6-.29-.31-.88-.36-1.32.52-1.14.22-2.57.36-3.83.61-.26.24-.71.02-1.04l.39-.27c-.69-1.06.59-1.8-.21-2.91.52-1.36.29-3.23.37-4.6-.28.1-.61.48-.77-.02l1.46-1.4c-.05-.28-.48-.61.02-.82-.08-1.32.22-2.68.36-3.78.4-.71.79-1.03,1.46-1.45l11.75.04.27.23-.56.54c.05.33.38.17.37.56-.61.43.13,1.81-.71,2.34l.54.4c-1.12.85-.06,2.8-1.01,3.55-.08.93.66-.15.92.51-.22.21-.39.49-.67.53l-.32,1.97h-.11c-.4.87.68,1.49-.21,2.24.53.83-.69,1.58.11,2.36-.79,1.03-.21,2.08-.62,3.28-.57,1.03,0,2.85-.64,4.05.32,2.97-.76,4.81-.38,7.4-.61.48-.4.81-.47,1.58-.34.71-.97,1.63-.54,2.35.3-1.37,2.13-2.09,2.54-3.4.83-.53.86-1.68,1.37-2.6.45-.54.04-1.76.71-2.34l-.38-.39c1.05-.47-.3-1.49.7-1.96-.2-1.05.43-1.91.33-2.74.83-.15.08-1.15.69-1.47-.07-1.65,1.22-3.05,1.8-4.57-.11,0-.28.05-.38-.12,1-.36.85-1.35,1.09-2.12,1.33-.47,1.14-1.84,1.93-2.7.72-.09.69-1.36,1.46-1.67l.27.39c-1.33.46.34,1.87-.98,2.23,1.25.41-.41,1.09.35,1.71-.06.05-.11.16-.22.1l-.05,2.41c-1.01.91.46,1.44-.06,2.63-1.01.91.12,1.98-.07,3.13-.62.86-.66,2.46-.07,3.29-.45.65-.48,1.69-.05,2.36-.13.77-.21,1.97.16,2.53-.08,1.1.56,1.99.59,3.03.5-.21.6.4.92.4,3.5-1.85,6.1-5.25,8.64-8.48l-.27-.28c-.94.36-1.46,1.4-1.91,2.21-1.11.69-1.76,2.76-3.45,2.01-1.14-.41.03-1.32-.89-1.83-.58-.89.22-2.36-.59-3.2l.2-9.22c1.16-.3-.48-.89.41-1.31-.12-2.14.4-3.56.4-5.64,1.05-.42-.3-1.43.69-1.69-.1-.55.31-1.53-.07-1.98-.61.48-1.71.57-1.74,1.55-1.27.58-1.25,1.84-2.47,2.58-.57,1.08-1.58,2-2.15,3.08-.58,1.36-2.19,2.53-2.45,4.17-.55.04-.52.98-1.07,1.18-.59-.4.07-.82-.14-1.32.4-.54.58-1.52.32-2.24.95-.53.2-1.7.44-2.63.84-.86.11-2.36.73-3.28l.07-3.29c.89-.64.04-1.7.33-2.35.4-.76,1.22-.8,1.88-.51,1.17-.63,2.8-.21,3.81-1.23.71.34,1.17-.63,1.98-.34.73-.86,1.88-.56,2.66-1.26,1.04.13,1.67-1.12,2.54-.88,1.39-.79,2.99-1.25,4.11-2.44,1.61-1.01,3.68-2.66,4.6-4.62-.31-.72.58-1.25.32-2.08-.87-.51.09-1.7-.61-2.15-.04-.66-.3-1.32-.79-1.72-.78.48.31.88.13,1.43-.83.42.13,1.43-.59,1.96.36,1.21-1.23,1.18-.82,2.4-.99.31-.8,1.41-1.8,1.94.31.83-.96,1.35-1.47,2.05-.65-.29-.34.54-.78.64-1.67,1.06-3.06,2.02-4.94,2.53-.3.98-1.2-.36-1.6.62-.88.2-1.82.56-2.75.21-.51.81-1.75-.09-2.27.72-.64-.67-1.91-.43-2.79-.34-.86-.73,1.36-2.17-.04-3.02.72-.2.3-1.15.42-1.69h-.38c-.17.04-.33-.12-.27-.29,1.11-.36.97-1.57,1.37-2.22-.34-2.09.74-3.55.78-5.47,1.05-.47-.3-1.49.7-1.96.45-.54-.2-.94-.35-1.33.84-.7.87-1.96,1.11-3.05,1.38-.46.15-2.08,1.1-2.72.24-.98.65-1.91,1.27-2.72.28-.43-.03-1.21.69-1.3v-.66c.97-1.08,1.49-2.38,2.18-3.52,1.17-.69,1.97-2.04,3.14-2.95.6.07,1-.64,1.34-1.07.93.13,1.06-.86,1.99-.84.13-.77,1.1-.09,1.44-.63.7.45,1.01-.86,1.87-.4.57-1.09,1.2.57,1.82-.18.6.29,1.38-.57,1.59.25.44,0,.93.18,1.32-.08.86.62,1.89,1.3,2.31,2.3l.28-.27c-.05-.39-.37-.61-.53-.94-.37-.89-2.83-1.21-1.48-2.5-.54-.56-.45.37-.94.36-.76-.4.29-.65.3-1.04l-.92-.84c-.46.92-2.19-.21-2.82.98-1.14-.52-1.72.9-2.65.6-.84.8-2.11,1.05-3.06,1.91-.95.75-2.12,1.38-3.17,2.07-2.63,2.14-4.67,5.06-7.19,7.47.36,1.27-1.73,1.39-1.1,2.5-.62.59-.91,1.63-1.37,2.44l.16.17-.45.48c-.29.65-.47,1.42-.7,2.13-.51.76-.53,1.8-1.1,2.61.64.95-.63,1.36-.71,2.18,1.08.63-.36,1.2-.04,1.98-.74,1.25.43,3.03-1.13,3.82.16.28.59.4.53.78-.17.11-.23.32-.45.27l-.15,1.86c-.56.76,0,2.14-.61,2.73.76.57-.3.98-.14,1.59l-9.76-.21c-.63-1.28-1.5.79-2.08-.32-.38-.12-1.2-.41-1.43.24l-.27-.28c-1.43.02-3.07-.18-4.33-.2-1.37-.25-3.52.31-4.77-.1-.57,1.19-1.57-.75-2.26.34-1.86-.37-3.47.47-5.01.66-.61.37-1.92-.21-2.27.88-.69-1-1.44.46-2.21.5-1.36-.47-.74,1.41-2.16.72-.73.59-1.61.84-2.39,1.27-.06.22.1.55-.12.66-.27,0-.38-.28-.54-.4-1.07,1.18-2.78,1.42-4.01,2.55-.89.53-1.73,1.23-2.67,1.64l-4.43,4.4c-.45.7-1.07,1.4-1.37,2.22-.83.53-1.02,1.35-1.53,2.05.27.12.1.44.15.66l-.83.09c.05.39.65.29.42.83-1.39.63-.16,2.41-1.17,3.27.43.5,1.07,1.34,1.44,1.84ZM227.01,92.47c-.16-.06-.43-.45-.15-.66.39-.16.32.23.43.39l-.28.27ZM235.38,93.31c-.05-.33.17-.16.28-.38-.06.11.05.17.16.28-.11.16-.28.1-.44.1ZM237.55,92.32c.27.33.09.77-.19,1.04h-.22c-.1-.45.07-.88.41-1.04ZM231.86,68.48h.38s0,.28,0,.28h-.38s0-.28,0-.28ZM231.13,59.25v.27s-.11-.28-.11-.28h.11ZM228.28,94.47c-.33-.06-.21-.61.12-.49-.06.16.1.39-.12.49ZM369.92,115.33h-.49c-.51.91-2.02-.33-2.27.98-.87-.18-.95.8-1.72.9-.23.32-.84.91-1.34,1.01.15.72-.88.2-.68.92-.56.48-1.07,1.13-1.25,1.84-.18.82-.31,1.58-.82,2.45l.04,3.07c-1.5.68.68,1.72-.44,2.46.09,1.04-.38,2.46.31,3.19l-.51.76c.59.56.51-.54,1.05-.47.6.23-.01.66-.02,1.04-.22-.11-.33.1-.55.1-.36,1.31-.07,3.29.18,4.34-.34.43.08,1.48-.43,1.97.59.56.56-.54.95-.64.05.17.27.23.21.44-.23.27-.08.99-.68.86.03,1.1-.16,2.47.09,3.57-.88.15-1.18-1.12-2.12-.81-1.02-1.23-2.49-1.43-3.63-2.44-.38-.12-.5.32-.78.48-.22-.06-.55.1-.66-.12-.16-.39.23-.38.4-.54-.91-.9-1.91-.48-2.71-1.49-1.97-.43-3.82-1.13-5.38-2.48-.72.26-1.41-.63-1.78-1.25-.78.37-2.29-.87-2.43.61-1.3-.85.85-1.08.48-1.69-.98-.3-2.01-1.09-3.04-1.55-.24-1.65-2.49-1.48-2.95-3.19-1.25-.52-1.6-2.07-2.84-2.97-.09-1.15-1.83-1.85-1.08-3.21-.86-.73.1-2.25-.76-3.04.84-.64.81-2.07,2.02-2.21-.21-.61.78-.7.58-1.3-1.05.42-1.51,1.23-2.13,2.09-.34.6-1.29,1.07-1.35,1.67-1.67,1.06-2.26,2.86-3.17,4.43-.44.21-.02.93-.52,1.03l-.24,3.67c.27.44,1.25.74.63,1.33.42.72.63,1.5,1.27,2.11-.02.71.87.29,1.08.96-.21,2.19.23,4.62-.58,6.57.92.62-.14,1.26.4,1.71-.68,1.08.04,3.07-.75,4.21.19,1.43-.54,2.24-.51,3.45.59.56.14,1.05-.04,1.7-.63.97.11,2.75-.74,3.55.69,1-.8,1.46-.28,2.63-.56.7,0,2.25-1.16,2.83.74,1.11-.91,1.63-.55,2.51-.41.98-.87,2.01-1.65,2.71-.13.87-1.39,1.01-1.63,1.83.88-.04,1.84-1.17,2.68-1.92-.04-.77,1.01-1.02,1.08-1.68.39-.38.46-1.03,1.12-1.02.19-1.26,1.14-1.79,1.6-2.87,1-.53.97-1.68,1.54-2.49-.31-.83.69-1.58.16-2.47.88-.26-.03-.99.85-1.3,0-.44.02-.82-.42-1.11.33-.21.45-.48.57-.76-.37-.5.9-1.02-.08-1.43-.05-.28.01-.49.23-.65-.04-.71.16-2.14-.05-2.64-.44.1-.74,1.03-1.22.36-.04-.55.61-.48.84-.91.73-.64.64-1.63.99-2.5-1.08-.68.42-1.53-.23-2.2.07-.71-.14-1.27.15-1.97.13-1.1-.16-2.64.35-3.72.11-.05.16.11.27.17.42.72,1.07,1.29,1.94,1.63.82.29,1.39,1.57,2.33,1.37.8.9,2.11,1.36,2.97,2.42.43.5.89-.47,1.2.14.08,1.21,1.63.86,2.21,1.91l.23-.38c.66.07.81.79,1.18,1.18.65.23.56-.59,1.06-.74.33.06.72-.09.93.13.2.72-.84.64-.79,1.19.44-.21.6.29,1.04.3.69,1.11,1.64.47,2.44,1.37.83-.37,1.25.74,1.57,1.08l.84-.64c-.02,1.1,1.24.96,1.78,1.63.33.17.99.02.92.68.87.35,1.68.91,2.61,1.1,1.07,1.18,2.43,1.86,3.34,3.09-.17.11-.28.38-.5.37v.27c.32,0,.87-.09.92.4-.17.22-.45.32-.66.26-.17.22-.56.32-.45.65.26.66.61-.1.93-.09.32.34.48.83.36,1.16.43.61-.37,1.75.61,2.37.09.94-.37,1.91.49,2.65-.42,1.58.6,2.76.57,3.96h.27c.12-.54.42-1.52-.23-1.97v-5.76s.69-.64.69-.64c1.04.13.63,1.33,1.28,1.84l.11-.11c-.04-.6.25-1.31-.35-1.71.72-.48.31-1.42.43-2.13,1.17-.8-.47-1-.34-1.82,1.66-.51.15-1.86.83-3-.81-.51.09-1.64-.72-2.16,1.45-1.07-.98-.35-.35-1.71-.27-.34-.66.26-.93-.13.69-1.25-1.03-.79-1.28-1.78.01-.44.13-.82.14-1.15.23-.49-1.19-.9-.09-1.04,0-.33-.03-1.04.41-1.2l-.27-.28c-.1-.72-.34-1.93.33-2.35-.33-.23-.48-.56-.36-.94,1.05-.53-.36-1.22.15-1.81h.16c.17-.32.3-1.03-.25-1.1-.21-.5.39-.38.4-.76l.15-7.13.28-.21c-.41-1.49.77-2.45.57-3.72h.16s.02-.76.02-.76c.52-1.42,1-2.89,1.79-4.19-.09-.72.9-.91.97-1.57.29-.76,1.12-.85,1.83-.84.28-.16.78-.42.68-.81ZM333.52,130.89h-.27s0-.39,0-.39c.16,0,.33-.05.38.12.05.11-.06.16-.12.27ZM334.3,130.53h-.27c-.37-.56.09-1.43.69-1.31-.34.32-.35.82-.41,1.31ZM353.86,147.25h-.16s.01-.5.01-.5l.27.23c-.06.11-.17.16-.12.27ZM420.69,138.05c-.19.98-1.03-.41-1.33.63-1.71.46-4.29.57-6.32.52-.44,0-1.01.8-1.32-.03-.55-.12-.93.09-1.32.25-.86-.9-1.93.51-2.63-.33-1.09-.46-2.1.78-2.8-.06-.56.59-1.04-.3-1.71.35-1.14-.79-2.9-.23-4.21-.64v-.11c-.66-.01-1.48.13-1.68-.7.5-.1.68-.81,1.22-.74.34-.49,1.27-.47,1.18-1.18-.5.1-.89.53-1.33.74-1.76.24-2.45,1.54-4.11,2.05-1.45,1.07-2.78,1.7-4.28,2.65.05.33-.18.76.25.94l.11-.11c.22.11.32.39.54.4-.05-.11.06-.22.12-.27.92.57,2.31,0,3.17.62.95-.75,2.79.5,3.31-1.03l.27.28c-.11.16-.39.38-.18.55.93.02,1.17-.96,1.9-1.44.92.73-.67.75-.14,1.48,1.39-.68,2.86-.32,4.45-.18.51-.54,1.38-.24,1.88-.73.48.72,1.48.25,2.24.43.67-.37,1.67-.9,2.37-.5-1.22.69-1.25,2.11-2.42,2.58-.06.33.04.66-.29.82.42,1.05-.91,1.63-.45,2.84-.67.59.12,2.03-.71,2.62-.02.82-.7,1.74-1.15,2.39-.85,1.02-2.08,2.32-3.46,2.67-.57.98-1.75-.37-1.89,1-.93-.29-1.44.46-2.37.22-1.12,1.02-2.68-.44-3.69.69-.11-.11-.33-.17-.27-.39l-2.36-.05c-.31-.83-.88-.02-1.32-.03-.41-1.22-1.64-.47-2.51-.71-.97-.73-1.68-1.24-2.59-2.14l-.11.11c-.27.05-.49-.01-.65-.29-.03-1.15-1.41-.96-1.94-1.74l.11-.11c-.7-.51-.96-1.17-1.66-1.74-.7-.45-.79-1.39-1.27-2-.19-1.27-1.1-2.22-1.24-3.48-.64-1-.22-2.53-1.24-3.32.94-.36-.09-1.16.42-1.69-.49-.4-.2-.88-.36-1.33-.29-1.87.67-3.06.39-5.26.95-.58-.23-2.2,1.1-2.61,0-.16.06-.33-.1-.39.5-.32.13-1.09.79-1.19-.42-.72,1.24-1.46-.07-1.7-.1-.28.12-.38.29-.54.22-.05.44.12.65.18.34-.32.62-.7.52-1.2.94-.31,1.02-1.4,1.9-1.55.12-.55.79-.97.97-1.52,1-.47,1.95-1.44,2.89-1.8,1.38-.24,2.28-1.6,3.87-1.23.46-.76,1.2.46,1.6-.51.27.06.66-.1.93.18l-.18.49c.49.01.84-.59,1.23-.85.34-.32.77-.04,1.04.24,1.05-.2,1.8.53,2.63.33.37.67,1.2.3,1.57,1.08.98.3,1.45,1.29,2.21,1.91.25.99,1.55,1.74.82,2.93.81.68.06,2.25.59,3.14-.61.37.13,1.43-.69,1.58l.43.28c.05.33-.18.55-.45.65l.8.95c.72-.04,1.34-.85,1.62-1.45-.76-.57-.24-1.54-.39-2.37-.75-.62.03-1.48-.17-2.36-.05-.39.62-.76.02-1.04.01-.6-.13-1.32.26-1.7-.65-.62.33-2.35-.7-3.09l.56-.48c0-.33-.04-.77-.42-.83-.16-.33.28-.32.45-.48-.04-.6.14-1.21-.13-1.7-.44,0-.99-.08-1.14-.46l-6.09-.13c-.4.81-1.48.02-1.99.62-1.69-.48-2.33,1.21-3.96.57-.28.16-.45.59-.94.42-.35,1.04-1.36-.52-1.55.74-.93-.08-1.88.51-2.55,1.15-1.08-.85-.96,1.3-2.1.61-1.8,1.83-3.39,1.96-5.24,3.67l.11.17c-.17.38-.62.7-1.06.75-.68.92-1.3,1.56-2.3,2.2-.23.71-.8,1.46-1.36,1.95.2.94-1.67.9-.81,1.79-1.31-.14-.13,1.04-.96,1.46-.73.75-.65,1.91-1.38,2.71.1.66.03.99-.42,1.47.16.28.33-.05.55.01.69.89-1.23,1.13-.6,2.18-.52,1.09-.22,2.74-.36,3.83.49.34-.4.87.25,1.05.32.34-.02.82-.3,1.04.48.83-.38,2.3.99,2.66-1.11.63.46,1.38-.16,2.14.54.62.35,1.54,1.16,2.11-.24.71,1.12,1.51.72,2.38.16.17.27.44.54.45.03.99.76.46,1.3.91-.06.27-.51.54-.18.82.27,0,.66.07.65.4l-.11.11c.42.78.55-.21,1.04-.09-.58,1.52,1.56,1.35,1.53,2.67,1.6-.62.9,1.56,2.33,1.37l.28-.38c.16.06.44-.1.49.12,0,.16.05.33-.12.38,1.69.48,2.77,1.49,4.69,1.31,1.41.58,3.62.13,5.26.5.57-.81,1.76-.02,2.43-.61,1.1-.31,1.92.26,3.03-.59,1.08.63,1.73-1.33,2.92-.6.5-.32.85-1.41,1.56-.9.77-.2,1.39-.9,2.01-1.49l-.38-.28c0-.16,0-.33.17-.38.44-.15.27.34.48.5,1.17-.85,2.35-2.14,3.53-3.22l-.53-.67.28-.27c.38,0,.21.44.48.56l.95-.75.27.23-.17,2.8c.7.4-.37,1.69.72,2.1l-.56.54c.65.23.36,1.05.79,1.44-.34.54.36.94.46,1.49.21.5,1.24.91.62,1.55.48.45.8.95,1.07,1.5,1.38-.46-.04,1.59,1.13,1.18l-.22-2.64c.23-.43.68-.97.03-1.43.07-.6-.03-1.21.47-1.58-.81-.46-.09-1.1.04-1.59-.92-.46.14-1.37-.4-1.82.12-.6-.13-1.37.48-1.69-1.31-.52.9-.97-.41-1.49-.1-.33.23-.54.46-.76-.76-.24.08-.93-.41-1.22-.1-.33.23-.54.46-.76-.18-1.81-.13-3.96.13-6.09l.39-.38c-.03-1.32-.49-2.7.46-3.78.28,0,.5-.04.66-.26,1.04-.09,2.32-.55,3.58-.58.62-.53,1.49-.52,2.11-1,.72-.15,1.28-.8,2-.89.77.02,1.82-.56,2.28-1.27-.77-.02-1.56,1.01-2.65.6ZM401.5,142.24v-.38c.17,0,.34-.05.39.12,0,.16-.22.21-.39.27ZM371.19,142.9h-.27s0-.28,0-.28h.27s0,.28,0,.28ZM373.98,153.5c-.1-.44.4-.49.67-.53,0,.38-.23.65-.67.53ZM375.41,143c-.16-.11-.43-.45-.15-.66.11-.05.22.06.27.12-.06.16.1.44-.12.55ZM375.91,137.74l-.54-.56c.11-.22.39-.05.55-.1l-.02.66ZM377.25,131.84c.16.06.11.22.1.39-.17.16-.28.32-.56.26l.45-.65ZM380.23,151.28h-.55c-.22-.18.06-.39.18-.56.11,0,.28-.05.38.12v.44ZM383.03,156.06c-.16-.17-.31-.67.12-.66-.06.22.1.55-.12.66ZM386.57,157.73l-.43-.39c.27,0,.67-.53.94-.42-.39.16-.24.76-.51.81Z"/>
</svg>